<svg width="33" height="18" viewBox="0 0 33 18" fill="none" xmlns="http://www.w3.org/2000/svg">
<path d="M22.5 0L21 1.125L24.75 6H18.75V3.75H16.5V6H3C1.335 6 0 7.335 0 9V13.5H3C3 14.6935 3.47411 15.8381 4.31802 16.682C5.16193 17.5259 6.30653 18 7.5 18C8.69347 18 9.83807 17.5259 10.682 16.682C11.5259 15.8381 12 14.6935 12 13.5H21C21 14.6935 21.4741 15.8381 22.318 16.682C23.1619 17.5259 24.3065 18 25.5 18C26.6935 18 27.8381 17.5259 28.682 16.682C29.5259 15.8381 30 14.6935 30 13.5H33V9C33 7.335 31.665 6 30 6H27L22.5 0ZM7.5 11.25C8.09674 11.25 8.66903 11.4871 9.09099 11.909C9.51295 12.331 9.75 12.9033 9.75 13.5C9.75 14.0967 9.51295 14.669 9.09099 15.091C8.66903 15.5129 8.09674 15.75 7.5 15.75C6.90326 15.75 6.33097 15.5129 5.90901 15.091C5.48705 14.669 5.25 14.0967 5.25 13.5C5.25 12.9033 5.48705 12.331 5.90901 11.909C6.33097 11.4871 6.90326 11.25 7.5 11.25V11.25ZM25.5 11.25C26.0967 11.25 26.669 11.4871 27.091 11.909C27.5129 12.331 27.75 12.9033 27.75 13.5C27.75 14.0967 27.5129 14.669 27.091 15.091C26.669 15.5129 26.0967 15.75 25.5 15.75C24.9033 15.75 24.331 15.5129 23.909 15.091C23.4871 14.669 23.25 14.0967 23.25 13.5C23.25 12.9033 23.4871 12.331 23.909 11.909C24.331 11.4871 24.9033 11.25 25.5 11.25Z" fill="#393D60"/>
</svg>
