<svg width="42" height="18" viewBox="0 0 42 18" fill="none" xmlns="http://www.w3.org/2000/svg">
<path d="M21 0H11.4545L5.72727 4.73684H3.81818C1.69909 4.73684 0 6.42316 0 8.52632V14.2105H4.14273C4.96364 16.4842 7.12091 18 9.54545 18C11.97 18 14.1273 16.4842 14.9291 14.2105H27.0518C27.8727 16.4842 30.03 18 32.4545 18C34.8791 18 37.0364 16.4842 37.8382 14.2105H42V12.3158C42 10.2126 40.0336 9.53053 38.1818 8.52632L21 0ZM8.11364 6.63158L12.4091 2.84211H20.0455L27.6818 6.63158H8.11364ZM9.54545 9.47368C10.3049 9.47368 11.0333 9.77312 11.5704 10.3061C12.1074 10.8391 12.4091 11.562 12.4091 12.3158C12.4091 13.0696 12.1074 13.7925 11.5704 14.3255C11.0333 14.8585 10.3049 15.1579 9.54545 15.1579C8.78597 15.1579 8.05759 14.8585 7.52056 14.3255C6.98352 13.7925 6.68182 13.0696 6.68182 12.3158C6.68182 11.562 6.98352 10.8391 7.52056 10.3061C8.05759 9.77312 8.78597 9.47368 9.54545 9.47368V9.47368ZM32.4545 9.47368C33.214 9.47368 33.9424 9.77312 34.4794 10.3061C35.0165 10.8391 35.3182 11.562 35.3182 12.3158C35.3182 13.0696 35.0165 13.7925 34.4794 14.3255C33.9424 14.8585 33.214 15.1579 32.4545 15.1579C31.6951 15.1579 30.9667 14.8585 30.4296 14.3255C29.8926 13.7925 29.5909 13.0696 29.5909 12.3158C29.5909 11.562 29.8926 10.8391 30.4296 10.3061C30.9667 9.77312 31.6951 9.47368 32.4545 9.47368Z" fill="#393D60"/>
</svg>
