<svg width="117" height="56" viewBox="0 0 117 56" fill="none" xmlns="http://www.w3.org/2000/svg">
<g clip-path="url(#clip0_1134:2494)">
<path d="M116.738 37.9576C116.738 38.1833 116.738 38.409 116.725 38.6321C116.693 39.5005 116.595 40.3646 116.432 41.2159C115.622 45.4296 113.284 48.705 110.347 49.6721C109.763 49.8659 109.155 49.9645 108.543 49.9648C104.016 49.9648 100.348 44.5845 100.348 37.9576C100.348 31.3307 104.016 25.9504 108.543 25.9504C112.789 25.9504 116.281 30.6824 116.697 36.7438C116.725 37.1427 116.738 37.5482 116.738 37.9576Z" fill="#36334A"/>
<path opacity="0.1" d="M116.725 38.6336C116.694 39.5019 116.596 40.3661 116.432 41.2174C115.622 45.4311 113.284 48.7065 110.348 49.6736C108.074 48.5595 106.387 44.3839 106.387 39.4025C106.387 33.5682 108.704 28.8389 111.563 28.8389C113.962 28.8389 115.981 32.1746 116.566 36.7006C116.648 37.3213 116.701 37.9696 116.725 38.6336Z" fill="black"/>
<path d="M75.5762 11.3845C75.5762 11.3845 97.7592 6.52911 109.467 10.9908C109.467 10.9908 111.192 11.9094 109.467 13.4841C109.467 13.4841 111.099 15.3212 108.249 15.9774L96.9298 16.7188L75.5762 14.4027V11.3845Z" fill="#3F3D56"/>
<path opacity="0.1" d="M79.458 11.9948C79.458 11.9948 98.4504 7.83753 108.475 11.6575C108.475 11.6575 109.954 12.4449 108.475 13.7926C108.475 13.7926 109.871 15.3673 107.432 15.9276L97.7405 16.5614L79.458 14.5812V11.9948Z" fill="black"/>
<path d="M101.087 19.2581L99.6086 16.1087C99.6086 16.1087 100.257 12.9225 94.9872 11.9855C94.6951 10.5959 93.3715 9.54736 91.7829 9.54736C90.2326 9.54736 88.9361 10.5447 88.6009 11.8832C87.8442 11.9527 87.0382 12.0472 86.1756 12.1719L84.9703 19.0534L84.8199 18.7332C84.8199 18.7332 85.5852 14.9696 78.6876 14.4198C79.0636 13.9345 79.2708 13.3259 79.2742 12.6968C79.2742 11.0289 77.8113 9.67859 76.0083 9.67859C74.2054 9.67859 72.7425 11.0289 72.7425 12.6968C72.7472 13.382 72.9915 14.0407 73.4277 14.5444C72.7828 14.6101 72.1025 14.694 71.3869 14.7964L70.0312 22.5387L76.3164 23.4573L86.2988 21.8826L85.4152 19.9995L91.1051 20.8315L101.087 19.2581Z" fill="#6C63FF"/>
<path opacity="0.2" d="M101.087 19.2581L99.6086 16.1087C99.6086 16.1087 100.257 12.9225 94.9872 11.9855C94.6951 10.5959 93.3715 9.54736 91.7829 9.54736C90.2326 9.54736 88.9361 10.5447 88.6009 11.8832C87.8442 11.9527 87.0382 12.0472 86.1756 12.1719L84.9703 19.0534L84.8199 18.7332C84.8199 18.7332 85.5852 14.9696 78.6876 14.4198C79.0636 13.9345 79.2708 13.3259 79.2742 12.6968C79.2742 11.0289 77.8113 9.67859 76.0083 9.67859C74.2054 9.67859 72.7425 11.0289 72.7425 12.6968C72.7472 13.382 72.9915 14.0407 73.4277 14.5444C72.7828 14.6101 72.1025 14.694 71.3869 14.7964L70.0312 22.5387L76.3164 23.4573L86.2988 21.8826L85.4152 19.9995L91.1051 20.8315L101.087 19.2581Z" fill="black"/>
<path d="M79.8873 12.2873C79.8873 12.2873 78.9014 6.39784 83.4612 6.26661C88.021 6.13539 86.5422 14.7963 86.5422 14.7963C86.5422 14.7963 89.9929 15.5836 90.2393 17.0271C90.4858 18.4706 78.2852 18.8643 78.2852 18.8643L79.8873 12.2873Z" fill="#6C63FF"/>
<path d="M71.8795 43.4035C71.8795 50.3585 67.0239 56.0012 61.0345 56.0012C55.0451 56.0012 50.1895 50.3585 50.1895 43.4035C50.1895 36.4486 55.1055 29.6904 61.0961 29.6904C67.0868 29.6904 71.8795 36.4459 71.8795 43.4035Z" fill="#36334A"/>
<path opacity="0.1" d="M61.0349 54.5565C65.7993 54.5565 69.6617 49.7982 69.6617 43.9285C69.6617 38.0588 65.7993 33.3005 61.0349 33.3005C56.2705 33.3005 52.4082 38.0588 52.4082 43.9285C52.4082 49.7982 56.2705 54.5565 61.0349 54.5565Z" fill="black"/>
<path d="M13.3411 54.8191C19.3307 54.8191 24.1862 49.179 24.1862 42.2215C24.1862 35.264 19.3307 29.6238 13.3411 29.6238C7.35158 29.6238 2.49609 35.264 2.49609 42.2215C2.49609 49.179 7.35158 54.8191 13.3411 54.8191Z" fill="#36334A"/>
<path d="M31.8268 12.1719C31.8268 12.1719 26.774 12.4343 27.0205 15.3213C27.2669 18.2083 31.3338 16.1087 31.3338 16.1087L31.8268 12.1719Z" fill="#36334A"/>
<path d="M73.8656 16.9814L75.9458 2.19886C75.9458 2.19886 76.4388 0.361703 69.7839 0.361703C69.7839 0.361703 48.4635 -1.08178 43.041 1.28028C43.041 1.28028 36.7558 3.77357 28.0059 16.6337C28.0059 16.6337 73.0029 17.7688 73.8656 16.9814Z" fill="#3F3D56"/>
<path d="M73.1114 1.54272L69.291 17.6835L66.8952 17.6218L55.5572 17.3279L30.2698 16.6718C30.1996 15.3962 42.1747 2.19885 42.1747 2.19885L73.1114 1.54272Z" fill="#36334A"/>
<path opacity="0.2" d="M55.5605 17.3276L56.5933 13.0759C56.5933 13.0759 55.6074 7.18519 60.1672 7.05397C64.7271 6.92274 63.2482 15.5837 63.2482 15.5837C63.2482 15.5837 66.3908 16.3015 66.8911 17.6216L55.5605 17.3276Z" fill="#6C63FF"/>
<path d="M116.8 37.0392C116.06 29.4281 111.439 27.7877 111.439 27.7877C107.002 27.5253 104.045 45.5032 104.045 45.5032L69.9073 48.7839C69.9073 48.7839 71.0781 33.4961 62.8211 31.0028C54.5641 28.5095 52.4074 46.4218 52.0377 48.9151C51.668 51.4084 2.24911 48.6526 0.893483 47.6028C-0.462146 46.553 0.0308098 36.4486 0.400527 35.6613C0.770244 34.8739 1.75616 31.3308 1.75616 31.3308C1.75616 30.4857 2.13573 29.4176 2.45122 28.6761C2.67305 28.1512 2.86531 27.7877 2.86531 27.7877C3.93625 21.3209 9.4968 19.7554 9.87021 19.6517H9.88993C11.3688 18.077 25.0483 17.0272 25.0483 17.0272L30.2244 15.9774L72.3068 16.8579L74.0975 16.896L95.4918 15.8003L109.96 15.0588C113.287 15.0588 115.013 23.9822 115.013 23.9822C118.094 31.8557 116.8 37.0392 116.8 37.0392Z" fill="#3F3D56"/>
<path opacity="0.1" d="M47.4216 29.3107C50.6722 27.9179 52.6434 25.0322 51.8245 22.8652C51.0055 20.6982 47.7066 20.0706 44.456 21.4634C41.2054 22.8563 39.2342 25.742 40.0531 27.909C40.872 30.076 44.171 30.7036 47.4216 29.3107Z" fill="black"/>
<path d="M47.1765 28.7853C50.427 27.3925 52.3983 24.5068 51.5794 22.3398C50.7604 20.1728 47.4615 19.5452 44.2109 20.9381C40.9603 22.3309 38.9891 25.2166 39.808 27.3836C40.6269 29.5506 43.9259 30.1782 47.1765 28.7853Z" fill="#F2F2F2"/>
<path opacity="0.1" d="M10.1163 19.9194C10.0534 21.3629 9.44584 23.1843 8.35271 24.9388C6.59408 27.7628 4.1823 29.4254 2.69727 28.9386C2.9191 28.4137 3.11135 28.0502 3.11135 28.0502C4.1823 21.5834 9.74284 20.0179 10.1163 19.9194Z" fill="black"/>
<path d="M9.74614 19.657C9.68329 21.1005 9.07572 22.9219 7.98259 24.6764C6.22397 27.5004 3.81218 29.163 2.32715 28.6761C2.54898 28.1512 2.74123 27.7877 2.74123 27.7877C3.81218 21.3209 9.37273 19.7554 9.74614 19.657Z" fill="#F2F2F2"/>
<path d="M27.0208 23.5871H17.2849L16.792 22.1436H28.6229L27.0208 23.5871Z" fill="#36334A"/>
<path d="M24.8023 34.2166H8.78125V39.2031H24.8023V34.2166Z" fill="#36334A"/>
<path opacity="0.1" d="M42.0562 44.0586C43.2813 44.0586 44.2745 43.0011 44.2745 41.6965C44.2745 40.392 43.2813 39.3345 42.0562 39.3345C40.8311 39.3345 39.8379 40.392 39.8379 41.6965C39.8379 43.0011 40.8311 44.0586 42.0562 44.0586Z" fill="black"/>
<path d="M41.8091 43.6648C43.0343 43.6648 44.0274 42.6073 44.0274 41.3027C44.0274 39.9982 43.0343 38.9407 41.8091 38.9407C40.584 38.9407 39.5908 39.9982 39.5908 41.3027C39.5908 42.6073 40.584 43.6648 41.8091 43.6648Z" fill="#F2F2F2"/>
<path opacity="0.1" d="M1.75661 42.3526C2.36918 42.3526 2.86576 41.2363 2.86576 39.8593C2.86576 38.4823 2.36918 37.366 1.75661 37.366C1.14404 37.366 0.647461 38.4823 0.647461 39.8593C0.647461 41.2363 1.14404 42.3526 1.75661 42.3526Z" fill="black"/>
<path d="M1.38649 42.2215C1.99906 42.2215 2.49565 41.1052 2.49565 39.7282C2.49565 38.3511 1.99906 37.2349 1.38649 37.2349C0.773928 37.2349 0.277344 38.3511 0.277344 39.7282C0.277344 41.1052 0.773928 42.2215 1.38649 42.2215Z" fill="#F2F2F2"/>
<path d="M99.1149 29.2313C97.7592 33.6929 97.636 40.6479 97.636 40.6479L97.143 42.4851L73.1114 45.372C73.1114 45.372 73.2346 32.5119 73.6044 26.4755C73.8644 22.2172 72.8994 18.6125 72.3066 16.858L74.0973 16.896L95.4916 15.8003C99.0656 18.4681 100.331 25.2249 99.1149 29.2313Z" fill="#36334A"/>
<path d="M93.6362 21.1871C93.5521 21.193 93.4701 21.2177 93.3954 21.2594C93.3207 21.3011 93.255 21.3589 93.2026 21.4292C93.1501 21.4995 93.1121 21.5807 93.0908 21.6676C93.0696 21.7545 93.0656 21.8451 93.0792 21.9338C93.0909 22.0079 93.1195 22.0779 93.1624 22.1376C93.2054 22.1974 93.2614 22.2449 93.3257 22.2763C93.7237 22.4875 96.3734 22.0138 97.3778 21.8248C97.5265 21.7992 97.663 21.7218 97.766 21.6047C97.869 21.4877 97.9327 21.3376 97.9471 21.1779C97.9594 20.9915 97.8954 20.8328 97.639 20.8328L93.6362 21.1871Z" fill="#F2F2F2"/>
<path d="M72.249 16.3712C72.249 16.3712 72.8652 19.2582 75.823 18.3396L76.8089 14.2716L74.837 13.0906L72.249 16.3712Z" fill="#36334A"/>
<path d="M75.8706 10.5095C77.2262 9.65388 79.3767 8.90589 81.5038 10.7024C81.9466 11.0746 82.2589 11.5946 82.3906 12.1787C82.5222 12.7627 82.4656 13.377 82.2297 13.9227C81.5334 15.5276 79.8808 17.2689 76.0222 15.1837C75.6434 14.979 75.3201 14.6746 75.0831 14.2993L75.0634 14.2678C74.8767 13.9671 74.7492 13.6293 74.6887 13.2746C74.6282 12.92 74.6359 12.556 74.7114 12.2046C74.7869 11.8533 74.9285 11.5219 75.1278 11.2305C75.327 10.9391 75.5797 10.6938 75.8706 10.5095Z" fill="#36334A"/>
<path d="M61.0956 45.9612C62.4569 45.9612 63.5604 44.7862 63.5604 43.3367C63.5604 41.8872 62.4569 40.7122 61.0956 40.7122C59.7344 40.7122 58.6309 41.8872 58.6309 43.3367C58.6309 44.7862 59.7344 45.9612 61.0956 45.9612Z" fill="#F2F2F2"/>
<path d="M111.993 41.2373C112.742 41.2373 113.349 40.0623 113.349 38.6128C113.349 37.1633 112.742 35.9883 111.993 35.9883C111.245 35.9883 110.638 37.1633 110.638 38.6128C110.638 40.0623 111.245 41.2373 111.993 41.2373Z" fill="#F2F2F2"/>
<path d="M61.157 35.2664H60.9105C60.0938 35.2664 59.4316 35.9714 59.4316 36.8411V38.2845C59.4316 39.1542 60.0938 39.8593 60.9105 39.8593H61.157C61.9738 39.8593 62.6359 39.1542 62.6359 38.2845V36.8411C62.6359 35.9714 61.9738 35.2664 61.157 35.2664Z" fill="#36334A"/>
<path d="M111.994 30.2141C112.107 30.2141 112.219 30.2379 112.324 30.284C112.428 30.3302 112.523 30.3979 112.604 30.4832C112.684 30.5685 112.747 30.6697 112.791 30.7812C112.834 30.8926 112.856 31.0121 112.856 31.1327V33.2323C112.856 33.6499 112.7 34.0505 112.423 34.3458C112.146 34.6411 111.77 34.807 111.377 34.807C111.149 34.807 110.929 34.7102 110.767 34.538C110.606 34.3657 110.515 34.1321 110.515 33.8884V31.7888C110.515 31.3712 110.67 30.9706 110.948 30.6753C111.225 30.38 111.601 30.2141 111.994 30.2141Z" fill="#36334A"/>
<path d="M111.994 47.0123C111.601 47.0123 111.225 46.8464 110.948 46.5511C110.67 46.2558 110.515 45.8553 110.515 45.4376V43.9941C110.515 43.5765 110.67 43.176 110.948 42.8807C111.225 42.5853 111.601 42.4194 111.994 42.4194C112.807 42.4194 112.733 43.1281 112.733 43.9941V45.4376C112.732 46.3037 112.809 47.0123 111.994 47.0123Z" fill="#36334A"/>
<path d="M108.296 36.2502C108.689 36.2502 109.065 36.4161 109.342 36.7115C109.62 37.0068 109.775 37.4073 109.775 37.825V39.7933C109.775 40.0718 109.671 40.3388 109.487 40.5357C109.302 40.7326 109.051 40.8432 108.789 40.8432C108.397 40.8432 108.021 40.6773 107.744 40.3819C107.466 40.0866 107.311 39.6861 107.311 39.2684V37.3001C107.311 37.0216 107.414 36.7546 107.599 36.5577C107.784 36.3608 108.035 36.2502 108.296 36.2502Z" fill="#36334A"/>
<path d="M116.738 37.9578C116.738 38.1835 116.738 38.4092 116.725 38.6323C116.693 39.5006 116.595 40.3648 116.431 41.2161C116.35 41.2307 116.268 41.2382 116.185 41.2384C115.793 41.2384 115.417 41.0725 115.139 40.7772C114.862 40.4819 114.706 40.0813 114.706 39.6637V38.2202C114.706 37.8026 114.862 37.4021 115.139 37.1067C115.417 36.8114 115.793 36.6455 116.185 36.6455C116.314 36.6452 116.442 36.6633 116.567 36.6993C116.611 36.7124 116.656 36.7269 116.698 36.7439C116.725 37.1429 116.738 37.5483 116.738 37.9578Z" fill="#36334A"/>
<path d="M67.3816 40.8433H67.1351C66.3184 40.8433 65.6562 41.5483 65.6562 42.418V43.8615C65.6562 44.7312 66.3184 45.4362 67.1351 45.4362H67.3816C68.1983 45.4362 68.8605 44.7312 68.8605 43.8615V42.418C68.8605 41.5483 68.1983 40.8433 67.3816 40.8433Z" fill="#36334A"/>
<path d="M55.3035 40.8433H55.057C54.2402 40.8433 53.5781 41.5483 53.5781 42.418V43.8615C53.5781 44.7312 54.2402 45.4362 55.057 45.4362H55.3035C56.1202 45.4362 56.7823 44.7312 56.7823 43.8615V42.418C56.7823 41.5483 56.1202 40.8433 55.3035 40.8433Z" fill="#36334A"/>
<path d="M61.2195 47.6672H60.973C60.1563 47.6672 59.4941 48.3723 59.4941 49.2419V50.6854C59.4941 51.5551 60.1563 52.2601 60.973 52.2601H61.2195C62.0362 52.2601 62.6984 51.5551 62.6984 50.6854V49.2419C62.6984 48.3723 62.0362 47.6672 61.2195 47.6672Z" fill="#36334A"/>
</g>
<defs>
<clipPath id="clip0_1134:2494">
<rect width="117" height="56" fill="white"/>
</clipPath>
</defs>
</svg>
