<svg width="118" height="62" viewBox="0 0 118 62" fill="none" xmlns="http://www.w3.org/2000/svg">
<g clip-path="url(#clip0_1134:2634)">
<path opacity="0.1" d="M59 61.9999C91.5848 61.9999 118 53.8729 118 43.8477C118 33.8226 91.5848 25.6956 59 25.6956C26.4152 25.6956 0 33.8226 0 43.8477C0 53.8729 26.4152 61.9999 59 61.9999Z" fill="#6C63FF"/>
<g opacity="0.8">
<path opacity="0.8" d="M42.8779 3.6958C43.8781 5.079 44.6455 9.1073 44.8594 10.3212L46.6473 10.2852C46.5548 9.24234 44.4749 5.00053 43.8967 3.83665C43.5749 3.78691 43.2315 3.73832 42.8779 3.6958Z" fill="#65617D"/>
<path opacity="0.8" d="M20.5631 2.79564L20.542 3.89575L21.3339 3.9105L21.355 2.81039L20.5631 2.79564Z" fill="#DCE0ED"/>
<path opacity="0.1" d="M20.5635 2.79565L20.5566 3.15385C20.6123 3.17066 20.6701 3.17945 20.7283 3.17997L21.3482 3.1863L21.3554 2.8104L20.5635 2.79565Z" fill="black"/>
<path opacity="0.8" d="M21.7436 0.0138364L20.9959 -8.94507e-05C20.8173 -0.00338164 20.6418 0.0459417 20.4919 0.141572C20.3419 0.237201 20.2242 0.374787 20.154 0.536723C19.9248 1.06421 19.7233 1.90604 20.1943 2.75812C20.2469 2.85332 20.3243 2.93295 20.4186 2.98881C20.5128 3.04467 20.6204 3.07474 20.7304 3.0759L21.6848 3.08562L21.7436 0.0138364Z" fill="#DCE0ED"/>
<path opacity="0.8" d="M22.5147 1.56474C22.5309 0.716487 22.1856 0.0221687 21.7433 0.0139322C21.3011 0.00569566 20.9294 0.68666 20.9132 1.53491C20.897 2.38316 21.2423 3.07748 21.6845 3.08571C22.1267 3.09395 22.4984 2.41299 22.5147 1.56474Z" fill="#F0F0F4"/>
<path opacity="0.8" d="M27.5985 2.93965L27.5801 3.90283L28.372 3.91758L28.3904 2.9544L27.5985 2.93965Z" fill="#DCE0ED"/>
<path opacity="0.1" d="M27.5986 2.9397L27.5928 3.24583C27.6484 3.26264 27.7062 3.27143 27.7644 3.27195L28.3844 3.27828L28.3906 2.95445L27.5986 2.9397Z" fill="black"/>
<path opacity="0.8" d="M28.7788 0.157879L28.0311 0.143953C27.8525 0.140662 27.677 0.189986 27.527 0.285616C27.377 0.381246 27.2594 0.518831 27.1891 0.680768C26.96 1.20826 26.7584 2.05008 27.2295 2.90216C27.2821 2.99736 27.3595 3.07699 27.4537 3.13286C27.548 3.18872 27.6556 3.21878 27.7655 3.21995L28.72 3.22966L28.7788 0.157879Z" fill="#DCE0ED"/>
<path opacity="0.8" d="M29.5498 1.70878C29.5661 0.86053 29.2207 0.166214 28.7785 0.157978C28.3363 0.149743 27.9646 0.830708 27.9484 1.67896C27.9321 2.5272 28.2774 3.22152 28.7197 3.22975C29.1619 3.23799 29.5336 2.55703 29.5498 1.70878Z" fill="#F0F0F4"/>
<path opacity="0.8" d="M28.5682 0.715576C28.5682 0.715576 28.8626 0.767681 28.7017 1.14931C28.6166 1.33464 28.5534 1.529 28.5133 1.72856C28.5133 1.72856 28.215 1.87452 28.2365 1.37374C28.2579 0.872968 28.5682 0.715576 28.5682 0.715576Z" fill="#DCE0ED"/>
<path opacity="0.8" d="M62.8311 23.3094C62.8845 20.5202 60.8359 18.2202 58.2555 18.1721C55.675 18.1241 53.5398 20.3462 53.4864 23.1353C53.433 25.9245 55.4815 28.2245 58.062 28.2726C60.6425 28.3206 62.7777 26.0985 62.8311 23.3094Z" fill="#636780"/>
<path opacity="0.1" d="M56.4985 18.4543C58.9405 18.6621 60.8352 20.8925 60.7838 23.5762C60.7424 25.7394 59.4486 27.5612 57.6662 28.2476C55.2242 28.0399 53.3295 25.8095 53.3809 23.1258C53.4223 20.9626 54.7161 19.1408 56.4985 18.4543Z" fill="black"/>
<path opacity="0.8" d="M25.5934 11.5742C25.6449 8.88086 23.9888 6.66588 21.8943 6.62687C19.7998 6.58786 18.06 8.73959 18.0084 11.4329C17.9569 14.1262 19.613 16.3412 21.7075 16.3802C23.802 16.4192 25.5418 14.2675 25.5934 11.5742Z" fill="#636780"/>
<path opacity="0.1" d="M22.9504 6.85083C24.5119 7.47455 25.6245 9.36567 25.5821 11.5806C25.5368 13.9476 24.1875 15.896 22.4395 16.307C20.878 15.6833 19.7654 13.7922 19.8078 11.5772C19.8531 9.21025 21.2024 7.26184 22.9504 6.85083Z" fill="black"/>
<path opacity="0.8" d="M36.0668 10.7275L36.0303 8.95601C36.0303 8.95601 36.3969 8.19896 36.7502 8.13609C37.1035 8.07323 37.9138 8.04492 37.9138 8.04492C37.9138 8.04492 38.4987 10.5992 38.0617 11.3549C37.6247 12.1107 36.0668 10.7275 36.0668 10.7275Z" fill="#65617D"/>
<path opacity="0.1" d="M36.0668 10.7275L36.0303 8.95601C36.0303 8.95601 36.3969 8.19896 36.7502 8.13609C37.1035 8.07323 37.9138 8.04492 37.9138 8.04492C37.9138 8.04492 38.4987 10.5992 38.0617 11.3549C37.6247 12.1107 36.0668 10.7275 36.0668 10.7275Z" fill="black"/>
<path opacity="0.8" d="M42.564 10.6577C42.564 10.6577 42.8292 8.20717 41.4619 8.13752C41.286 8.12856 41.1101 8.12111 40.9351 8.10111C39.9887 7.99292 37.4069 7.74803 37.7055 8.33629C37.7055 8.33629 38.2806 10.4824 37.8479 11.0125L42.564 10.6577Z" fill="#65617D"/>
<path opacity="0.8" d="M23.0921 14.8479L21.2565 14.8658C21.2565 14.8658 21.0035 11.5278 20.9029 11.2655C20.8023 11.0032 20.7734 9.75272 21.1201 9.57689C21.4667 9.40106 22.6193 9.20117 22.6193 9.20117L23.4276 11.1172L23.4607 12.8366L23.0921 14.8479Z" fill="#65617D"/>
<path opacity="0.1" d="M23.0921 14.8479L21.2565 14.8658C21.2565 14.8658 21.0035 11.5278 20.9029 11.2655C20.8023 11.0032 20.7734 9.75272 21.1201 9.57689C21.4667 9.40106 22.6193 9.20117 22.6193 9.20117L23.4276 11.1172L23.4607 12.8366L23.0921 14.8479Z" fill="black"/>
<path opacity="0.8" d="M27.6331 9.39865L27.6484 9.02772C27.6496 8.99848 27.6447 8.9693 27.634 8.94199C27.6233 8.91468 27.6071 8.88982 27.5863 8.86894C27.5655 8.84807 27.5405 8.83162 27.513 8.82063C27.4855 8.80963 27.456 8.8043 27.4263 8.80499C26.5163 8.8259 23.2046 8.92056 22.6195 9.20111C22.6195 9.20111 23.1641 13.8596 22.4434 14.953L22.6096 18.68L30.7252 18.2322L27.6331 9.39865Z" fill="#65617D"/>
<path opacity="0.1" d="M28.3792 3.54246C28.1547 3.5164 27.8875 3.48747 27.5886 3.45898L27.5801 3.90309L28.372 3.91784L28.3792 3.54246Z" fill="black"/>
<path opacity="0.1" d="M20.5431 3.83967L20.542 3.8959L21.3339 3.91065L21.3404 3.57275C21.0644 3.62863 20.7965 3.7183 20.5431 3.83967Z" fill="black"/>
<path opacity="0.8" d="M16.3584 14.8396L17.5549 14.879L20.1128 10.4934L20.5398 9.76124L20.2589 7.8811L20.0069 8.33059L16.3584 14.8396Z" fill="#DCE0ED"/>
<path opacity="0.8" d="M27.2861 9.59171L27.7648 10.3298L29.2754 8.39337L29.9668 7.50621L29.5722 6.96094L29.2552 7.32581L27.2861 9.59171Z" fill="#DCE0ED"/>
<path opacity="0.1" d="M29.2552 7.32586C29.2523 7.36331 29.2495 7.40179 29.2461 7.44079L29.2754 8.39341L29.9668 7.5063L29.5722 6.96094L29.2552 7.32586Z" fill="black"/>
<path opacity="0.1" d="M20.0068 8.33059L20.1128 10.4934L20.5397 9.76124L20.2588 7.8811L20.0068 8.33059Z" fill="black"/>
<path opacity="0.8" d="M30.6297 8.73408C30.6297 8.73408 31.3039 4.3923 29.1653 3.70143C29.1378 3.69273 29.1097 3.68647 29.0811 3.6827C28.5872 3.61454 23.9822 3.00387 21.5739 3.58283C21.5739 3.58283 19.9326 3.79532 19.9336 4.66338L20.452 15.2805L21.6311 15.3025L21.3783 8.28398C21.3783 8.28398 20.8736 5.21907 21.8103 5.02819C22.747 4.8373 26.9949 4.5692 28.4828 5.01357C28.4828 5.01357 29.5785 4.79093 29.3517 7.44292L29.3948 8.86732L30.6297 8.73408Z" fill="#DCE0ED"/>
<path opacity="0.8" d="M27.0151 9.96006C27.0075 9.845 27.03 9.72995 27.0806 9.62598C27.1312 9.52202 27.208 9.43265 27.3038 9.36648C27.6385 9.12532 28.665 8.6106 28.665 8.6106L28.9945 8.64277L29.938 11.0822L29.7736 16.2223L27.9501 18.3628L27.0151 9.96006Z" fill="#65617D"/>
<path opacity="0.1" d="M27.0151 9.96006C27.0075 9.845 27.03 9.72995 27.0806 9.62598C27.1312 9.52202 27.208 9.43265 27.3038 9.36648C27.6385 9.12532 28.665 8.6106 28.665 8.6106L28.9945 8.64277L29.938 11.0822L29.7736 16.2223L27.9501 18.3628L27.0151 9.96006Z" fill="black"/>
<path opacity="0.8" d="M34.0216 15.4813L34.0875 10.2048C34.0875 10.2048 34.2851 8.15988 33.045 8.10206C33.045 8.10206 30.1184 8.06857 28.8398 8.4519C28.7994 8.46389 28.7623 8.4846 28.731 8.51251C28.6998 8.54043 28.6752 8.57486 28.6591 8.6133C28.6431 8.65175 28.6359 8.69324 28.6381 8.73476C28.6403 8.77629 28.6519 8.81681 28.6719 8.85338C28.9167 9.29259 29.3215 10.4505 29.471 13.4044L29.4104 16.5673L34.0216 15.4813Z" fill="#65617D"/>
<path opacity="0.8" d="M27.7842 18.7374L33.1104 18.7142L33.1157 18.7143L35.7333 18.7032L35.4958 15.2483L34.0429 15.2734L29.4039 16.2025L27.9497 18.3629L27.7842 18.7374Z" fill="#65617D"/>
<path opacity="0.1" d="M27.7842 18.7374L33.1104 18.7142L33.1157 18.7143L35.7333 18.7032L35.4958 15.2483L34.0429 15.2734L29.4039 16.2025L27.9497 18.3629L27.7842 18.7374Z" fill="black"/>
<path opacity="0.8" d="M27.7842 18.7373L33.1104 18.7141L33.2423 16.4041L29.4039 16.2024L27.9497 18.3628L27.7842 18.7373Z" fill="#65617D"/>
<path opacity="0.1" d="M33.1152 18.7141L35.7329 18.703L35.4954 15.248C35.4954 15.248 34.6524 16.5214 33.2419 16.404L33.1152 18.7141Z" fill="white"/>
<path opacity="0.8" d="M14.2836 21.155C14.3703 22.1462 15.086 22.0033 15.086 22.0033L15.2193 21.9938L16.5404 21.9002L16.517 20.3633C16.0699 20.3297 15.6204 20.3479 15.1776 20.4175C14.681 20.5093 14.2451 20.7148 14.2836 21.155Z" fill="#DCE0ED"/>
<path opacity="0.1" d="M14.2836 21.1552C14.3703 22.1464 15.086 22.0035 15.086 22.0035L15.2193 21.994C15.3665 21.7749 15.4446 21.5178 15.4436 21.255C15.4604 20.9534 15.366 20.6559 15.1776 20.4177C14.681 20.5095 14.2451 20.7149 14.2836 21.1552Z" fill="black"/>
<path opacity="0.8" d="M32.6902 11.4374C32.6594 13.0428 33.6115 14.3625 34.8167 14.3849C36.0219 14.4074 37.0239 13.1241 37.0546 11.5186C37.0854 9.9132 36.1333 8.59354 34.9281 8.57109C33.7229 8.54864 32.7209 9.83192 32.6902 11.4374ZM33.5137 11.6437C33.536 10.4791 34.2986 9.54894 35.2171 9.56604C36.1356 9.58315 36.8621 10.5411 36.8398 11.7056C36.8175 12.8702 36.0548 13.8003 35.1363 13.7832C34.2178 13.7661 33.4914 12.8082 33.5137 11.6437V11.6437Z" fill="#636780"/>
<path opacity="0.8" d="M34.7497 12.3698L33.71 13.34L33.3574 12.4481L34.852 11.6252L34.7497 12.3698Z" fill="#636780"/>
<path opacity="0.8" d="M33.4328 2.55127L32.5421 2.64142L32.2051 3.02154L32.6625 5.24879L33.656 8.84192L34.3059 11.3082L34.7676 12.807L35.0422 14.7844L35.3286 16.1456L36.248 17.0872L38.1959 14.9048L38.5225 14.1713L39.3012 12.6758L37.3815 11.7464L35.2609 11.522L34.3097 8.97741L33.5536 6.03577L33.4328 2.55127Z" fill="#6C63FF"/>
<path opacity="0.8" d="M51.2069 13.4574L52.1843 23.0937L37.5717 22.2138L39.3515 17.5248L42.2019 15.7723L35.7588 15.7566L35.7741 13.1179L38.3893 12.6111L43.6416 12.2923L47.587 12.1921L51.3298 13.4772" fill="#65617D"/>
<path opacity="0.1" d="M51.2069 13.4574L52.1843 23.0937L37.5717 22.2138L39.3515 17.5248L42.2019 15.7723L35.7588 15.7566L35.7741 13.1179L38.3893 12.6111L43.6416 12.2923L47.587 12.1921L51.3298 13.4772" fill="black"/>
<path opacity="0.8" d="M31.0439 22.6675C30.9982 25.0566 31.7614 27.2466 33.9996 27.05C36.8179 27.043 37.0752 25.1698 37.121 22.7806C37.1667 20.3915 35.8404 18.5881 34.1622 18.5568C32.4841 18.5256 31.0897 20.2783 31.0439 22.6675Z" fill="#636780"/>
<path opacity="0.1" d="M31.0263 22.671C31.0618 20.8212 31.9057 19.3533 33.0637 18.7991C34.5313 19.1027 35.6317 20.7946 35.59 22.9743C35.5525 24.9323 35.3725 26.5434 33.7578 27.0652C31.6928 27.0999 30.9821 24.9785 31.0263 22.671Z" fill="black"/>
<path opacity="0.8" d="M28.2456 18.8639L29.086 19.8502L27.5448 19.5596L26.409 18.4907L25.4172 16.4384L23.9814 15.5334L20.4112 15.9446L17.1132 16.0064L15.917 14.9181L17.2777 14.7614L18.6527 14.7562L22.106 14.7435L26.2157 14.7122L27.0167 16.9459L27.6279 18.4826L28.2456 18.8639Z" fill="#6C63FF"/>
<path opacity="0.8" d="M16.3506 22.6C16.4188 22.7054 18.7177 23.0956 18.7177 23.0956L25.066 24.3597L36.0096 24.7197L37.3147 23.6675L37.9872 23.7982L38.0146 23.8034L46.9965 25.5494L47.1437 25.5313L49.6068 25.2318L62.4717 23.6673L62.3632 21.8278L62.299 20.7422L62.1663 18.4882L62.0541 17.8955L60.9136 17.7712L60.3807 17.7128L52.0678 16.8043L50.981 16.6857L50.3718 16.6191L44.4386 15.7102L35.7588 15.7568L35.7739 13.1181L32.5416 2.64136C31.7828 2.74857 31.7905 3.25236 31.7905 3.25236L34.5239 13.112L34.444 19.1349C28.3567 19.6267 28.1858 18.3178 27.216 18.7399L26.1246 15.0566L15.9167 14.9185C15.5025 15.3968 16.3506 22.6 16.3506 22.6Z" fill="#65617D"/>
<path opacity="0.8" d="M41.7802 17.6047L38.4107 24.3996L37.3128 24.7261L37.0703 23.6107L38.3574 19.8326L39.6491 17.6518L41.7802 17.6047Z" fill="#65617D"/>
<path opacity="0.15" d="M41.7802 17.6047L38.4107 24.3996L37.3128 24.7261L37.0703 23.6107L38.3574 19.8326L39.6491 17.6518L41.7802 17.6047Z" fill="black"/>
<path opacity="0.8" d="M49.6065 25.3024C49.6759 21.6794 47.1065 18.6934 43.8677 18.6331C40.6288 18.5728 37.9469 21.4609 37.8776 25.084C37.8082 28.707 40.3776 31.6929 43.6164 31.7533C46.8553 31.8136 49.5371 28.9254 49.6065 25.3024Z" fill="#636780"/>
<path opacity="0.1" d="M41.769 19.0037C44.8339 19.2715 47.2102 22.1672 47.1434 25.6532C47.0896 28.4631 45.4642 30.8306 43.2264 31.7237C40.1615 31.4559 37.7852 28.5602 37.852 25.0742C37.9058 22.2643 39.5312 19.8968 41.769 19.0037Z" fill="black"/>
<path opacity="0.8" d="M59.6816 14.0149L59.9462 15.3698L60.7555 19.5208L64.5818 19.2275C64.5818 19.2275 64.8237 18.5377 64.2305 18.2662C64.2305 18.2662 64.0791 15.9129 63.3874 15.1599C63.3133 15.0742 63.2195 15.0071 63.1138 14.9642L59.6816 14.0149Z" fill="#65617D"/>
<path opacity="0.1" d="M59.9463 15.3698L60.7556 19.5207L64.5818 19.2274C64.5818 19.2274 64.8237 18.5377 64.2305 18.2662C64.2305 18.2662 64.0791 15.9129 63.3874 15.1599L59.9463 15.3698Z" fill="white"/>
<path opacity="0.8" d="M51.0694 14.2189C50.5612 15.025 51.6136 22.5623 51.6136 22.5623L61.023 21.2094L60.8148 14.6259C60.6436 13.442 59.9425 13.2904 59.9425 13.2904C56.6654 11.5799 49.0696 11.0911 49.0696 11.0911C42.131 11.2222 35.7744 13.1179 35.7744 13.1179C43.6813 12.0673 51.0694 14.2189 51.0694 14.2189Z" fill="#65617D"/>
<path opacity="0.1" d="M51.6135 22.5624L61.0229 21.2095L60.8147 14.6261C60.6435 13.4422 59.9424 13.2906 59.9424 13.2906C59.9424 13.2906 53.1088 12.5206 51.0693 14.219C50.5611 15.0252 51.6135 22.5624 51.6135 22.5624Z" fill="black"/>
<path opacity="0.8" d="M52.6135 22.1467L60.4815 20.9895L60.3095 15.3726C60.1668 14.3625 59.5806 14.2334 59.5806 14.2334C59.5806 14.2334 53.867 13.5787 52.1612 15.0284C51.736 15.7164 52.6135 22.1467 52.6135 22.1467Z" fill="#65617D"/>
<path opacity="0.1" d="M54.4202 17.5626C54.4406 16.4987 53.9765 15.6273 53.3836 15.6162C52.7907 15.6052 52.2936 16.4587 52.2732 17.5226C52.2528 18.5865 52.717 19.4579 53.3098 19.469C53.9027 19.48 54.3999 18.6265 54.4202 17.5626Z" fill="black"/>
<path opacity="0.8" d="M54.4212 17.5103C54.4416 16.4464 53.9775 15.575 53.3846 15.564C52.7917 15.5529 52.2946 16.4064 52.2742 17.4704C52.2538 18.5343 52.7179 19.4057 53.3108 19.4167C53.9037 19.4278 54.4008 18.5742 54.4212 17.5103Z" fill="#DCE0ED"/>
<path opacity="0.8" d="M53.235 16.0647C53.235 16.0647 53.6736 16.1423 53.4339 16.7108C53.3071 16.9868 53.213 17.2763 53.1533 17.5736C53.1533 17.5736 52.709 17.791 52.7409 17.0451C52.7728 16.2991 53.235 16.0647 53.235 16.0647Z" fill="#F0F0F4"/>
<path opacity="0.1" d="M60.1198 16.9048C60.1388 15.9107 59.7052 15.0964 59.1512 15.0861C58.5972 15.0757 58.1326 15.8733 58.1136 16.8674C58.0945 17.8616 58.5282 18.6758 59.0822 18.6862C59.6362 18.6965 60.1007 17.8989 60.1198 16.9048Z" fill="black"/>
<path opacity="0.8" d="M60.1208 16.8526C60.1398 15.8584 59.7061 15.0441 59.1521 15.0338C58.5981 15.0235 58.1336 15.8211 58.1146 16.8152C58.0955 17.8093 58.5292 18.6236 59.0832 18.6339C59.6372 18.6442 60.1017 17.8467 60.1208 16.8526Z" fill="#DCE0ED"/>
<path opacity="0.8" d="M59.0045 15.4082C59.0045 15.4082 59.4432 15.4858 59.2034 16.0543C59.0767 16.3303 58.9825 16.6198 58.9228 16.9171C58.9228 16.9171 58.4785 17.1345 58.5104 16.3886C58.5423 15.6426 59.0045 15.4082 59.0045 15.4082Z" fill="#F0F0F4"/>
<path opacity="0.1" d="M54.6101 15.9338C54.6667 16.6468 54.9178 21.929 54.9178 21.929L55.5168 21.8418L55.85 21.7938L56.2938 21.7292L56.3473 21.7213L58.0955 21.4674L57.8585 15.8646C57.8508 15.6847 57.7732 15.5145 57.6418 15.3894C57.5104 15.2643 57.3352 15.1939 57.1525 15.1926C57.1351 15.1928 57.1172 15.193 57.0992 15.1942C56.9786 15.2024 56.8485 15.2125 56.7131 15.2245C56.6559 15.2297 56.5983 15.2349 56.5395 15.2411C56.3718 15.2578 56.1987 15.2785 56.0287 15.3029C55.9418 15.3159 55.8565 15.3294 55.7723 15.344C55.6297 15.3695 55.4918 15.3976 55.3645 15.4302C55.278 15.452 55.1956 15.476 55.1201 15.5022C54.8033 15.6088 54.5952 15.7497 54.6101 15.9338Z" fill="black"/>
<path opacity="0.8" d="M57.1533 15.1926L57.3739 21.4888L57.568 21.4753L57.3498 15.2213C57.286 15.2028 57.2198 15.1931 57.1533 15.1926Z" fill="#65617D"/>
<path opacity="0.8" d="M56.54 15.2412L56.7378 21.5984L57.0372 21.604L56.7136 15.2246C56.6564 15.2298 56.5988 15.235 56.54 15.2412Z" fill="#65617D"/>
<path opacity="0.8" d="M55.7725 15.344L56.1541 21.7266L56.3478 21.7302L56.3475 21.7213L56.0289 15.303C55.942 15.3159 55.8567 15.3295 55.7725 15.344Z" fill="#65617D"/>
<path opacity="0.8" d="M55.1211 15.5022L55.5178 21.8418L55.5186 21.8538L55.8535 21.8251L55.8509 21.7938L55.3654 15.4302C55.2789 15.452 55.1966 15.476 55.1211 15.5022Z" fill="#65617D"/>
<path opacity="0.1" d="M62.1843 20.5369C62.1843 20.5369 62.8941 17.2559 61.4191 17.0592C59.9441 16.8624 55.0802 17.1234 55.1994 18.4798C55.3187 19.8361 55.4377 21.8956 55.4377 21.8956L56.445 21.693C56.445 21.693 55.752 18.5812 56.929 18.4859C58.1059 18.3907 60.9895 18.1189 60.9895 18.1189C60.9895 18.1189 61.7707 18.0032 61.2698 20.7152L62.1843 20.5369Z" fill="black"/>
<path opacity="0.8" d="M62.1793 20.8492C62.1793 20.8492 62.8931 17.3599 61.4181 17.1632C59.9431 16.9664 55.0792 17.2274 55.1984 18.5838C55.3177 19.9401 55.4367 21.9996 55.4367 21.9996L56.444 21.797C56.444 21.797 55.751 18.6852 56.928 18.59C58.1049 18.4947 60.9885 18.2229 60.9885 18.2229C60.9885 18.2229 61.7657 18.3155 61.2649 21.0275L62.1793 20.8492Z" fill="#DCE0ED"/>
<path opacity="0.8" d="M36.0098 24.7196L37.312 24.7261C38.3415 20.6136 39.9571 18.0744 39.9571 18.0744C40.4904 17.8062 46.2618 17.9486 46.2618 17.9486C46.8585 18.0639 46.981 19.9412 46.981 19.9412C46.981 19.9412 46.4621 20.3654 46.9494 20.6526C47.1672 20.7806 47.8911 20.8175 48.7266 20.7909C49.764 20.7571 50.9738 20.6244 51.601 20.4439C52.7343 20.1176 51.8491 19.4589 51.8491 19.4589C51.8491 19.4589 51.6947 19.2477 51.6111 18.1003C51.5514 17.4303 51.3445 16.7811 51.0047 16.1979C50.9577 16.1174 50.9279 16.0736 50.9279 16.0736C50.8697 16.0169 50.8005 15.9724 50.7244 15.9427C49.2442 15.3006 41.9203 15.7496 41.9203 15.7496L39.1941 16.5498C39.1185 16.5781 38.9993 16.7644 38.851 17.0627C37.96 18.8581 36.0098 24.7196 36.0098 24.7196Z" fill="#65617D"/>
<path opacity="0.1" d="M36.0098 24.7196L37.312 24.7261C38.3415 20.6136 39.9571 18.0744 39.9571 18.0744C40.4904 17.8062 46.2618 17.9486 46.2618 17.9486C46.8585 18.0639 46.981 19.9412 46.981 19.9412C46.981 19.9412 46.4621 20.3654 46.9494 20.6526C47.1672 20.7806 47.8911 20.8175 48.7266 20.7909C49.764 20.7571 50.9738 20.6244 51.601 20.4439C52.7343 20.1176 51.8491 19.4589 51.8491 19.4589C51.8491 19.4589 51.6947 19.2477 51.6111 18.1003C51.5514 17.4303 51.3445 16.7811 51.0047 16.1979C50.9577 16.1174 50.9279 16.0736 50.9279 16.0736C50.8697 16.0169 50.8005 15.9724 50.7244 15.9427C49.2442 15.3006 41.9203 15.7496 41.9203 15.7496L39.1941 16.5498C39.1185 16.5781 38.9993 16.7644 38.851 17.0627C37.96 18.8581 36.0098 24.7196 36.0098 24.7196Z" fill="black"/>
<path opacity="0.8" d="M38.8516 17.0627C41.3719 16.1508 48.2567 16.7879 48.2567 16.7879C49.0008 16.184 50.379 16.1691 51.0053 16.1979C50.9583 16.1174 50.9285 16.0736 50.9285 16.0736C50.8703 16.0169 50.8011 15.9724 50.725 15.9427C49.2448 15.3006 41.9209 15.7496 41.9209 15.7496L39.1946 16.5498C39.1191 16.5781 38.9999 16.7644 38.8516 17.0627Z" fill="#65617D"/>
<path opacity="0.8" d="M47.8463 17.0408C47.9944 17.5816 48.6041 19.746 48.6041 19.746C48.6653 20.0918 48.7062 20.4407 48.7267 20.791C49.7641 20.7572 50.974 20.6245 51.6012 20.444C52.7344 20.1178 51.8492 19.4591 51.8492 19.4591C51.8492 19.4591 51.6948 19.2479 51.6112 18.1005C51.5474 17.3815 51.3134 16.6873 50.928 16.0737C50.8698 16.0171 50.8006 15.9726 50.7246 15.9429C49.7419 16.1522 47.7343 16.6314 47.8463 17.0408Z" fill="#65617D"/>
<path opacity="0.1" d="M47.8463 17.0408C47.9944 17.5816 48.6041 19.746 48.6041 19.746C48.6653 20.0918 48.7062 20.4407 48.7267 20.791C49.7641 20.7572 50.974 20.6245 51.6012 20.444C52.7344 20.1178 51.8492 19.4591 51.8492 19.4591C51.8492 19.4591 51.6948 19.2479 51.6112 18.1005C51.5474 17.3815 51.3134 16.6873 50.928 16.0737C50.8698 16.0171 50.8006 15.9726 50.7246 15.9429C49.7419 16.1522 47.7343 16.6314 47.8463 17.0408Z" fill="white"/>
<path opacity="0.8" d="M32.542 2.64113L35.7743 13.1179L49.2523 11.1944L47.4716 4.89834C47.4716 4.89834 47.1954 3.46092 46.4979 3.34376C46.4979 3.34376 35.7234 1.29415 32.542 2.64113ZM34.0421 4.28364C33.6071 2.8693 40.0105 3.57449 40.0105 3.57449C40.8726 3.50878 41.9117 3.58022 42.8776 3.6956C43.2311 3.73812 43.5746 3.78671 43.8963 3.83645C44.614 3.94773 45.2233 4.06637 45.5879 4.14139C45.8199 4.18894 45.953 4.21902 45.953 4.21902C47.2258 4.63335 47.852 9.85328 47.852 9.85328C47.9471 10.4019 47.2894 10.2725 47.2894 10.2725L47.2466 10.2732L46.6469 10.285L44.859 10.321L36.1414 10.4945C35.6276 10.4329 35.5599 9.83267 35.5599 9.83267C35.291 9.39798 34.0421 4.28364 34.0421 4.28364H34.0421Z" fill="#65617D"/>
<path opacity="0.8" d="M47.2466 10.2735L47.2894 10.2727C47.2894 10.2727 47.9471 10.4021 47.852 9.85349C47.852 9.85349 47.2257 4.63356 45.9529 4.21923C45.9529 4.21923 45.8199 4.18915 45.5879 4.1416C46.0359 5.04473 47.4687 8.13543 47.2466 10.2735Z" fill="#65617D"/>
<path opacity="0.1" d="M47.2466 10.2735L47.2894 10.2727C47.2894 10.2727 47.9471 10.4021 47.852 9.85349C47.852 9.85349 47.2257 4.63356 45.9529 4.21923C45.9529 4.21923 45.8199 4.18915 45.5879 4.1416C46.0359 5.04473 47.4687 8.13543 47.2466 10.2735Z" fill="black"/>
<path opacity="0.1" d="M45.8185 23.0925C45.8923 23.2342 46.0055 23.3523 46.1449 23.4329C46.2844 23.5134 46.4442 23.5531 46.6057 23.5472L46.8746 23.5408L49.414 23.4803L50.3292 23.4582L51.1752 23.4047L62.364 21.8277L62.2997 20.7422L61.0133 20.8995L60.4813 20.9646L52.5846 21.9289L51.5454 22.0559L51.0414 22.1174L48.912 22.0626L46.6067 22.003C46.4902 21.9997 46.3741 22.0195 46.2655 22.0612C46.0661 22.1352 45.9032 22.2822 45.8108 22.4715C45.7625 22.5683 45.738 22.675 45.7393 22.7829C45.7406 22.8908 45.7678 22.9969 45.8185 23.0925Z" fill="black"/>
<path opacity="0.8" d="M45.8165 23.1967C45.8903 23.3384 46.0036 23.4565 46.143 23.5371C46.2824 23.6176 46.4422 23.6573 46.6037 23.6514L50.3272 23.5625L51.1733 23.5089L63.105 21.827L64.0429 21.695L64.5539 21.6228C65.561 21.4332 65.2806 20.4384 65.2806 20.4384C65.2191 19.9857 63.5022 19.5371 62.9391 19.5443C62.5603 19.5487 62.4965 20.123 62.4956 20.4995C62.4953 20.6839 62.5096 20.8206 62.5096 20.8206L61.9516 20.8889L51.0395 22.2216L46.6048 22.1072C46.4404 22.1012 46.2778 22.1423 46.1366 22.2254C45.9954 22.3085 45.8815 22.4302 45.8089 22.5757C45.7605 22.6725 45.736 22.7792 45.7374 22.8871C45.7387 22.995 45.7658 23.1011 45.8165 23.1967Z" fill="#DCE0ED"/>
<path opacity="0.1" d="M63.7357 20.1838C63.7357 20.1838 63.2496 20.7477 62.5088 20.8207C62.5088 20.8207 62.8203 20.1841 63.7357 20.1838Z" fill="black"/>
<path opacity="0.1" d="M63.8286 21.8C63.8286 21.8 65.3955 21.7945 65.3795 22.6275C65.3636 23.4606 64.3754 23.581 64.3754 23.581L50.3338 25.9757L46.3552 25.9711C46.3552 25.9711 44.9859 24.8518 46.4383 24.3928L50.4487 24.5716L63.8345 22.4078C63.8345 22.4078 63.4915 21.9327 63.8286 21.8Z" fill="black"/>
<path opacity="0.8" d="M46.3532 26.0752L50.3316 26.08L62.8169 23.9506L63.7304 23.7947L64.3732 23.6853C64.3732 23.6853 65.3615 23.5646 65.3775 22.7316C65.3889 22.1339 64.5846 21.9679 64.1297 21.9219C63.951 21.904 63.8263 21.9043 63.8263 21.9043C63.4895 22.0366 63.8326 22.5117 63.8326 22.5117L63.3452 22.5906L50.4467 24.6759L46.4362 24.497C44.984 24.9559 46.3532 26.0752 46.3532 26.0752Z" fill="#DCE0ED"/>
<path opacity="0.8" d="M62.6628 21.1014L61.8426 20.7215L61.4206 20.6963L61.3887 24.2026L62.6959 23.9665L63.2481 23.6296L63.54 22.1767C63.54 22.1767 63.4461 21.5673 63.3943 21.5143C63.3425 21.4612 62.6628 21.1014 62.6628 21.1014Z" fill="#DCE0ED"/>
<path opacity="0.1" d="M62.6628 21.1014L61.8426 20.7215L61.4206 20.6963L61.3887 24.2026L62.6959 23.9665L63.2481 23.6296L63.54 22.1767C63.54 22.1767 63.4461 21.5673 63.3943 21.5143C63.3425 21.4612 62.6628 21.1014 62.6628 21.1014Z" fill="black"/>
<path opacity="0.1" d="M62.8174 23.9506C62.8072 23.9624 62.8018 23.9685 62.8018 23.9685L63.72 23.8117C63.7238 23.806 63.7276 23.8003 63.7309 23.7947C64.2282 23.0368 64.2813 22.4148 64.1301 21.9219C63.9515 21.904 63.8268 21.9043 63.8268 21.9043C63.49 22.0366 63.8331 22.5117 63.8331 22.5117L63.3457 22.5906C63.3653 23.2775 62.9087 23.8439 62.8174 23.9506Z" fill="black"/>
<path opacity="0.1" d="M61.5254 20.6982C61.679 20.7599 61.8209 20.8235 61.9511 20.8889C62.5376 21.1811 62.8974 21.5034 63.1046 21.827L64.0424 21.695C63.6529 20.8565 62.6919 20.4595 62.6919 20.4595L62.4952 20.4996L61.5254 20.6982Z" fill="black"/>
<path opacity="0.8" d="M62.5864 20.4575C62.5864 20.4575 65.1365 21.5119 63.6137 23.8099L62.6952 23.9665C62.6952 23.9665 64.5471 21.9524 61.4199 20.6962L62.5864 20.4575Z" fill="#DCE0ED"/>
<path opacity="0.8" d="M56.4408 21.4714L55.4912 21.4189L55.5774 25.1879L57.1139 24.9388L57.7709 24.6385L58.0845 23.8978L58.3099 23.1555L57.8126 22.4692L57.2391 22.0765L56.4408 21.4714Z" fill="#DCE0ED"/>
<path opacity="0.1" d="M56.4408 21.4714L55.4912 21.4189L55.5774 25.1879L57.1139 24.9388L57.7709 24.6385L58.0845 23.8978L58.3099 23.1555L57.8126 22.4692L57.2391 22.0765L56.4408 21.4714Z" fill="black"/>
<path opacity="0.8" d="M56.9668 23.4258C56.9749 23.0041 56.7766 22.6584 56.5239 22.6537C56.2712 22.649 56.0598 22.987 56.0517 23.4088C56.0437 23.8305 56.242 24.1762 56.4947 24.1809C56.7474 24.1856 56.9588 23.8475 56.9668 23.4258Z" fill="#DCE0ED"/>
<path opacity="0.8" d="M60.8527 24.5352C60.8846 24.5488 60.9132 24.5688 60.9368 24.5941C60.9603 24.6193 60.9782 24.6491 60.9893 24.6815C61.0004 24.714 61.0045 24.7484 61.0013 24.7825C60.9981 24.8166 60.9877 24.8497 60.9707 24.8796C60.8634 25.069 60.7342 25.3142 60.7446 25.3798C60.7623 25.4908 60.5133 25.395 60.4808 25.3684C60.4483 25.3417 59.9924 25.3593 59.9719 25.0529C59.9693 24.9605 59.9914 24.8691 60.0358 24.7877C60.0802 24.7063 60.1454 24.6377 60.225 24.5889L60.1323 23.9166L60.7602 23.8762L60.7419 24.4879L60.8527 24.5352Z" fill="#636780"/>
<path opacity="0.1" d="M60.8527 24.5352C60.8846 24.5488 60.9132 24.5688 60.9368 24.5941C60.9603 24.6193 60.9782 24.6491 60.9893 24.6815C61.0004 24.714 61.0045 24.7484 61.0013 24.7825C60.9981 24.8166 60.9877 24.8497 60.9707 24.8796C60.8634 25.069 60.7342 25.3142 60.7446 25.3798C60.7623 25.4908 60.5133 25.395 60.4808 25.3684C60.4483 25.3417 59.9924 25.3593 59.9719 25.0529C59.9693 24.9605 59.9914 24.8691 60.0358 24.7877C60.0802 24.7063 60.1454 24.6377 60.225 24.5889L60.1323 23.9166L60.7602 23.8762L60.7419 24.4879L60.8527 24.5352Z" fill="black"/>
<path opacity="0.1" d="M60.6824 24.5193C60.6824 24.5193 60.4575 25.2312 60.5494 25.259C60.6413 25.2867 60.6824 24.5193 60.6824 24.5193Z" fill="black"/>
<path opacity="0.1" d="M60.448 24.3455C60.448 24.3455 60.2231 25.0574 60.315 25.0852C60.4069 25.1129 60.448 24.3455 60.448 24.3455Z" fill="black"/>
<path opacity="0.8" d="M57.959 22.1419L58.2699 24.3008C58.2699 24.3008 58.7066 24.2501 58.9478 24.2035C59.0007 24.1974 59.0522 24.1827 59.1002 24.16C59.1126 24.1483 59.1384 24.1498 59.1726 24.1572L59.1731 24.1572C59.2899 24.1828 59.4971 24.2825 59.5393 24.2026C59.5424 24.1964 59.5465 24.1907 59.5513 24.1856L59.5518 24.1851C59.5938 24.1416 59.6735 24.1754 59.7509 24.1883C59.7923 24.1993 59.8364 24.1943 59.8742 24.1744C59.9399 24.133 60.0701 24.2041 60.1773 24.229C60.2452 24.2449 60.3038 24.2429 60.3319 24.183C60.3427 24.1636 60.3579 24.1469 60.3764 24.1344C60.3949 24.1219 60.4162 24.1139 60.4384 24.111L60.4389 24.111C60.5408 24.0879 60.6825 24.1077 60.7646 24.0921C60.7969 24.0864 60.8193 24.0749 60.8272 24.0531C60.8439 24.0066 60.9351 23.9859 61.0326 23.9695C61.1508 23.9493 61.2778 23.9355 61.2882 23.8883C61.2912 23.8727 61.3029 23.8662 61.3203 23.866C61.3857 23.8768 61.4499 23.8937 61.5121 23.9164L61.5127 23.9164C61.5652 23.9304 61.609 23.9318 61.6224 23.8945C61.6369 23.8536 61.6975 23.8594 61.7664 23.8774C61.8221 23.892 61.8835 23.9145 61.9308 23.9263C61.9733 23.9365 62.0039 23.9386 62.0096 23.9189C62.0283 23.85 62.254 24.0104 62.3094 23.8724C62.3649 23.7344 63.1042 22.8284 62.1942 21.6135C62.1942 21.6135 61.9415 21.626 61.7482 21.6568C61.6839 21.6642 61.6211 21.6803 61.5614 21.7049C61.5603 21.7048 61.5598 21.7054 61.5587 21.7059C61.4479 21.7342 61.3333 21.7451 61.219 21.7381C61.1535 21.7376 61.0886 21.7515 61.0292 21.7788C61.0058 21.7909 60.9869 21.8101 60.9753 21.8335C60.9445 21.8991 60.8766 21.9114 60.8028 21.9058C60.7031 21.8982 60.593 21.8587 60.5519 21.8777C60.5507 21.8783 60.5495 21.8788 60.5482 21.8792C60.4737 21.9091 60.1982 21.8737 60.1503 21.9182C60.1489 21.9194 60.1476 21.9208 60.1465 21.9223C60.1259 21.951 60.0183 21.9183 59.9082 21.9017L59.9077 21.9017C59.8711 21.891 59.8326 21.8881 59.7948 21.8933C59.757 21.8984 59.7208 21.9114 59.6885 21.9314C59.6392 21.9684 59.5774 21.9852 59.5159 21.9782C59.4413 21.9714 59.3661 21.973 59.2919 21.9829C59.2746 21.9872 59.2589 21.9965 59.247 22.0097C59.2011 22.0635 59.0941 22.0542 58.9984 22.0571C58.9494 22.0542 58.9005 22.0654 58.8578 22.0894C58.8425 22.0997 58.8251 22.1065 58.8068 22.1093C58.6647 22.1194 58.522 22.1098 58.3827 22.0805L57.959 22.1419Z" fill="#636780"/>
<path opacity="0.1" d="M61.7666 23.8774C61.8223 23.8919 61.8836 23.9144 61.9309 23.9263C62.6667 22.8462 62.0808 22.0046 61.7484 21.6567C61.6841 21.6641 61.6212 21.6803 61.5615 21.7048C62.2634 22.5351 61.9107 23.5493 61.7666 23.8774Z" fill="black"/>
<path opacity="0.1" d="M61.3205 23.8659C61.3859 23.8768 61.4501 23.8937 61.5123 23.9164L61.5128 23.9164C62.1452 22.861 61.5311 22.0517 61.2192 21.738C61.1536 21.7376 61.0887 21.7515 61.0293 21.7788C61.6999 22.5298 61.4791 23.4444 61.3205 23.8659Z" fill="black"/>
<path opacity="0.1" d="M60.7652 24.0923C60.7976 24.0866 60.82 24.0751 60.8278 24.0534C60.8445 24.0068 60.9357 23.9861 61.0332 23.9697C61.5881 23.0134 61.1224 22.2625 60.8034 21.906C60.7037 21.8984 60.5936 21.8589 60.5526 21.8779C60.5514 21.8785 60.5501 21.879 60.5488 21.8794C61.2899 22.7307 60.9042 23.7834 60.7652 24.0923Z" fill="black"/>
<path opacity="0.1" d="M60.1773 24.2292C60.2452 24.2451 60.3038 24.243 60.3319 24.1832C60.3427 24.1638 60.358 24.1471 60.3765 24.1346C60.3949 24.1221 60.4162 24.1141 60.4384 24.1112L60.4389 24.1112C61.0857 23.0467 60.4628 22.2304 60.1503 21.9183C60.1489 21.9196 60.1476 21.9209 60.1465 21.9224C60.1259 21.9512 60.0183 21.9185 59.9082 21.9019C60.7803 22.8035 60.3006 23.9706 60.1773 24.2292Z" fill="black"/>
<path opacity="0.1" d="M59.5519 24.1852C59.5939 24.1417 59.6736 24.1755 59.751 24.1884C60.4234 23.1321 59.8397 22.314 59.516 21.9783C59.4414 21.9715 59.3662 21.973 59.292 21.983C60.0378 22.8052 59.704 23.8286 59.5519 24.1852Z" fill="black"/>
<path opacity="0.1" d="M58.9487 24.2035C59.0015 24.1974 59.053 24.1827 59.1011 24.16C59.1134 24.1483 59.1393 24.1498 59.1735 24.1572L59.174 24.1572C59.7708 23.1923 59.3238 22.4298 58.9993 22.0571C58.9502 22.0542 58.9014 22.0654 58.8587 22.0894C58.8434 22.0996 58.8259 22.1064 58.8076 22.1093C59.4242 22.9254 59.0878 23.8879 58.9487 24.2035Z" fill="black"/>
<path opacity="0.8" d="M44.726 25.5242C44.7701 23.2239 43.5215 21.3352 41.9373 21.3057C40.353 21.2762 39.033 23.117 38.9889 25.4174C38.9449 27.7177 40.1935 29.6064 41.7777 29.6359C43.362 29.6655 44.682 27.8246 44.726 25.5242Z" fill="#636780"/>
<path opacity="0.1" d="M44.0392 25.5721C44.0749 23.7078 43.1702 22.1792 42.0184 22.1577C40.8667 22.1363 39.9041 23.6301 39.8684 25.4944C39.8327 27.3586 40.7374 28.8873 41.8891 28.9087C43.0409 28.9302 44.0035 27.4363 44.0392 25.5721Z" fill="black"/>
<path opacity="0.8" d="M44.0411 25.4681C44.0768 23.6038 43.1721 22.0752 42.0204 22.0537C40.8686 22.0323 39.906 23.5261 39.8703 25.3904C39.8346 27.2546 40.7393 28.7833 41.8911 28.8047C43.0428 28.8262 44.0054 27.3323 44.0411 25.4681Z" fill="#F0F0F4"/>
<path opacity="0.8" d="M41.8669 23.162C41.8714 22.932 41.7646 22.7434 41.6285 22.7409C41.4925 22.7384 41.3786 22.9228 41.3742 23.1528C41.3698 23.3829 41.4765 23.5714 41.6126 23.5739C41.7487 23.5765 41.8625 23.392 41.8669 23.162Z" fill="#636780"/>
<path opacity="0.8" d="M40.8123 26.788C40.8167 26.5579 40.7099 26.3694 40.5739 26.3669C40.4378 26.3643 40.3239 26.5488 40.3195 26.7788C40.3151 27.0088 40.4218 27.1974 40.5579 27.1999C40.694 27.2024 40.8079 27.018 40.8123 26.788Z" fill="#636780"/>
<path opacity="0.8" d="M43.5027 25.1019C43.5071 24.8719 43.4004 24.6834 43.2643 24.6808C43.1282 24.6783 43.0143 24.8627 43.0099 25.0928C43.0055 25.3228 43.1123 25.5113 43.2483 25.5139C43.3844 25.5164 43.4983 25.332 43.5027 25.1019Z" fill="#636780"/>
<path opacity="0.8" d="M42.7341 27.5182C42.7385 27.2882 42.6318 27.0996 42.4957 27.0971C42.3597 27.0946 42.2458 27.279 42.2414 27.509C42.237 27.7391 42.3437 27.9276 42.4798 27.9301C42.6158 27.9327 42.7297 27.7482 42.7341 27.5182Z" fill="#636780"/>
<path opacity="0.8" d="M21.0103 17.3743C21.0103 17.3743 18.8476 22.7506 18.9467 23.091C18.9467 23.091 18.0656 23.5954 17.8569 23.4613C17.6482 23.3272 17.8789 20.9357 17.8789 20.9357L18.3152 18.8345L18.7879 17.5933L21.0103 17.3743Z" fill="#65617D"/>
<path opacity="0.15" d="M21.0103 17.3743C21.0103 17.3743 18.8476 22.7506 18.9467 23.091C18.9467 23.091 18.0656 23.5954 17.8569 23.4613C17.6482 23.3272 17.8789 20.9357 17.8789 20.9357L18.3152 18.8345L18.7879 17.5933L21.0103 17.3743Z" fill="black"/>
<path opacity="0.8" d="M40.5037 24.5253C40.5081 24.2952 40.4013 24.1067 40.2653 24.1042C40.1292 24.1016 40.0153 24.2861 40.0109 24.5161C40.0065 24.7461 40.1132 24.9347 40.2493 24.9372C40.3854 24.9397 40.4993 24.7553 40.5037 24.5253Z" fill="#636780"/>
<path opacity="0.8" d="M42.297 25.5657C42.3074 25.0194 41.9929 24.5705 41.5944 24.5631C41.1959 24.5556 40.8644 24.9925 40.8539 25.5389C40.8434 26.0852 41.158 26.5341 41.5565 26.5415C41.955 26.5489 42.2865 26.1121 42.297 25.5657Z" fill="#636780"/>
<path opacity="0.8" d="M18.5758 24.5683C18.5157 27.7025 19.517 30.5754 22.4531 30.3175C26.1503 30.3083 26.4878 27.851 26.5479 24.7168C26.6079 21.5826 24.8679 19.2168 22.6665 19.1758C20.4651 19.1348 18.6358 21.4341 18.5758 24.5683Z" fill="#636780"/>
<path opacity="0.1" d="M18.5523 24.5732C18.5988 22.1467 19.7059 20.2209 21.225 19.4939C23.1503 19.8922 24.5939 22.1117 24.5391 24.9712C24.4899 27.5397 24.2538 29.6532 22.1356 30.3377C19.4266 30.3832 18.4944 27.6003 18.5523 24.5732Z" fill="black"/>
<path opacity="0.1" d="M17.0439 23.2118C17.0439 23.2118 17.5634 23.6642 17.8598 23.3573C17.8598 23.3573 18.6802 17.7476 19.5782 17.7383L22.6672 17.7698C22.6672 17.7698 23.0338 17.9328 23.1792 18.6126L25.0691 24.2556L36.0127 24.6157L36.8815 22.9042L27.8266 22.7616L27.8257 22.7575C27.7799 22.5837 26.3693 17.2283 25.3652 16.5466C25.3647 16.5461 25.3641 16.5461 25.3636 16.5455C25.3297 16.5219 25.2925 16.5032 25.2532 16.4898C25.2532 16.4898 21.4878 15.9249 20.2407 16.2402C20.2407 16.2402 18.9417 16.5025 18.6175 16.8871C18.6165 16.888 18.6156 16.8891 18.6148 16.8901C18.5717 16.9331 18.0713 17.468 17.8897 19.0349L17.0439 23.2118Z" fill="black"/>
<path opacity="0.8" d="M17.041 23.3159C17.041 23.3159 17.5605 23.7682 17.8568 23.4613C17.8568 23.4613 18.6773 17.8516 19.5753 17.8423L22.6643 17.8738C22.6643 17.8738 23.0309 18.0369 23.1763 18.7166L25.0662 24.3596L36.0098 24.7197L36.8786 23.0083L27.8237 22.8656L27.8227 22.8615C27.7769 22.6877 26.3664 17.3323 25.3622 16.6506C25.3617 16.6501 25.3612 16.6501 25.3607 16.6495C25.3267 16.6259 25.2896 16.6072 25.2503 16.5938C25.2503 16.5938 21.4849 16.0289 20.2377 16.3442C20.2377 16.3442 18.9388 16.6065 18.6145 16.9911C18.6136 16.992 18.6127 16.9931 18.6118 16.9941C18.5688 17.0371 18.0684 17.572 17.8868 19.1389L17.041 23.3159Z" fill="#65617D"/>
<path opacity="0.1" d="M17.041 23.3159C17.041 23.3159 17.5605 23.7682 17.8568 23.4613C17.8568 23.4613 18.6773 17.8516 19.5753 17.8423L22.6643 17.8738C22.6643 17.8738 23.0309 18.0369 23.1763 18.7166L25.0662 24.3596L36.0098 24.7197L36.8786 23.0083L27.8237 22.8656L27.8227 22.8615C27.7769 22.6877 26.3664 17.3323 25.3622 16.6506C25.3617 16.6501 25.3612 16.6501 25.3607 16.6495C25.3267 16.6259 25.2896 16.6072 25.2503 16.5938C25.2503 16.5938 21.4849 16.0289 20.2377 16.3442C20.2377 16.3442 18.9388 16.6065 18.6145 16.9911C18.6136 16.992 18.6127 16.9931 18.6118 16.9941C18.5688 17.0371 18.0684 17.572 17.8868 19.1389L17.041 23.3159Z" fill="black"/>
<path opacity="0.8" d="M23.8644 17.2973C24.1189 17.7968 26.2724 23.9306 26.2724 23.9306L27.8244 22.8658L27.8235 22.8616C27.7777 22.6878 26.3657 17.3267 25.3614 16.6497C24.6983 16.7488 23.6913 16.9581 23.8644 17.2973Z" fill="#65617D"/>
<path opacity="0.8" d="M26.8738 14.5667L28.0377 18.5987L34.5086 18.537L34.4444 19.1347C34.4444 19.1347 29.3621 19.7692 27.2164 18.7397L26.1251 15.0562L15.917 14.9182L17.8703 14.5032L26.8738 14.5667Z" fill="#65617D"/>
<path opacity="0.1" d="M26.8738 14.5667L28.0377 18.5987L34.5086 18.537L34.4444 19.1347C34.4444 19.1347 29.3621 19.7692 27.2164 18.7397L26.1251 15.0562L15.917 14.9182L17.8703 14.5032L26.8738 14.5667Z" fill="white"/>
<path opacity="0.1" d="M57.0749 21.4487C57.0749 21.4487 60.5089 23.2314 57.9087 24.7975L57.2193 24.9409C57.2193 24.9409 59.7701 23.2002 55.5967 21.4211L57.0749 21.4487Z" fill="black"/>
<path opacity="0.8" d="M56.9695 21.4467C56.9695 21.4467 60.4035 23.2294 57.8032 24.7955L57.1139 24.939C57.1139 24.939 59.6647 23.1983 55.4912 21.4192L56.9695 21.4467Z" fill="#DCE0ED"/>
<path opacity="0.8" d="M22.9496 25.0927C22.984 23.2955 22.1491 21.8226 21.0849 21.8028C20.0206 21.783 19.1299 23.2238 19.0955 25.0209C19.0611 26.818 19.896 28.291 20.9602 28.3108C22.0245 28.3306 22.9151 26.8898 22.9496 25.0927Z" fill="#636780"/>
<path opacity="0.1" d="M22.4862 25.1541C22.5141 23.6977 21.9095 22.5053 21.1357 22.4909C20.362 22.4765 19.7122 23.6455 19.6843 25.1019C19.6564 26.5583 20.261 27.7507 21.0347 27.7651C21.8085 27.7795 22.4583 26.6105 22.4862 25.1541Z" fill="black"/>
<path opacity="0.8" d="M22.4891 25.0501C22.517 23.5937 21.9124 22.4013 21.1387 22.3869C20.3649 22.3725 19.7151 23.5415 19.6872 24.9979C19.6593 26.4543 20.2639 27.6467 21.0377 27.6611C21.8114 27.6755 22.4612 26.5065 22.4891 25.0501Z" fill="#F0F0F4"/>
<path opacity="0.8" d="M21.0326 23.2528C21.036 23.0731 20.9647 22.926 20.8733 22.9243C20.7819 22.9226 20.705 23.0669 20.7015 23.2466C20.6981 23.4263 20.7694 23.5734 20.8608 23.5751C20.9522 23.5768 21.0291 23.4325 21.0326 23.2528Z" fill="#636780"/>
<path opacity="0.8" d="M20.3167 26.0877C20.3202 25.908 20.2489 25.761 20.1575 25.7593C20.0661 25.7576 19.9892 25.9019 19.9857 26.0816C19.9823 26.2613 20.0536 26.4084 20.145 26.4101C20.2364 26.4118 20.3133 26.2675 20.3167 26.0877Z" fill="#636780"/>
<path opacity="0.8" d="M22.1273 24.7652C22.1307 24.5855 22.0594 24.4385 21.968 24.4368C21.8766 24.4351 21.7997 24.5794 21.7963 24.7591C21.7928 24.9388 21.8641 25.0859 21.9555 25.0876C22.047 25.0893 22.1238 24.945 22.1273 24.7652Z" fill="#636780"/>
<path opacity="0.8" d="M21.6058 26.6544C21.6093 26.4747 21.5379 26.3276 21.4465 26.3259C21.3551 26.3242 21.2782 26.4685 21.2748 26.6482C21.2713 26.8279 21.3427 26.975 21.4341 26.9767C21.5255 26.9784 21.6024 26.8341 21.6058 26.6544Z" fill="#636780"/>
<path opacity="0.8" d="M20.1136 24.3207C20.1171 24.1409 20.0458 23.9939 19.9543 23.9922C19.8629 23.9905 19.786 24.1348 19.7826 24.3145C19.7792 24.4942 19.8505 24.6413 19.9419 24.643C20.0333 24.6447 20.1102 24.5004 20.1136 24.3207Z" fill="#636780"/>
<path opacity="0.8" d="M21.3163 25.13C21.3244 24.7032 21.1141 24.3531 20.8463 24.3481C20.5786 24.3432 20.355 24.6851 20.3468 25.1119C20.3387 25.5388 20.549 25.8888 20.8167 25.8938C21.0844 25.8988 21.3081 25.5568 21.3163 25.13Z" fill="#636780"/>
<path opacity="0.1" d="M49.2806 11.104C49.2806 11.104 43.4163 11.2031 35.7744 13.1181L49.2806 11.104Z" fill="black"/>
<path opacity="0.8" d="M21.5138 0.466064C21.5138 0.466064 21.8311 0.522201 21.6577 0.933349C21.566 1.13302 21.4979 1.34242 21.4547 1.55741C21.4547 1.55741 21.1334 1.71467 21.1565 1.17515C21.1795 0.635634 21.5138 0.466064 21.5138 0.466064Z" fill="#DCE0ED"/>
<path opacity="0.8" d="M33.8467 10.3599L34.3138 12.1934L35.9231 10.8028" stroke="black" stroke-miterlimit="10"/>
<path opacity="0.8" d="M36.6271 12.5199L31.8691 11.7146L31.0666 16.3257L35.8245 17.131L36.6271 12.5199Z" fill="white"/>
<path opacity="0.8" d="M33.2483 16.4732L33.3378 15.959C33.0587 15.9109 32.7987 15.787 32.5869 15.6013L32.7702 15.2812C32.9886 15.4641 33.2523 15.5865 33.5344 15.6359C33.901 15.6979 34.1851 15.5311 34.2356 15.2409C34.2843 14.9609 34.1131 14.7537 33.7576 14.5363C33.2665 14.2436 33.0409 13.9643 33.118 13.5213C33.1916 13.0988 33.5225 12.8246 34.0108 12.8286L34.1003 12.3145L34.3615 12.3587L34.2755 12.8525C34.5107 12.8942 34.7311 12.9946 34.9157 13.1443L34.7281 13.4584C34.563 13.3106 34.3575 13.2139 34.1372 13.1802C33.7397 13.113 33.6081 13.3318 33.5726 13.5354C33.5266 13.8001 33.6356 13.9549 34.0529 14.2142C34.5474 14.518 34.8287 14.8382 34.7498 15.2913C34.6798 15.6935 34.3303 16.0222 33.7835 16.0187L33.6914 16.5482L33.2483 16.4732Z" fill="#636780"/>
<path opacity="0.8" d="M33.1672 33.1828C33.2083 33.1814 33.2474 33.1642 33.276 33.135C33.3046 33.1058 33.3206 33.0667 33.3206 33.0261C33.3206 32.9854 33.3046 32.9464 33.276 32.9171C33.2474 32.8879 33.2083 32.8708 33.1672 32.8694C33.126 32.8708 33.0869 32.8879 33.0583 32.9171C33.0297 32.9464 33.0137 32.9854 33.0137 33.0261C33.0137 33.0667 33.0297 33.1058 33.0583 33.135C33.0869 33.1642 33.126 33.1814 33.1672 33.1828Z" fill="#65617D"/>
</g>
<path opacity="0.1" d="M70.324 47.5065C71.4166 47.5065 72.3023 47.3589 72.3023 47.1767C72.3023 46.9946 71.4166 46.8469 70.324 46.8469C69.2314 46.8469 68.3457 46.9946 68.3457 47.1767C68.3457 47.3589 69.2314 47.5065 70.324 47.5065Z" fill="#6C63FF"/>
<path d="M68.9951 45.644C68.9951 45.644 70.1236 45.6098 70.4637 45.371C70.8038 45.1321 72.1995 44.847 72.2839 45.23C72.3683 45.613 73.9798 47.1349 72.7057 47.145C71.4317 47.1552 69.7455 46.9493 69.406 46.7454C69.0666 46.5415 68.9951 45.644 68.9951 45.644Z" fill="#A8A8A8"/>
<path opacity="0.2" d="M72.7285 47.0117C71.4544 47.0219 69.7682 46.816 69.4288 46.6121C69.1703 46.4568 69.0673 45.8996 69.0328 45.6426C69.0089 45.6436 68.9951 45.644 68.9951 45.644C68.9951 45.644 69.0666 46.5415 69.406 46.7455C69.7455 46.9494 71.4317 47.1552 72.7057 47.1451C73.0735 47.1421 73.2005 47.0131 73.1935 46.822C73.1425 46.9375 73.0022 47.0096 72.7285 47.0117Z" fill="black"/>
<path opacity="0.1" d="M81.7987 43.5874C82.6394 43.5874 83.321 43.4737 83.321 43.3336C83.321 43.1934 82.6394 43.0798 81.7987 43.0798C80.9579 43.0798 80.2764 43.1934 80.2764 43.3336C80.2764 43.4737 80.9579 43.5874 81.7987 43.5874Z" fill="#6C63FF"/>
<path d="M80.7764 42.1544C80.7764 42.1544 81.6447 42.128 81.9064 41.9442C82.1681 41.7604 83.2422 41.541 83.3071 41.8357C83.372 42.1305 84.6121 43.3016 83.6317 43.3094C82.6513 43.3172 81.3538 43.1588 81.0926 43.0019C80.8314 42.845 80.7764 42.1544 80.7764 42.1544Z" fill="#A8A8A8"/>
<path opacity="0.2" d="M83.6492 43.2069C82.6688 43.2147 81.3713 43.0563 81.1101 42.8994C80.9111 42.7799 80.8319 42.3511 80.8054 42.1533C80.787 42.1541 80.7764 42.1544 80.7764 42.1544C80.7764 42.1544 80.8314 42.8451 81.0926 43.002C81.3538 43.1589 82.6513 43.3173 83.6317 43.3095C83.9147 43.3072 84.0124 43.2079 84.0071 43.0609C83.9678 43.1497 83.8598 43.2052 83.6492 43.2069Z" fill="black"/>
<path opacity="0.1" d="M74.892 59.9837C76.8991 59.9837 78.5262 59.7124 78.5262 59.3778C78.5262 59.0432 76.8991 58.772 74.892 58.772C72.8849 58.772 71.2578 59.0432 71.2578 59.3778C71.2578 59.7124 72.8849 59.9837 74.892 59.9837Z" fill="#6C63FF"/>
<path d="M72.4512 56.5624C72.4512 56.5624 74.5242 56.4994 75.1489 56.0607C75.7737 55.622 78.3378 55.0982 78.4928 55.8018C78.6477 56.5054 81.6081 59.3012 79.2677 59.3198C76.9273 59.3384 73.8296 58.9603 73.206 58.5857C72.5825 58.2112 72.4512 56.5624 72.4512 56.5624Z" fill="#A8A8A8"/>
<path opacity="0.2" d="M79.3095 59.0749C76.969 59.0935 73.8713 58.7154 73.2478 58.3408C72.7729 58.0556 72.5837 57.032 72.5204 56.5598C72.4765 56.5617 72.4512 56.5625 72.4512 56.5625C72.4512 56.5625 72.5825 58.2112 73.206 58.5858C73.8296 58.9603 76.9273 59.3385 79.2677 59.3198C79.9433 59.3145 80.1767 59.0774 80.1638 58.7264C80.07 58.9385 79.8123 59.0709 79.3095 59.0749Z" fill="black"/>
<path d="M113.264 38.0511C113.264 40.4566 112.322 42.7692 110.635 44.5063C108.948 46.2434 106.645 47.2708 104.208 47.3741C101.771 47.4774 99.3879 46.6486 97.5556 45.0607C95.7234 43.4729 94.5837 41.2485 94.3744 38.8519C94.3607 38.7004 94.3503 38.5488 94.3458 38.395V38.3871C94.3412 38.2751 94.3389 38.1631 94.3389 38.0511C94.3397 35.5768 95.337 33.204 97.1115 31.4547C98.886 29.7054 101.292 28.7227 103.801 28.7227C106.311 28.7227 108.717 29.7054 110.491 31.4547C112.266 33.204 113.263 35.5768 113.264 38.0511Z" fill="#65617D"/>
<path opacity="0.2" d="M113.264 38.0511C113.264 40.4566 112.322 42.7692 110.635 44.5063C108.948 46.2434 106.645 47.2708 104.208 47.3741C101.771 47.4774 99.3879 46.6486 97.5556 45.0607C95.7234 43.4729 94.5837 41.2485 94.3744 38.8519C94.3607 38.7004 94.3503 38.5488 94.3458 38.395V38.3871C94.3412 38.2751 94.3389 38.1631 94.3389 38.0511C94.3397 35.5768 95.337 33.204 97.1115 31.4547C98.886 29.7054 101.292 28.7227 103.801 28.7227C106.311 28.7227 108.717 29.7054 110.491 31.4547C112.266 33.204 113.263 35.5768 113.264 38.0511Z" fill="black"/>
<path d="M103.801 43.1411C106.652 43.1411 108.963 40.8622 108.963 38.0511C108.963 35.24 106.652 32.9612 103.801 32.9612C100.951 32.9612 98.6396 35.24 98.6396 38.0511C98.6396 40.8622 100.951 43.1411 103.801 43.1411Z" fill="#DCE0ED"/>
<path d="M103.801 41.1053C105.511 41.1053 106.898 39.738 106.898 38.0513C106.898 36.3646 105.511 34.9973 103.801 34.9973C102.091 34.9973 100.704 36.3646 100.704 38.0513C100.704 39.738 102.091 41.1053 103.801 41.1053Z" fill="#65617D"/>
<path d="M62.7475 38.0511C62.7476 40.4566 61.8057 42.7692 60.1183 44.5063C58.431 46.2434 56.1286 47.2708 53.6916 47.3741C51.2546 47.4774 48.8713 46.6487 47.039 45.0608C45.2068 43.4729 44.0671 41.2485 43.8578 38.8519C43.8441 38.7004 43.8337 38.5488 43.8292 38.395V38.3871C43.8246 38.2751 43.8223 38.1631 43.8223 38.0511C43.8231 35.5768 44.8204 33.2041 46.5949 31.4547C48.3694 29.7054 50.7758 28.7227 53.2849 28.7227C55.794 28.7227 58.2003 29.7054 59.9748 31.4547C61.7493 33.2041 62.7466 35.5768 62.7475 38.0511Z" fill="#65617D"/>
<path opacity="0.2" d="M62.7475 38.0511C62.7476 40.4566 61.8057 42.7692 60.1183 44.5063C58.431 46.2434 56.1286 47.2708 53.6916 47.3741C51.2546 47.4774 48.8713 46.6487 47.039 45.0608C45.2068 43.4729 44.0671 41.2485 43.8578 38.8519C43.8441 38.7004 43.8337 38.5488 43.8292 38.395V38.3871C43.8246 38.2751 43.8223 38.1631 43.8223 38.0511C43.8231 35.5768 44.8204 33.2041 46.5949 31.4547C48.3694 29.7054 50.7758 28.7227 53.2849 28.7227C55.794 28.7227 58.2003 29.7054 59.9748 31.4547C61.7493 33.2041 62.7466 35.5768 62.7475 38.0511Z" fill="black"/>
<path d="M53.2845 43.1411C56.1351 43.1411 58.4459 40.8622 58.4459 38.0511C58.4459 35.24 56.1351 32.9612 53.2845 32.9612C50.4339 32.9612 48.123 35.24 48.123 38.0511C48.123 40.8622 50.4339 43.1411 53.2845 43.1411Z" fill="#DCE0ED"/>
<path d="M53.2844 41.1053C54.9947 41.1053 56.3812 39.738 56.3812 38.0513C56.3812 36.3646 54.9947 34.9973 53.2844 34.9973C51.574 34.9973 50.1875 36.3646 50.1875 38.0513C50.1875 39.738 51.574 41.1053 53.2844 41.1053Z" fill="#65617D"/>
<path d="M116.216 36.3026L113.058 36.1673L110.176 30.8877L100.017 30.0755L95.0755 36.438L95.35 38.1978L94.6637 39.8223L62.4044 40.0931V39.2808H62.1298L61.8553 38.0625H64.3262L62.5417 36.1673L56.2271 30.8877C56.2271 30.8877 45.3825 31.1585 45.2452 30.8877C45.1079 30.617 45.8629 27.8418 45.8629 27.8418L50.5302 26.4881L66.454 25.2698C69.9544 19.7872 73.1117 17.2151 73.1117 17.2151H114.019L115.941 26.9619V26.9849L116.216 36.3026Z" fill="#444053"/>
<path d="M93.4275 36.9796C93.4275 36.9796 97.5457 29.3987 100.703 29.3987H108.39C108.39 29.3987 110.312 29.3987 111.136 30.8878L114.293 36.9795H111.822C111.822 36.9795 109.763 31.2939 107.429 31.1585C105.096 31.0232 101.115 31.1585 101.115 31.1585C101.115 31.1585 99.7421 31.1585 98.9185 32.783C98.0948 34.4075 95.3101 37.946 95.3101 37.946C95.3101 37.946 92.3293 38.8748 93.4275 36.9796Z" fill="#33323D"/>
<path d="M118.001 35.7612H112.837L112.784 39.8223L118.001 38.604V35.7612Z" fill="#33323D"/>
<path d="M43.3232 33.3244C43.3232 33.3244 43.5978 31.2938 45.5196 30.4815L58.1488 29.8047C58.1488 29.8047 60.2079 29.9401 61.3061 32.5121L64.8752 37.7917V38.6039H60.8943C60.8943 38.6039 58.9724 31.4292 53.4815 31.6999H46.8924C46.8924 31.6999 45.3823 31.6999 44.8333 34.1366L43.3232 33.3244Z" fill="#33323D"/>
<path d="M72.9736 18.0274H115.117C115.117 17.6325 114.958 17.2537 114.674 16.9745C114.391 16.6952 114.007 16.5383 113.607 16.5383H74.4836C74.2854 16.5383 74.089 16.5768 73.9058 16.6517C73.7226 16.7265 73.5561 16.8362 73.4159 16.9745C73.2757 17.1127 73.1645 17.2769 73.0886 17.4576C73.0127 17.6382 72.9736 17.8319 72.9736 18.0274Z" fill="#33323D"/>
<path opacity="0.3" d="M82.005 26.0145H70.3431C70.2118 26.0145 70.0825 25.9821 69.967 25.9203C69.8516 25.8585 69.7536 25.7693 69.682 25.6606C69.6104 25.552 69.5675 25.4275 69.5571 25.2983C69.5468 25.1692 69.5693 25.0395 69.6226 24.9212L71.468 20.8266C71.7527 20.1949 72.2171 19.6582 72.8048 19.2815C73.3926 18.9048 74.0786 18.7043 74.7796 18.7043H81.865C81.9953 18.7043 82.1244 18.7297 82.2448 18.7788C82.3651 18.828 82.4745 18.9001 82.5667 18.9909C82.6588 19.0818 82.7319 19.1897 82.7818 19.3084C82.8316 19.4271 82.8573 19.5544 82.8573 19.6829V25.174C82.8573 25.2844 82.8353 25.3937 82.7924 25.4956C82.7496 25.5976 82.6868 25.6903 82.6077 25.7683C82.5285 25.8463 82.4346 25.9083 82.3312 25.9505C82.2278 25.9927 82.1169 26.0145 82.005 26.0145Z" fill="#6C63FF"/>
<path opacity="0.3" d="M96.6849 18.7043H86.4647C86.1406 18.7043 85.8779 18.9634 85.8779 19.283V25.4358C85.8779 25.7554 86.1406 26.0145 86.4647 26.0145H96.6849C97.0089 26.0145 97.2716 25.7554 97.2716 25.4358V19.283C97.2716 18.9634 97.0089 18.7043 96.6849 18.7043Z" fill="#6C63FF"/>
<path d="M115.941 26.9618V26.9849L98.2327 27.2326L97.7715 17.2151H114.019L115.941 26.9618Z" fill="#33323D"/>
<path opacity="0.3" d="M112.197 18.7043H100.33C100.006 18.7043 99.7432 18.9634 99.7432 19.283V25.4358C99.7432 25.7554 100.006 26.0145 100.33 26.0145H112.197C112.521 26.0145 112.784 25.7554 112.784 25.4358V19.283C112.784 18.9634 112.521 18.7043 112.197 18.7043Z" fill="#6C63FF"/>
<path d="M83.4954 28.5864H79.4755C79.3725 28.5864 79.2891 28.6687 79.2891 28.7703V29.2148C79.2891 29.3164 79.3725 29.3987 79.4755 29.3987H83.4954C83.5984 29.3987 83.6818 29.3164 83.6818 29.2148V28.7703C83.6818 28.6687 83.5984 28.5864 83.4954 28.5864Z" fill="#33323D"/>
<path d="M96.1243 28.5864H92.1044C92.0014 28.5864 91.918 28.6687 91.918 28.7703V29.2148C91.918 29.3164 92.0014 29.3987 92.1044 29.3987H96.1243C96.2273 29.3987 96.3107 29.3164 96.3107 29.2148V28.7703C96.3107 28.6687 96.2273 28.5864 96.1243 28.5864Z" fill="#33323D"/>
<path d="M105.897 17.8958H100.813V22.8223H105.897V17.8958Z" fill="white"/>
<path d="M103.105 22.5919V22.0426C102.806 22.0416 102.514 21.9588 102.261 21.8032L102.393 21.4388C102.653 21.5903 102.949 21.671 103.25 21.6727C103.642 21.6727 103.907 21.4497 103.907 21.1396C103.907 20.8405 103.692 20.6555 103.283 20.4923C102.721 20.2748 102.436 20.0246 102.436 19.5513C102.436 19.0999 102.73 18.7572 103.238 18.6756V18.1262H103.517V18.6538C103.768 18.6558 104.015 18.7213 104.234 18.8442L104.096 19.2032C103.898 19.0788 103.667 19.0145 103.432 19.0183C103.008 19.0183 102.911 19.2685 102.911 19.486C102.911 19.7689 103.052 19.9103 103.532 20.1062C104.1 20.3346 104.45 20.6174 104.45 21.1016C104.45 21.5312 104.146 21.9338 103.578 22.0262V22.5919L103.105 22.5919Z" fill="#636780"/>
<path d="M44.9035 48.5754C44.9036 50.0228 44.3369 51.4144 43.3215 52.4597C42.3062 53.505 40.9208 54.1232 39.4543 54.1854C37.9879 54.2476 36.5538 53.7489 35.4512 52.7934C34.3487 51.8379 33.6629 50.4994 33.537 49.0573C33.5287 48.9661 33.5225 48.8748 33.5198 48.7823V48.7775C33.517 48.7101 33.5156 48.6428 33.5156 48.5754C33.5176 47.0874 34.1183 45.6611 35.186 44.6096C36.2536 43.5581 37.7007 42.9675 39.2096 42.9675C40.7184 42.9675 42.1656 43.5581 43.2332 44.6096C44.3008 45.6611 44.9016 47.0874 44.9035 48.5754Z" fill="#65617D"/>
<path d="M39.2093 51.6383C40.9246 51.6383 42.3151 50.267 42.3151 48.5755C42.3151 46.884 40.9246 45.5127 39.2093 45.5127C37.494 45.5127 36.1035 46.884 36.1035 48.5755C36.1035 50.267 37.494 51.6383 39.2093 51.6383Z" fill="#DCE0ED"/>
<path d="M39.2092 50.4132C40.2384 50.4132 41.0727 49.5904 41.0727 48.5755C41.0727 47.5605 40.2384 46.7378 39.2092 46.7378C38.18 46.7378 37.3457 47.5605 37.3457 48.5755C37.3457 49.5904 38.18 50.4132 39.2092 50.4132Z" fill="#65617D"/>
<path d="M24.256 37.9122L10.5449 38.1844V36.1882C10.6678 34.5839 12.3359 34.021 13.8585 33.8448C15.0456 33.7119 16.2474 33.8008 17.4012 34.1068C20.3103 34.8664 22.1655 35.0134 23.0765 35.0277C23.2769 35.0307 23.4701 35.1018 23.6235 35.2291C23.7769 35.3563 23.8811 35.5318 23.9185 35.726C23.962 35.954 24.0048 36.2024 24.0448 36.4475C24.0752 36.6394 24.1042 36.8286 24.1304 37.0049C24.2056 37.5161 24.256 37.9122 24.256 37.9122Z" fill="#65617D"/>
<path d="M35.1947 48.9382H6.71175C6.49183 48.9405 6.27611 48.8789 6.09142 48.7611C5.90673 48.6434 5.76123 48.4747 5.67303 48.276C5.45838 47.7703 5.75861 47.4477 6.07886 47.2585C6.73422 46.8754 7.23102 46.276 7.4813 45.5664C7.78498 44.685 8.08175 43.2972 8.19839 41.1342C8.31848 38.897 9.1398 37.791 10.0274 37.2554H10.0281C11.1744 36.5639 12.4313 36.8232 12.4313 36.8232L23.98 36.9144C24.1856 37.0063 24.3757 37.1287 24.5439 37.2772C25.5729 38.2219 24.0725 39.4551 24.0725 39.4551C20.8514 42.8126 23.2898 46.2157 23.2898 46.2157H29.1991C30.3032 46.2214 31.3829 45.8954 32.2946 45.2813C33.0931 44.7374 33.4023 44.2106 33.5217 43.8921C33.6128 43.6484 33.7053 43.4055 33.8157 43.17C35.3659 39.8547 33.4962 34.4614 32.6894 32.4448C32.4892 31.9431 32.3546 31.6505 32.3546 31.6505L34.2078 31.5123L35.3797 31.4245L35.3914 31.4238C37.9741 35.8165 38.9341 40.3304 39.2571 43.675C39.2875 43.9901 39.3123 44.2957 39.3323 44.5891C39.3691 45.1469 39.2893 45.7063 39.0979 46.2326C38.9066 46.7588 38.6077 47.2407 38.2198 47.6484C37.832 48.0561 37.3633 48.381 36.843 48.6028C36.3226 48.8247 35.7616 48.9388 35.1947 48.9382Z" fill="#6C63FF"/>
<path opacity="0.1" d="M24.1304 37.0047H10.5449V36.4473H24.0448C24.0752 36.6392 24.1042 36.8284 24.1304 37.0047Z" fill="black"/>
<path opacity="0.1" d="M24.5442 37.277H10.1374C10.0999 37.2772 10.0628 37.2698 10.0283 37.2552C11.1747 36.5637 12.4315 36.823 12.4315 36.823L23.9803 36.9142C24.1858 37.0062 24.376 37.1285 24.5442 37.277Z" fill="black"/>
<path d="M24.6645 36.5837H5.09694C4.94093 36.5837 4.81445 36.7085 4.81445 36.8623C4.81445 37.0162 4.94093 37.1409 5.09694 37.1409H24.6645C24.8205 37.1409 24.947 37.0162 24.947 36.8623C24.947 36.7085 24.8205 36.5837 24.6645 36.5837Z" fill="#DCE0ED"/>
<path opacity="0.1" d="M39.2573 43.675C38.601 44.3788 38.1179 44.6558 38.1406 43.9132C38.2097 41.6672 34.208 31.5123 34.208 31.5123L35.3917 31.4238C37.9743 35.8165 38.9343 40.3304 39.2573 43.675Z" fill="black"/>
<path opacity="0.1" d="M44.8688 47.9601C44.189 48.1207 43.3484 48.284 42.3117 48.4338C41.9266 48.4896 41.5134 48.5431 41.0722 48.5944C40.0141 48.7183 38.7904 48.8265 37.3769 48.9095C36.9766 48.9333 36.5609 48.9549 36.1298 48.9742C35.3223 49.0103 34.4579 49.0379 33.5368 49.0572L33.5195 48.7822V48.7775C34.8067 48.265 36.8317 46.8976 37.1582 43.3359C37.9716 43.0268 38.8462 42.9059 39.7145 42.9826C40.5828 43.0593 41.4217 43.3314 42.1666 43.7781C42.9114 44.2248 43.5424 44.8341 44.0109 45.5592C44.4794 46.2842 44.7729 47.1056 44.8688 47.9601Z" fill="black"/>
<path d="M32.4463 48.9383C32.4463 48.9383 38.9823 48.2401 36.7323 38.4182C36.7323 38.4182 39.962 41.3376 41.9708 42.9604C43.9795 44.5833 47.5599 46.8203 47.5599 46.8203C47.5599 46.8203 45.4217 48.7909 32.4463 48.9383Z" fill="#6C63FF"/>
<path opacity="0.1" d="M32.4463 48.9383C32.4463 48.9383 38.9823 48.2401 36.7323 38.4182C36.7323 38.4182 39.962 41.3376 41.9708 42.9604C43.9795 44.5833 47.5599 46.8203 47.5599 46.8203C47.5599 46.8203 45.4217 48.7909 32.4463 48.9383Z" fill="white"/>
<path d="M14.985 54.1904C18.1297 54.1904 20.679 51.6765 20.679 48.5753C20.679 45.4742 18.1297 42.9602 14.985 42.9602C11.8403 42.9602 9.29102 45.4742 9.29102 48.5753C9.29102 51.6765 11.8403 54.1904 14.985 54.1904Z" fill="#65617D"/>
<path d="M14.9847 51.6383C16.7 51.6383 18.0905 50.267 18.0905 48.5755C18.0905 46.884 16.7 45.5127 14.9847 45.5127C13.2694 45.5127 11.8789 46.884 11.8789 48.5755C11.8789 50.267 13.2694 51.6383 14.9847 51.6383Z" fill="#DCE0ED"/>
<path d="M14.9846 50.4132C16.0137 50.4132 16.848 49.5904 16.848 48.5755C16.848 47.5605 16.0137 46.7378 14.9846 46.7378C13.9554 46.7378 13.1211 47.5605 13.1211 48.5755C13.1211 49.5904 13.9554 50.4132 14.9846 50.4132Z" fill="#65617D"/>
<path opacity="0.1" d="M21.3696 46.8891C21.3696 43.2629 18.4495 40.3232 14.8474 40.3232C11.2453 40.3232 8.3252 43.2629 8.3252 46.8891C8.3252 47.0421 8.33083 47.1937 8.34106 47.3441H21.3537C21.3639 47.1937 21.3696 47.0421 21.3696 46.8891Z" fill="black"/>
<path d="M21.1277 46.776C21.1277 43.2841 18.3157 40.4534 14.847 40.4534C11.3783 40.4534 8.56641 43.2841 8.56641 46.776C8.56641 46.9233 8.57183 47.0694 8.58168 47.2142H21.1124C21.1222 47.0694 21.1277 46.9233 21.1277 46.776Z" fill="#6C63FF"/>
<path opacity="0.1" d="M21.1277 46.7759C21.1277 46.8773 21.1249 46.9781 21.1201 47.0781C21.118 47.1237 21.1152 47.1686 21.1125 47.2142H8.58159C8.57883 47.1686 8.57607 47.1237 8.574 47.0781C8.56917 46.9781 8.56641 46.8773 8.56641 46.7759C8.56641 43.2843 11.3782 40.4536 14.847 40.4536C18.3159 40.4536 21.1277 43.2843 21.1277 46.7759Z" fill="white"/>
<path opacity="0.1" d="M21.1203 47.0779C21.1182 47.1235 21.1154 47.1684 21.1127 47.214H8.58181C8.57906 47.1684 8.57629 47.1235 8.57422 47.0779H21.1203Z" fill="black"/>
<path opacity="0.1" d="M38.1347 37.7423C38.5506 37.5569 38.5038 36.569 38.0301 35.536C37.5563 34.5029 36.8351 33.8158 36.4192 34.0013C36.0032 34.1868 36.05 35.1746 36.5238 36.2077C36.9975 37.2407 37.7187 37.9278 38.1347 37.7423Z" fill="black"/>
<path d="M38.204 37.6745C38.6199 37.489 38.5731 36.5011 38.0994 35.4681C37.6257 34.435 36.9044 33.7479 36.4885 33.9334C36.0725 34.1189 36.1194 35.1067 36.5931 36.1398C37.0668 37.1729 37.788 37.86 38.204 37.6745Z" fill="#DCE0ED"/>
<path opacity="0.1" d="M35.3795 31.4246V32.4911H33.2745C33.0785 32.4913 32.8827 32.4758 32.6892 32.4448C32.4891 31.9432 32.3545 31.6505 32.3545 31.6505L34.2076 31.5124L35.3795 31.4246Z" fill="black"/>
<path d="M35.3801 32.3547H33.2751C31.4264 32.3547 29.9277 30.9907 29.9277 29.3081V29.0254C29.9277 27.3428 31.4264 25.9788 33.2751 25.9788L35.3801 26.1672V32.3547Z" fill="#6C63FF"/>
<path d="M31.9117 27.7824C31.9117 27.7824 33.1713 28.446 32.4466 29.5691C32.4466 29.5691 31.558 31.0069 30.1604 30.8707L29.6514 27.7824C29.6514 27.7824 31.325 27.6293 31.9117 27.7824Z" fill="#6C63FF"/>
<path opacity="0.1" d="M31.4282 27.7223C31.6282 27.73 31.8238 27.7818 32.0008 27.8739C32.1778 27.966 32.3316 28.096 32.4509 28.2545C32.6752 28.5607 32.8089 29.0074 32.4466 29.5689C32.4466 29.5689 31.558 31.0067 30.1604 30.8706L29.6514 27.7823C30.242 27.7289 30.8353 27.7089 31.4282 27.7223Z" fill="black"/>
<path opacity="0.1" d="M35.3105 26.1672C35.5326 26.1672 35.7525 26.2104 35.9576 26.2942C36.1628 26.378 36.3492 26.5008 36.5062 26.6556C36.6632 26.8105 36.7878 26.9943 36.8728 27.1966C36.9577 27.3989 37.0015 27.6158 37.0015 27.8348V30.6872C37.0015 31.1295 36.8233 31.5536 36.5062 31.8663C36.1891 32.1791 35.759 32.3548 35.3105 32.3548V26.1672Z" fill="black"/>
<path d="M35.3799 26.1672C35.8283 26.1672 36.2584 26.3429 36.5756 26.6556C36.8927 26.9684 37.0708 27.3925 37.0708 27.8348V30.6872C37.0708 31.1295 36.8927 31.5536 36.5756 31.8663C36.2584 32.1791 35.8283 32.3548 35.3799 32.3548V26.1672Z" fill="#DCE0ED"/>
<path d="M29.5059 31.0663C30.2783 31.0663 30.9045 30.3151 30.9045 29.3885C30.9045 28.4619 30.2783 27.7107 29.5059 27.7107C28.7336 27.7107 28.1074 28.4619 28.1074 29.3885C28.1074 30.3151 28.7336 31.0663 29.5059 31.0663Z" fill="#6C63FF"/>
<path d="M14.6123 37.1448L15.2234 38.4866L16.2446 37.1448" stroke="black" stroke-miterlimit="10"/>
<path d="M17.6626 38.5427H12.6797V43.3719H17.6626V38.5427Z" fill="white"/>
<path d="M14.9249 43.1461V42.6076C14.6324 42.6066 14.346 42.5254 14.0977 42.373L14.2274 42.0157C14.482 42.1642 14.772 42.2433 15.0677 42.245C15.4516 42.245 15.7111 42.0264 15.7111 41.7224C15.7111 41.4292 15.5003 41.2479 15.1001 41.0879C14.5486 40.8747 14.2697 40.6294 14.2697 40.1655C14.2697 39.723 14.5579 39.3871 15.0553 39.3071V38.7686H15.3288V39.2857C15.5754 39.2877 15.8174 39.3519 16.0317 39.4724L15.8965 39.8243C15.7024 39.7023 15.4762 39.6393 15.2461 39.643C14.8298 39.643 14.7347 39.8882 14.7347 40.1015C14.7347 40.3788 14.873 40.5174 15.3434 40.7094C15.9003 40.9333 16.2432 41.2106 16.2432 41.6851C16.2432 42.1063 15.9458 42.5009 15.3889 42.5915V43.1461L14.9249 43.1461Z" fill="#636780"/>
<path d="M6.14382 25.7771H5.40234V37.0585H6.14382V25.7771Z" fill="#DCE0ED"/>
<path d="M5.40215 25.7771C5.40215 25.7771 2.64811 25.8816 2.11849 26.0905C1.58887 26.2994 0 26.1949 0 26.1949V29.1197C0 29.1197 1.80072 28.7019 2.75404 29.0153C3.70736 29.3287 5.71993 28.5974 5.71993 28.5974L5.40215 25.7771Z" fill="#DCE0ED"/>
</g>
<defs>
<clipPath id="clip0_1134:2634">
<rect width="118" height="62" fill="white"/>
</clipPath>
</defs>
</svg>
