<svg width="350" height="274" viewBox="0 0 440 345" fill="none" xmlns="http://www.w3.org/2000/svg">
<g clip-path="url(#clip0_691_1977)">
<path opacity="0.1" d="M154.345 338.318C196.733 338.318 231.096 331.795 231.096 323.748C231.096 315.701 196.733 309.178 154.345 309.178C111.956 309.178 77.5928 315.701 77.5928 323.748C77.5928 331.795 111.956 338.318 154.345 338.318Z" fill="#2C3BD1"/>
<path opacity="0.1" d="M255.642 48.6546C227.434 47.6763 200.569 38.5483 174.915 28.5643C149.262 18.5802 123.852 7.52176 96.32 2.23275C78.6117 -1.16951 58.3581 -1.6543 44.093 7.84932C30.3596 17.021 25.9227 32.8094 23.5387 47.4711C21.743 58.5033 20.6883 70.1164 25.6046 80.4455C29.0216 87.6169 35.0798 93.644 39.2726 100.514C53.8602 124.413 43.5482 153.885 27.7446 177.22C20.3353 188.165 11.7274 198.621 6.00476 210.26C0.282159 221.899 -2.3634 235.281 2.64442 247.187C7.60431 258.979 19.4287 267.819 32.2381 274.043C58.2535 286.686 88.8976 290.303 118.801 292.355C184.975 296.889 251.497 294.928 317.845 292.958C342.401 292.233 367.061 291.495 391.215 287.691C404.63 285.577 418.477 282.223 428.218 274.126C440.578 263.849 443.642 246.449 435.357 233.565C421.462 211.946 383.056 206.578 373.332 183.383C367.989 170.612 373.476 156.392 381.247 144.551C397.914 119.146 425.847 96.8585 427.316 67.8235C428.327 47.8816 414.899 27.9091 394.135 18.471C372.374 8.57869 342.191 9.82342 326.144 26.1971C309.604 43.0381 280.55 49.5238 255.642 48.6546Z" fill="#2C3BD1"/>
<path d="M233.228 157.989L219.878 148.97L226.612 138.925L191.352 136.108L178.683 145.926L162.822 137.016L149.594 138.611L149.438 135.117C149.274 131.474 148.909 127.844 148.344 124.242C148.4 123.15 148.439 121.896 148.435 120.534C148.435 114.79 147.659 107.178 144.251 102.103L145.035 95.0363L138.672 87.5024C139.694 85.4626 140.859 83.4981 142.159 81.6238C142.377 81.3093 142.595 81.0036 142.83 80.7066C151.089 80.1082 157.605 73.3037 157.605 64.9837C157.605 64.5993 157.605 64.215 157.562 63.835C157.562 63.6822 157.531 63.5249 157.514 63.3721C158.32 63.8088 159.135 64.2456 159.95 64.6823C160.103 64.9007 160.277 65.1191 160.469 65.3767L160.508 65.4248L160.752 65.7261L160.83 65.8179C160.918 65.9227 161.009 66.0231 161.101 66.128L161.162 66.1978C161.393 66.4555 161.637 66.7176 161.898 66.9752C161.929 67.0006 161.959 67.0284 161.985 67.0582L162.312 67.3639L162.404 67.4469C162.683 67.6959 162.979 67.9361 163.275 68.1632L163.371 68.2331L163.746 68.4908L163.868 68.5694C164.012 68.6567 164.16 68.7484 164.304 68.8314L164.356 68.862C164.526 68.9537 164.701 69.0411 164.875 69.124L164.962 69.159C165.11 69.223 165.256 69.2842 165.398 69.3424L165.533 69.3905C165.686 69.4429 165.834 69.4909 165.991 69.5346L166.087 69.5608C166.278 69.6088 166.47 69.6481 166.666 69.6787H166.688C166.873 69.7087 167.059 69.7276 167.246 69.7355H167.372C167.539 69.7442 167.707 69.7442 167.874 69.7355H167.983C168.192 69.7234 168.4 69.6986 168.606 69.6612C169.581 69.5328 170.517 69.1962 171.352 68.6742C171.564 68.5319 171.752 68.3564 171.91 68.1545C172.781 67.0102 171.822 65.7567 171.822 65.7567C171.482 64.9444 169.277 64.3722 169.277 64.3722C169.277 64.3722 162.304 61.4548 162.304 59.1313C162.304 56.8078 160.56 44.7535 142.564 41.9976C142.564 41.9976 130.858 41.3382 127.567 47.6186L127.497 48.3523C126.53 48.9594 125.728 50.1779 124.773 50.5361C124.361 50.6248 123.963 50.7719 123.592 50.9728V50.8898C123.482 50.9864 123.392 51.1036 123.326 51.2349C123.121 51.6437 122.998 52.0888 122.964 52.5451C122.866 53.1025 122.673 53.6387 122.393 54.1305C122.316 54.2702 122.228 54.4045 122.132 54.5323L122.058 54.6502C122.564 54.6897 123.072 54.6074 123.54 54.41C123.466 55.008 123.32 55.5946 123.104 56.157C123.381 56.166 123.655 56.095 123.893 55.9526C124.131 55.8101 124.323 55.6021 124.446 55.3534V55.3185L124.503 55.2398C124.613 55.0377 124.703 54.8256 124.773 54.6066L124.725 54.659C124.812 54.3751 124.891 54.0868 124.987 53.8073C125.031 53.6499 125.103 53.5018 125.2 53.3706C125.317 53.253 125.459 53.1645 125.616 53.1122C125.772 53.0599 125.939 53.0451 126.103 53.0692L125.924 56.8558H126.002C125.897 57.1312 125.769 57.3972 125.619 57.6507C125 58.6552 123.875 59.3409 123.461 60.4415C123.283 60.9723 123.215 61.5342 123.261 62.0924C123.261 62.42 123.3 62.7519 123.326 63.0795V63.0532C123.387 63.9267 123.405 64.7566 122.934 65.4597C122.611 65.9402 122.093 66.3027 121.914 66.8486C121.865 67.0007 121.843 67.1604 121.849 67.3203C121.884 67.7989 121.983 68.2705 122.145 68.7222C122.147 68.7136 122.147 68.7047 122.145 68.696C122.254 69.0283 122.279 69.3823 122.219 69.7267C122.023 70.6002 120.964 71.3296 121.016 72.1638C121.013 72.2735 121.029 72.3829 121.064 72.487C121.268 72.8945 121.621 73.2074 122.049 73.3605C122.721 73.7434 123.493 73.9139 124.263 73.8496C124.552 73.7974 124.831 73.7017 125.091 73.5658C124.786 74.2689 124.472 74.9634 124.154 75.6228C124.106 75.7277 124.054 75.8325 124.002 75.9373C124.002 75.9373 121.308 74.1335 119.778 77.811C119.332 78.5752 119.012 79.4071 118.833 80.2742C118.756 80.6211 118.648 80.9602 118.51 81.2875C117.831 82.4396 116.815 83.3545 115.599 83.9079C112.478 85.3405 99.8735 101.094 99.6513 105.173C99.5422 106.766 99.2735 108.343 98.8493 109.881C97.8571 113.504 97.6022 117.29 98.0997 121.014C98.2554 122.217 98.5135 123.405 98.8711 124.565C100.209 128.64 101.103 136.243 101.103 136.243L102.55 149.442C102.496 151.264 102.575 153.087 102.785 154.897C101.307 156.587 95.3757 163.632 97.642 165.549C99.3854 167.06 102.436 166.811 104.149 166.501C102.707 170.078 100.436 176.298 100.135 180.569C99.6992 186.889 100.88 195.261 102.75 198.476C104.62 201.69 110.852 209.936 110.852 209.936C110.852 209.936 110.56 221.248 112.788 225.357C115.015 229.467 115.913 237.993 115.913 237.993C115.913 237.993 117.991 245.19 116.95 247.837C115.908 250.483 118.881 252.685 115.76 254.445C112.639 256.205 108.647 295.875 108.647 295.875C108.647 295.875 107.039 321.874 108.647 323.198C108.733 323.26 108.825 323.314 108.922 323.359V332.094C108.922 332.094 107.806 333.928 112.343 334.3C115.451 334.549 124.259 335.112 129.485 335.44L133.534 335.693C133.534 335.693 143.122 337.606 147.359 335.693C151.595 333.78 159.104 333.824 157.989 328.77C157.841 328.083 157.643 327.407 157.396 326.748C156.171 323.612 154.092 323.254 150.261 322.381C150.039 322.333 149.825 322.289 149.629 322.254C145.593 321.551 144.268 323.433 142.006 320.983C140.041 318.865 133.782 316.493 131.651 315.742C131.703 315.585 131.768 315.432 131.821 315.271C131.217 315.168 130.656 314.894 130.204 314.48L135.979 314.847L139.417 315.061C139.417 315.061 147.568 316.69 151.185 315.061C154.803 313.432 161.166 313.476 160.216 309.182C160.091 308.597 159.923 308.022 159.715 307.462C158.673 304.797 156.903 304.505 153.648 303.767C153.46 303.727 153.286 303.688 153.112 303.657C149.682 303.059 148.557 304.658 146.635 302.579C144.988 300.806 139.788 298.818 137.918 298.141C137.918 297.172 136.611 295.792 135.787 294.407C134.819 292.791 136.606 287.135 136.606 287.135L137.626 263.669C138.015 263.496 138.425 263.378 138.847 263.319C138.847 263.319 143.458 258.908 142.416 254.209C142.204 252.788 142.093 251.353 142.085 249.916C143.602 248.505 145.689 246.422 146.282 245.138C147.25 243.046 146.282 232.909 146.282 232.909V194.147L153.996 194.929L160.996 195.65L163.127 195.868L170.127 196.576L186.214 198.205L200.71 195.453L206.982 194.265L219.878 191.82V160.199L233.228 157.989ZM127.053 53.209L126.155 53.1129C126.451 53.126 126.765 53.1828 127.053 53.209Z" fill="url(#paint0_linear_691_1977)"/>
<path d="M201.939 178.521C197.58 184.77 181.912 181.46 181.912 181.46L169.769 170.074L168.135 168.532L170.876 162.697C170.876 162.697 171.748 162.937 173.243 163.365C181.092 165.65 205.617 173.266 201.939 178.521Z" fill="#EFB7B9"/>
<path opacity="0.1" d="M173.234 163.365C172.698 165.235 171.229 168.034 169.769 170.074L168.135 168.532L170.876 162.697C170.876 162.697 171.757 162.937 173.234 163.365Z" fill="black"/>
<path d="M131.59 97.565C131.59 97.565 120.397 102.54 120.946 114.755C121.341 122.625 122.197 130.465 123.509 138.235C123.509 138.235 121.221 156.618 130.748 161.356C140.276 166.095 149.093 169.991 149.093 169.991C149.093 169.991 163.999 171.598 165.851 172.262C167.703 172.926 173.491 162.776 172.424 161.195C171.356 159.614 157.675 156.299 155.931 153.661C154.188 151.023 150.156 149.394 150.156 149.394C150.156 149.394 145.994 146.869 145.711 144.59C145.428 142.31 146.526 140.611 146.805 139.611C147.084 138.611 147.79 128.954 147.79 128.954C147.79 128.954 152.488 94.5821 131.59 97.565Z" fill="#DCE6F2"/>
<path opacity="0.1" d="M138.977 137.733C138.977 137.733 123.622 140.31 125.108 145.695C125.108 145.695 130.683 139.882 138.977 137.733Z" fill="black"/>
<path opacity="0.1" d="M139.095 139.912C139.095 139.912 130.652 146.817 132.304 147.171C133.956 147.525 139.095 139.912 139.095 139.912Z" fill="black"/>
<path opacity="0.1" d="M143.153 142.319C143.153 142.319 140.891 146.961 142.281 146.647C143.671 146.332 143.153 142.319 143.153 142.319Z" fill="black"/>
<path opacity="0.1" d="M173.801 163.859L172.868 163.593C173.134 162.719 173.208 162.011 172.99 161.684C171.922 160.103 158.25 156.792 156.511 154.15C154.772 151.508 150.736 149.883 150.736 149.883C150.736 149.883 146.574 147.359 146.291 145.079C146.007 142.799 147.106 141.1 147.384 140.1C147.663 139.1 148.369 129.439 148.369 129.439C148.369 129.439 153.055 95.0712 132.156 98.0542C132.156 98.0542 120.964 103.033 121.509 115.249C121.904 123.119 122.761 130.959 124.076 138.728C124.076 138.728 121.787 157.111 131.315 161.85C140.842 166.589 149.66 170.484 149.66 170.484C149.66 170.484 164.561 172.087 166.418 172.755C167.119 173.009 168.388 171.703 169.63 169.908L170.336 170.567L182.478 181.949C182.478 181.949 198.147 185.264 202.505 179.014C206.188 173.756 181.668 166.139 173.801 163.859Z" fill="black"/>
<path d="M125.147 51.7153C124.721 51.7989 124.312 51.9571 123.94 52.1826C123.504 52.5451 123.504 53.1653 123.395 53.7069C123.267 54.4602 122.969 55.1743 122.523 55.7945C123.019 55.831 123.517 55.7486 123.975 55.5543C123.9 56.1521 123.754 56.7387 123.539 57.3013C123.811 57.3082 124.078 57.2365 124.31 57.0947C124.542 56.953 124.728 56.7472 124.846 56.5021C125.077 56.0099 125.26 55.4965 125.391 54.9691C125.432 54.8113 125.503 54.663 125.6 54.5323C126.001 54.0563 126.747 54.2703 127.366 54.3314C127.881 54.3749 128.398 54.2796 128.864 54.0554C129.33 53.8312 129.728 53.4862 130.016 53.0561C130.674 52.056 130.713 49.4966 129.144 49.2258C127.505 48.9551 126.485 51.2174 125.147 51.7153Z" fill="#965D7B"/>
<g opacity="0.1">
<path opacity="0.1" d="M123.898 52.7198C123.937 52.5058 123.963 52.283 124.011 52.069C123.597 52.4315 123.575 53.0473 123.466 53.5933C123.411 53.9083 123.325 54.217 123.209 54.5148C123.552 53.9667 123.786 53.3571 123.898 52.7198Z" fill="black"/>
<path opacity="0.1" d="M124.037 56.3273C124.254 55.7654 124.4 55.1785 124.473 54.5803C124.036 54.7644 123.564 54.8465 123.091 54.8205C122.953 55.1277 122.786 55.4203 122.59 55.694C123.084 55.7323 123.58 55.6515 124.037 55.4582C123.964 56.0564 123.818 56.6432 123.601 57.2052C123.872 57.2115 124.14 57.1396 124.372 56.9979C124.604 56.8562 124.79 56.6507 124.909 56.4059C125.017 56.2074 125.105 55.9981 125.17 55.7814C125.042 55.9605 124.871 56.1044 124.673 56.1998C124.475 56.2952 124.256 56.3391 124.037 56.3273Z" fill="black"/>
<path opacity="0.1" d="M127.864 53.3574C127.245 53.2963 126.495 53.0823 126.094 53.5583C125.999 53.6901 125.928 53.8381 125.885 53.9951C125.846 54.1086 125.811 54.2266 125.78 54.3445C126.194 54.0169 126.866 54.1916 127.428 54.2484C127.943 54.2905 128.459 54.1946 128.925 53.9705C129.391 53.7464 129.789 53.4022 130.078 52.9731C130.21 52.761 130.308 52.5297 130.37 52.2874C130.071 52.6576 129.687 52.9488 129.25 53.1353C128.813 53.3219 128.337 53.3981 127.864 53.3574Z" fill="black"/>
</g>
<path d="M138.266 87.7863L144.913 95.7962L144.045 103.88L136.013 91.2802L138.266 87.7863Z" fill="#DCE6F2"/>
<path opacity="0.1" d="M144.908 95.7962L144.093 103.4L144.041 103.88L136.793 92.5075L136.013 91.2802L136.239 90.9265L138.262 87.7863L138.711 88.3278L144.908 95.7962Z" fill="black"/>
<path d="M148.361 76.9419C146.112 77.5882 143.963 79.8069 142.093 82.5016C140.829 84.3609 139.699 86.3079 138.711 88.3279C138.096 89.5595 137.556 90.7431 137.107 91.7738L136.793 92.5075C136.035 94.3026 135.612 95.5036 135.612 95.5036C135.612 95.5036 118.396 82.5322 121.12 81.6587C122.036 81.3661 123.239 79.4007 124.428 76.9244L124.577 76.6099C125.331 75.0202 126.072 73.247 126.73 71.5786C128.076 68.1501 129.074 65.1715 129.074 65.1715C129.074 65.1715 155.225 74.9765 148.361 76.9419Z" fill="#EFB7B9"/>
<path d="M158.659 64.4421C158.659 64.4421 162.634 71.6484 167.973 70.6658C173.312 69.6831 171.116 66.7962 171.116 66.7962L158.659 64.4421Z" fill="#444053"/>
<path d="M150.958 313.89C147.437 315.502 139.474 313.89 139.474 313.89L136.118 313.681C131.759 313.401 124.463 312.93 121.883 312.72C118.118 312.41 119.042 310.864 119.042 310.864V301.522L137.312 296.884C137.312 296.884 144.534 299.36 146.513 301.522C148.391 303.583 149.489 301.998 152.841 302.592C153.007 302.622 153.181 302.657 153.364 302.701C156.546 303.43 158.272 303.719 159.292 306.361C159.497 306.916 159.661 307.485 159.784 308.064C160.725 312.318 154.476 312.288 150.958 313.89Z" fill="#A36468"/>
<path opacity="0.1" d="M159.292 306.361C158.637 306.771 157.949 307.124 157.234 307.418C154.837 308.514 152.558 309.851 150.135 310.886C147.711 311.921 145.101 312.659 142.477 312.462C141.104 312.362 139.7 312.026 138.389 312.419C137.577 312.733 136.813 313.157 136.118 313.681C131.759 313.401 124.463 312.93 121.883 312.72C118.118 312.41 119.042 310.864 119.042 310.864V309.772C119.177 309.772 119.329 309.733 119.504 309.72C120.406 309.705 121.304 309.839 122.162 310.117C124.054 310.632 125.937 311.139 127.828 311.646C127.984 311.057 128.257 310.507 128.632 310.028C129.006 309.549 129.474 309.151 130.007 308.859C131.087 308.285 132.299 308.006 133.52 308.051C136.453 308.09 139.23 309.484 142.159 309.623C142.977 309.699 143.802 309.56 144.551 309.222C144.952 309.021 145.305 308.728 145.698 308.505C146.325 308.201 146.989 307.977 147.672 307.837C149.593 307.358 151.478 306.748 153.316 306.012C153.839 305.806 154.449 305.435 154.38 304.876C154.288 304.134 153.124 304.046 152.819 303.365C152.765 303.242 152.741 303.108 152.747 302.974C152.753 302.84 152.79 302.709 152.854 302.592C153.02 302.622 153.194 302.657 153.377 302.701C156.546 303.43 158.272 303.719 159.292 306.361Z" fill="black"/>
<path d="M147.236 334.33C143.096 336.226 133.725 334.33 133.725 334.33L129.781 334.099C124.673 333.771 116.069 333.225 113.032 332.968C108.599 332.601 109.689 330.784 109.689 330.784V319.773L131.189 314.314C131.189 314.314 139.688 317.227 142.015 319.773C144.225 322.197 145.502 320.332 149.464 321.031C149.66 321.066 149.865 321.11 150.078 321.158C153.822 322.031 155.853 322.359 157.052 325.469C157.294 326.121 157.488 326.792 157.631 327.473C158.712 332.478 151.377 332.439 147.236 334.33Z" fill="#A36468"/>
<path opacity="0.1" d="M157.043 325.469C156.273 325.951 155.464 326.367 154.624 326.713C151.804 328.002 149.119 329.574 146.269 330.793C143.418 332.011 140.346 332.876 137.256 332.649C135.643 332.531 133.991 332.125 132.461 332.596C131.503 332.97 130.601 333.476 129.781 334.099C124.673 333.771 116.069 333.225 113.032 332.968C108.599 332.601 109.689 330.784 109.689 330.784V329.5C109.869 329.47 110.051 329.45 110.233 329.439C111.295 329.419 112.353 329.577 113.363 329.906L120.027 331.705C120.212 331.011 120.537 330.362 120.982 329.798C121.426 329.235 121.981 328.767 122.611 328.425C123.882 327.747 125.309 327.418 126.748 327.473C130.199 327.521 133.464 329.159 136.911 329.325C137.871 329.413 138.838 329.252 139.718 328.858C140.193 328.618 140.59 328.273 141.069 328.015C141.806 327.653 142.587 327.389 143.392 327.229C145.64 326.66 147.847 325.942 150 325.08C150.614 324.835 151.333 324.399 151.251 323.743C151.142 322.87 149.773 322.765 149.411 321.962C149.35 321.816 149.323 321.66 149.33 321.502C149.338 321.345 149.38 321.192 149.455 321.053C149.651 321.088 149.856 321.132 150.069 321.18C153.813 322.018 155.844 322.359 157.043 325.469Z" fill="black"/>
<path d="M137.866 258.777L136.702 286.218C136.702 286.218 134.958 291.822 135.904 293.424C136.85 295.027 138.445 296.626 137.866 297.574C137.286 298.521 130.312 308.767 128.059 304.837C125.806 300.906 123.583 283.873 123.583 283.873L125.662 262.835L137.866 258.777Z" fill="#444053"/>
<path d="M142.913 190.409L146.147 194.741V232.424C146.147 232.424 147.092 242.469 146.147 244.544C145.201 246.618 140.407 250.767 140.407 250.767L136.375 230.022L137.247 208.075L142.913 190.409Z" fill="#444053"/>
<path opacity="0.1" d="M137.866 258.777L136.702 286.218C136.702 286.218 134.958 291.822 135.904 293.424C136.85 295.027 138.445 296.626 137.866 297.574C137.286 298.521 130.312 308.767 128.059 304.837C125.806 300.906 123.583 283.873 123.583 283.873L125.662 262.835L137.866 258.777Z" fill="black"/>
<path opacity="0.1" d="M142.913 190.409L146.147 194.741V232.424C146.147 232.424 147.092 242.469 146.147 244.544C145.201 246.618 140.407 250.767 140.407 250.767L136.375 230.022L137.247 208.075L142.913 190.409Z" fill="black"/>
<path d="M146.146 174.336V194.719L142.515 210.587C142.515 210.587 141.352 248.876 142.367 253.532C143.383 258.188 138.88 262.559 138.88 262.559C138.88 262.559 136.265 262.852 136.265 264.887C136.265 266.923 131.907 272.749 131.907 272.749L132.051 284.104C132.051 284.104 133.942 305.361 131.035 309.436C128.128 313.51 132.051 314.096 132.051 314.096C128.42 326.032 110.987 323.267 109.413 321.957C107.84 320.647 109.413 294.879 109.413 294.879C109.413 294.879 113.31 255.572 116.361 253.825C119.411 252.078 116.509 249.894 117.524 247.273C118.54 244.653 116.509 237.521 116.509 237.521C116.509 237.521 115.637 229.074 113.458 224.999C111.279 220.924 111.566 209.713 111.566 209.713C111.566 209.713 105.464 201.559 103.651 198.358C101.838 195.156 100.67 186.858 101.106 180.595C101.402 176.363 103.621 170.2 105.029 166.654C105.704 164.955 106.192 163.855 106.192 163.855L106.606 163.964L130.412 170.209L146.146 174.336Z" fill="#444053"/>
<path opacity="0.1" d="M148.361 76.9418C146.112 77.5882 143.963 79.8068 142.093 82.5016H141.605C138.865 82.5035 136.172 81.7804 133.8 80.4054C131.427 79.0304 129.459 77.0522 128.094 74.6707C127.524 73.6839 127.065 72.6365 126.726 71.548C128.072 68.1195 129.07 65.1409 129.07 65.1409C129.07 65.1409 155.225 74.9764 148.361 76.9418Z" fill="black"/>
<path d="M157.186 66.0231C157.19 68.4128 156.646 70.7716 155.597 72.9176C154.548 75.0636 153.021 76.9397 151.135 78.4013C149.248 79.8628 147.052 80.871 144.715 81.348C142.378 81.8249 139.963 81.7581 137.656 81.1525C135.349 80.5469 133.212 79.4188 131.409 77.855C129.605 76.2912 128.184 74.3335 127.255 72.1327C126.326 69.9319 125.913 67.5467 126.049 65.1609C126.184 62.775 126.864 60.4522 128.037 58.3713C128.509 57.5258 129.061 56.7273 129.684 55.9867C130.712 54.7597 131.92 53.6964 133.267 52.8334C135.542 51.3847 138.153 50.5522 140.845 50.4172C143.537 50.2821 146.218 50.8492 148.626 52.0629C151.034 53.2766 153.086 55.0954 154.583 57.3418C156.079 59.5881 156.969 62.185 157.164 64.8789C157.173 65.2632 157.186 65.6432 157.186 66.0231Z" fill="#EFB7B9"/>
<path opacity="0.1" d="M144.094 103.4L144.041 103.88L136.793 92.5249C136.035 94.32 135.612 95.521 135.612 95.521C135.612 95.521 118.396 82.5322 121.12 81.6587C122.036 81.366 123.239 79.4007 124.428 76.9243L124.577 76.6099C125.841 80.3834 133.184 87.926 136.24 90.9483C136.593 91.2977 136.885 91.5859 137.111 91.7956L137.578 92.2323L137.822 92.4769C138.933 93.6255 143.623 98.6918 144.094 103.4Z" fill="black"/>
<path d="M149.512 141.93L148.718 167.51L148.579 172.065C148.579 172.065 139.182 171.192 130.413 170.231C123.352 169.458 116.697 168.624 115.673 168.135C114.365 167.519 111.563 167.043 109.353 166.741C107.645 166.51 106.302 166.388 106.302 166.388C106.302 166.388 105.801 166.536 105.03 166.676C103.347 166.982 100.392 167.231 98.6707 165.733C96.4697 163.815 102.253 156.849 103.696 155.176L104.014 154.814L103.469 149.769L102.053 136.689C102.053 136.689 101.181 129.155 99.8736 125.115C99.5241 123.966 99.2718 122.79 99.1196 121.599C98.6338 117.909 98.8827 114.16 99.8518 110.567C100.266 109.04 100.529 107.476 100.636 105.898C100.854 101.858 113.167 86.2445 116.218 84.8251C117.59 84.1837 118.694 83.0802 119.338 81.7067C119.551 81.2748 119.71 80.8188 119.813 80.3484C121.121 74.6707 124.429 76.9243 124.429 76.9243C125.227 81.366 137.574 93.1233 137.574 93.1233L137.818 93.3679C139.043 94.6257 144.499 100.531 144.112 105.571C144.034 107.446 144.314 109.32 144.935 111.091C147.447 119.016 148.891 127.241 149.228 135.549L149.512 141.93Z" fill="#DCE6F2"/>
<path opacity="0.1" d="M132.017 111.554C132.017 111.554 128.966 118.979 126.678 120.18C124.389 121.381 133.106 122.713 132.017 111.554Z" fill="black"/>
<path opacity="0.1" d="M134.305 125.421C134.305 125.421 127.331 126.294 127.331 127.605C127.331 128.915 134.305 125.421 134.305 125.421Z" fill="black"/>
<path opacity="0.1" d="M141.605 133.937C141.605 133.937 131.472 155.556 128.639 156.211C125.806 156.867 141.605 133.937 141.605 133.937Z" fill="black"/>
<path opacity="0.1" d="M137.382 94.2195L129.001 97.8707L118.885 82.5584C119.097 82.1265 119.257 81.6704 119.36 81.2001C120.667 75.5224 123.975 77.776 123.975 77.776C124.773 82.2177 137.12 93.975 137.12 93.975L137.382 94.2195Z" fill="black"/>
<path d="M137.817 93.3461L129.436 96.9973L119.32 81.6849C119.533 81.2531 119.692 80.797 119.795 80.3266C121.103 74.6489 124.411 76.9025 124.411 76.9025C125.209 81.3443 137.556 93.1015 137.556 93.1015L137.817 93.3461Z" fill="#DCE6F2"/>
<path opacity="0.1" d="M148.579 172.065C148.579 172.065 139.182 171.192 130.413 170.231L146.147 174.358V179.163C145.458 179.787 144.861 180.11 144.473 179.944C142.66 179.18 127.863 176.778 127.863 176.778C127.863 176.778 119.268 172.41 109.993 167.169C109.768 167.045 109.55 166.907 109.34 166.759C108.258 166.023 107.326 165.088 106.594 164.003C104.881 161.518 104.044 158.325 103.682 155.194C103.479 153.399 103.403 151.592 103.456 149.787C103.501 147.74 103.687 145.698 104.014 143.677C103.117 135.848 102.68 127.973 102.706 120.092C102.815 107.864 114.256 103.496 114.256 103.496C135.285 101.64 128.765 135.706 128.765 135.706C128.765 135.706 127.549 145.315 127.218 146.297C126.887 147.28 125.697 148.918 125.858 151.211C126.019 153.504 130.038 156.246 130.038 156.246C130.038 156.246 133.96 158.089 135.577 160.819C136.754 162.833 144.399 165.562 148.718 167.51L148.579 172.065Z" fill="black"/>
<path opacity="0.1" d="M155.622 56.3273C155.63 57.0467 155.481 57.7592 155.186 58.415C154.963 58.9501 154.704 59.4696 154.41 59.9698C153.952 60.8899 153.301 61.7003 152.501 62.3457C151.495 63.0663 150.222 63.2672 149.015 63.5599C147.807 63.8525 146.552 64.3198 145.864 65.3505C145.49 66.0131 145.241 66.7383 145.127 67.4906C145.011 68.2422 144.712 68.9535 144.255 69.5608C144.017 69.8573 143.688 70.0662 143.319 70.1548C142.95 70.2433 142.562 70.2064 142.216 70.0499C141.851 69.8037 141.575 69.4471 141.427 69.0323C140.93 67.9099 140.803 66.6651 140.603 65.4554C140.402 64.2456 140.119 63.0008 139.378 62.0269C138.637 61.0529 137.325 60.4109 136.162 60.7909C135.772 60.9411 135.417 61.1687 135.117 61.4599C134.818 61.7511 134.58 62.0999 134.418 62.4855C134.096 63.2573 133.875 64.0677 133.76 64.8963C133.22 67.8604 132.582 70.807 131.847 73.7361C131.824 73.8562 131.775 73.9696 131.703 74.068C131.587 74.1838 131.431 74.2496 131.267 74.2515C130.291 74.3825 129.354 73.6968 128.369 73.771C128.267 73.7778 128.167 73.7939 128.068 73.8191C126.476 71.0456 125.772 67.8485 126.054 64.6611C126.335 61.4736 127.588 58.45 129.641 55.9998L129.72 55.9779C130.375 55.7448 130.971 55.3689 131.463 54.8773C132.092 54.2464 132.675 53.5706 133.207 52.8552L133.555 52.4184C134.557 51.2091 135.698 50.1227 136.955 49.1821C137.298 48.9005 137.691 48.6871 138.114 48.5532C138.476 48.4826 138.847 48.4708 139.213 48.5183C140.718 48.6993 142.235 48.7563 143.75 48.6886C144.805 48.5224 145.869 48.4145 146.936 48.3654C149.695 48.444 152.048 50.3963 153.791 52.5364C154.729 53.6326 155.565 54.8948 155.622 56.3273Z" fill="black"/>
<path d="M126.002 58.7862C125.396 59.782 124.302 60.459 123.892 61.5508C123.291 63.1362 124.306 65.1103 123.374 66.5254C123.064 67.0014 122.554 67.3552 122.38 67.9011C122.084 68.8227 122.894 69.8054 122.685 70.7531C122.476 71.7008 121.229 72.5001 121.561 73.426C121.756 73.8298 122.1 74.1426 122.519 74.2995C123.18 74.6791 123.94 74.8482 124.699 74.7843C125.888 74.5877 126.773 73.4173 127.98 73.3299C128.961 73.26 129.898 73.9414 130.874 73.8147C131.038 73.809 131.194 73.742 131.31 73.6269C131.384 73.5296 131.434 73.4157 131.454 73.295C132.186 70.3688 132.826 67.4222 133.372 64.4552C133.483 63.6263 133.703 62.8157 134.026 62.0444C134.189 61.6596 134.427 61.3114 134.726 61.0204C135.026 60.7294 135.38 60.5013 135.769 60.3498C136.933 59.9742 138.24 60.6118 138.985 61.5858C139.731 62.5597 140.014 63.8044 140.215 65.0142C140.415 66.224 140.541 67.4688 141.034 68.5912C141.184 69.0075 141.461 69.3654 141.827 69.6132C142.481 69.9932 143.361 69.6918 143.863 69.124C144.322 68.5165 144.621 67.8032 144.734 67.0495C144.848 66.2986 145.098 65.5748 145.471 64.9138C146.159 63.8831 147.419 63.4157 148.622 63.1231C149.825 62.8305 151.093 62.6252 152.109 61.9046C152.907 61.2598 153.558 60.4512 154.018 59.5331C154.663 58.4062 155.264 57.1834 155.212 55.8862C155.155 54.4712 154.318 53.2089 153.425 52.1083C151.682 49.9683 149.324 48.016 146.565 47.9418C145.497 47.9865 144.434 48.0944 143.379 48.265C141.864 48.3332 140.347 48.2748 138.842 48.0903C138.476 48.0464 138.105 48.0597 137.743 48.1296C137.32 48.2591 136.927 48.473 136.588 48.7585C135.331 49.6975 134.188 50.7824 133.184 51.9904C132.537 52.8501 131.836 53.6671 131.084 54.4362C130.591 54.9286 129.996 55.3059 129.34 55.5412C128.904 55.6635 128.469 55.5761 128.055 55.7115C126.769 56.1177 126.599 57.7992 126.002 58.7862Z" fill="#965D7B"/>
<path opacity="0.1" d="M167.973 70.6614C164.486 71.3034 161.597 68.4776 159.997 66.4162C159.506 65.7901 159.059 65.1305 158.659 64.4421L170.627 66.7044L171.111 66.7961C171.111 66.7961 173.312 69.683 167.973 70.6614Z" fill="black"/>
<g opacity="0.1">
<path opacity="0.1" d="M122.686 69.504C122.735 68.9328 122.648 68.3582 122.433 67.8269C122.433 67.8706 122.394 67.9143 122.381 67.9579C122.193 68.5432 122.446 69.1503 122.607 69.7573C122.642 69.6758 122.668 69.5909 122.686 69.504Z" fill="black"/>
<path opacity="0.1" d="M123.723 62.3544C123.678 62.9584 123.69 63.5652 123.758 64.1669C123.803 63.563 123.791 62.9562 123.723 62.3544Z" fill="black"/>
<path opacity="0.1" d="M153.992 58.2709C153.534 59.191 152.882 60.0014 152.083 60.6468C151.077 61.3674 149.808 61.5683 148.597 61.8609C147.385 62.1536 146.134 62.6209 145.445 63.6516C145.073 64.3145 144.823 65.0396 144.709 65.7917C144.595 66.5452 144.296 67.2583 143.837 67.8662C143.336 68.434 142.456 68.7397 141.802 68.3554C141.436 68.1076 141.158 67.7497 141.009 67.3334C140.516 66.2109 140.385 64.9706 140.189 63.7564C139.993 62.5423 139.701 61.3019 138.96 60.328C138.219 59.354 136.907 58.712 135.744 59.092C135.354 59.2429 135 59.4707 134.7 59.7618C134.401 60.0529 134.163 60.4014 134 60.7865C133.678 61.5579 133.458 62.3685 133.346 63.1974C132.803 66.1644 132.164 69.111 131.429 72.0372C131.408 72.1578 131.359 72.2718 131.285 72.3691C131.168 72.4842 131.013 72.5512 130.849 72.5569C129.873 72.6835 128.936 72.0022 127.955 72.0721C126.748 72.1595 125.863 73.3299 124.673 73.5221C123.914 73.5903 123.153 73.4209 122.494 73.0373C122.191 72.9067 121.919 72.7132 121.696 72.4695C121.594 72.6159 121.527 72.7835 121.499 72.9598C121.471 73.136 121.483 73.3164 121.535 73.4872C121.727 73.8938 122.072 74.2078 122.494 74.3607C123.153 74.7443 123.914 74.9137 124.673 74.8454C125.863 74.6533 126.748 73.4828 127.955 73.3954C128.936 73.3256 129.873 74.0069 130.849 73.8802C131.013 73.8745 131.168 73.8075 131.285 73.6924C131.359 73.5951 131.408 73.4812 131.429 73.3605C132.161 70.4489 132.8 67.5023 133.346 64.5207C133.458 63.6918 133.678 62.8812 134 62.1099C134.163 61.7247 134.401 61.3762 134.7 61.0851C135 60.794 135.354 60.5662 135.744 60.4153C136.907 60.0353 138.215 60.6774 138.96 61.6513C139.705 62.6253 139.989 63.87 140.189 65.0798C140.39 66.2896 140.516 67.5343 141.009 68.6567C141.158 69.073 141.436 69.4309 141.802 69.6787C142.456 70.0587 143.336 69.7573 143.837 69.1896C144.296 68.5816 144.595 67.8685 144.709 67.115C144.823 66.3629 145.073 65.6378 145.445 64.975C146.134 63.9442 147.394 63.4813 148.597 63.1843C149.799 62.8873 151.068 62.6908 152.083 61.9701C152.882 61.3247 153.534 60.5144 153.992 59.5942C154.637 58.4718 155.239 57.2489 155.187 55.9517C155.178 55.785 155.16 55.6188 155.134 55.4539C154.924 56.4535 154.537 57.4075 153.992 58.2709Z" fill="black"/>
</g>
<path opacity="0.1" d="M155.204 58.4019C156.321 60.3933 156.984 62.6085 157.143 64.8876C153.26 62.7039 149.607 60.3061 147.764 59.4719C144.552 58.0176 132.54 58.2359 128.024 58.3713C128.497 57.5258 129.048 56.7273 129.672 55.9867C130.704 54.7587 131.916 53.6954 133.268 52.8334C135.057 51.6952 137.06 50.9346 139.153 50.5983C141.246 50.262 143.385 50.3569 145.441 50.8773C147.496 51.3977 149.424 52.3326 151.106 53.6249C152.788 54.9171 154.19 56.5396 155.225 58.3932L155.204 58.4019Z" fill="black"/>
<path opacity="0.1" d="M169.063 68.8096C166.966 69.4559 163.545 68.2068 159.997 66.4162C159.506 65.7901 159.059 65.1305 158.659 64.4421L170.627 66.7044C171.421 67.246 171.621 68.019 169.063 68.8096Z" fill="black"/>
<path d="M142.534 43.2599C142.534 43.2599 131.093 42.6047 127.876 48.8284L127.358 54.3445L126.486 54.2484L126.312 58.0001C126.312 58.0001 143.798 57.2358 147.777 59.0352C151.756 60.8346 164.121 69.9015 169.076 68.3728C174.032 66.8442 168.641 65.4248 168.641 65.4248C168.641 65.4248 161.82 62.5292 161.82 60.2581C161.82 57.987 160.129 45.9895 142.534 43.2599Z" fill="#444053"/>
<path opacity="0.1" d="M120.467 247.745C120.467 247.745 127.767 254.842 130.927 254.296C130.927 254.296 121.992 253.532 120.467 247.745Z" fill="black"/>
<path opacity="0.1" d="M118.941 251.034C118.941 251.034 119.595 254.685 121.339 254.327C123.082 253.969 118.941 251.034 118.941 251.034Z" fill="black"/>
<path opacity="0.1" d="M130.382 312.056C130.382 312.056 120.017 320.136 121.765 320.354C123.513 320.573 130.382 312.056 130.382 312.056Z" fill="black"/>
<path d="M144.246 151.696L177.806 146.223V178.062L145.92 176.389L144.246 151.696Z" fill="#2C3BD1"/>
<path opacity="0.05" d="M144.246 151.696L177.806 146.223V178.062L145.92 176.389L144.246 151.696Z" fill="black"/>
<path d="M177.806 146.223L218.051 149.241L215.824 176.948L177.806 178.062V146.223Z" fill="#2C3BD1"/>
<path opacity="0.1" d="M177.806 146.223L218.051 149.241L215.824 176.948L177.806 178.062V146.223Z" fill="black"/>
<path d="M190.179 136.505L177.806 146.223L218.051 149.241L224.628 139.296L190.179 136.505Z" fill="#2C3BD1"/>
<path d="M132.095 141.083L162.307 137.396L177.806 146.223L144.246 151.696L132.095 141.083Z" fill="#2C3BD1"/>
<path d="M185.163 154.491V198.021L169.442 196.405L162.604 195.707L160.52 195.488L153.686 194.785L144.246 193.815V151.696L177.802 153.984L185.163 154.491Z" fill="#2C3BD1"/>
<path d="M218.052 149.241V191.693L205.452 194.117L199.324 195.296L185.163 198.021V154.491L218.052 149.241Z" fill="#2C3BD1"/>
<path opacity="0.05" d="M218.052 149.241V191.693L205.452 194.117L199.324 195.296L185.163 198.021V154.491L218.052 149.241Z" fill="black"/>
<path d="M132.095 160.859L144.246 151.696L185.163 154.491L179.14 164.658L132.095 160.859Z" fill="#2C3BD1"/>
<path opacity="0.1" d="M132.095 160.859L144.246 151.696L185.163 154.491L179.14 164.658L132.095 160.859Z" fill="white"/>
<path d="M218.052 149.241L185.163 154.491L195.867 164.099L231.096 158.177L218.052 149.241Z" fill="#2C3BD1"/>
<path opacity="0.1" d="M218.052 149.241L185.163 154.491L195.867 164.099L231.096 158.177L218.052 149.241Z" fill="white"/>
<path opacity="0.1" d="M205.451 194.117L199.323 195.296V186.225L205.063 184.775L205.451 194.117Z" fill="white"/>
<path opacity="0.1" d="M169.442 190.404V196.405L162.604 195.707V190.404H169.442Z" fill="white"/>
<path opacity="0.1" d="M160.521 192.296V195.488L153.687 194.785V192.296H160.521Z" fill="white"/>
<path opacity="0.1" d="M181.049 187.221C176.363 193.226 160.891 189.077 160.891 189.077L149.393 177.057L147.833 175.428L150.884 169.751C150.884 169.751 151.756 170.039 153.211 170.546C160.917 173.245 184.993 182.167 181.049 187.221Z" fill="black"/>
<path d="M180.613 186.347C175.928 192.352 160.455 188.203 160.455 188.203L148.958 176.184L147.397 174.555L150.448 168.877C150.448 168.877 151.32 169.165 152.776 169.672C160.481 172.371 184.557 181.294 180.613 186.347Z" fill="#EFB7B9"/>
<path opacity="0.1" d="M152.758 169.672C152.122 171.506 150.505 174.223 148.94 176.184L147.38 174.555L150.431 168.877C150.431 168.877 151.307 169.165 152.758 169.672Z" fill="black"/>
<path d="M114.692 101.749C114.692 101.749 103.251 106.117 103.142 118.346C103.116 126.226 103.552 134.101 104.449 141.93C104.449 141.93 101.18 160.164 110.442 165.405C119.704 170.646 128.312 175.014 128.312 175.014C128.312 175.014 143.108 177.416 144.926 178.18C146.743 178.944 153.059 169.117 152.078 167.48C151.097 165.842 137.626 161.802 136.026 159.072C134.426 156.343 130.486 154.504 130.486 154.504C130.486 154.504 126.468 151.757 126.307 149.464C126.145 147.171 127.331 145.533 127.667 144.55C128.002 143.568 129.218 133.959 129.218 133.959C129.218 133.959 135.721 99.8711 114.692 101.749Z" fill="#DCE6F2"/>
<path opacity="0.1" d="M119.922 142.236C119.922 142.236 104.45 143.983 105.648 149.442C105.648 149.442 111.528 143.935 119.922 142.236Z" fill="black"/>
<path opacity="0.1" d="M119.922 144.419C119.922 144.419 111.14 150.861 112.752 151.298C114.365 151.735 119.922 144.419 119.922 144.419Z" fill="black"/>
<path opacity="0.1" d="M123.845 147.04C123.845 147.04 121.339 151.556 122.755 151.32C124.172 151.084 123.845 147.04 123.845 147.04Z" fill="black"/>
<path d="M284.94 49.0861C284.94 49.0861 268.378 48.0859 270.314 59.7296C270.314 59.7296 269.926 61.7867 271.787 62.7213C271.787 62.7213 271.817 61.8478 273.486 62.1492C274.081 62.2494 274.685 62.2788 275.286 62.2365C276.101 62.1821 276.876 61.8614 277.492 61.3237C277.492 61.3237 282.151 59.3977 283.964 51.7633C283.964 51.7633 285.306 50.095 285.272 49.6669L282.473 50.868C282.473 50.868 283.428 52.8901 282.674 54.5716C282.674 54.5716 282.587 50.9422 282.046 51.0252C281.937 51.0252 280.595 51.7284 280.595 51.7284C280.595 51.7284 282.238 55.2486 280.996 57.8123C280.996 57.8123 281.467 53.471 280.081 51.9817L278.111 53.1347C278.111 53.1347 280.033 56.7728 278.73 59.7427C278.73 59.7427 279.065 55.1874 277.697 53.4142L275.91 54.8075C275.91 54.8075 277.718 58.3975 276.616 60.8608C276.616 60.8608 276.472 55.5587 275.522 55.1569C275.522 55.1569 273.962 56.537 273.726 57.1048C273.726 57.1048 274.96 59.7252 274.193 61.0835C274.193 61.0835 273.722 57.5502 273.321 57.5328C273.321 57.5328 271.765 59.8737 271.604 61.4635C271.679 59.9814 272.14 58.5449 272.942 57.2969C272.045 57.4669 271.218 57.8967 270.562 58.5329C270.562 58.5329 270.802 56.8776 273.325 56.7335C273.325 56.7335 274.633 54.956 274.955 54.8468C274.955 54.8468 272.445 54.6371 270.924 55.3141C270.924 55.3141 272.262 53.7549 275.417 54.4406L277.161 52.9993C277.161 52.9993 273.857 52.5626 272.453 53.0474C272.453 53.0474 274.066 51.6673 277.636 52.6718L279.553 51.5231C279.553 51.5231 276.738 50.9117 275.06 51.1344C275.06 51.1344 276.829 50.1779 280.116 51.213L281.488 50.5972C281.488 50.5972 279.423 50.191 278.821 50.1255C278.22 50.06 278.185 49.8941 278.185 49.8941C279.492 49.6761 280.833 49.8273 282.059 50.3308C282.059 50.3308 285.001 49.2695 284.94 49.0861Z" fill="#2C3BD1"/>
<path opacity="0.1" d="M335.263 107.322C335.263 107.322 318.701 106.322 320.636 117.965C320.636 117.965 320.248 120.023 322.109 120.957C322.109 120.957 322.139 120.084 323.813 120.385C324.408 120.485 325.012 120.515 325.613 120.472C326.418 120.414 327.183 120.095 327.792 119.564C327.792 119.564 332.456 117.634 334.269 109.999C334.269 109.999 335.607 108.335 335.555 107.907L332.757 109.104C332.757 109.104 333.711 111.126 332.961 112.808C332.961 112.808 332.87 109.178 332.334 109.261C332.225 109.261 330.878 109.964 330.878 109.964C330.878 109.964 332.526 113.489 331.283 116.048C331.283 116.048 331.754 111.707 330.364 110.218L328.416 111.358C328.416 111.358 330.338 114.996 329.034 117.965C329.034 117.965 329.37 113.41 328.002 111.637L326.219 113.035C326.219 113.035 328.023 116.62 326.925 119.084C326.925 119.084 326.781 113.781 325.831 113.38C325.831 113.38 324.271 114.76 324.031 115.328C324.031 115.328 325.269 117.948 324.502 119.306C324.502 119.306 324.031 115.773 323.63 115.756C323.63 115.756 322.074 118.097 321.913 119.686C321.991 118.204 322.453 116.768 323.255 115.52C322.357 115.69 321.529 116.12 320.871 116.756C320.871 116.756 321.115 115.1 323.639 114.956C323.639 114.956 324.924 113.179 325.269 113.07C325.269 113.07 322.758 112.86 321.237 113.537C321.237 113.537 322.575 111.978 325.726 112.685L327.47 111.244C327.47 111.244 324.162 110.807 322.763 111.292C322.763 111.292 324.375 109.912 327.945 110.916L329.863 109.768C329.863 109.768 327.043 109.161 325.365 109.379C325.365 109.379 327.139 108.423 330.425 109.458L331.798 108.842C331.798 108.842 329.732 108.436 329.126 108.37C328.52 108.305 328.49 108.139 328.49 108.139C329.798 107.921 331.141 108.072 332.369 108.575C332.369 108.575 335.315 107.505 335.263 107.322Z" fill="#2C3BD1"/>
<path opacity="0.1" d="M234.649 96.9841C234.649 96.9841 238.462 80.7852 226.677 80.7284C226.677 80.7284 224.72 79.9947 223.487 81.6718C223.487 81.6718 224.328 81.8508 223.757 83.4493C223.56 84.0146 223.428 84.6008 223.365 85.1963C223.28 86.0082 223.463 86.8254 223.884 87.5242C223.884 87.5242 224.986 92.4594 232.165 95.5516C232.165 95.5516 233.577 97.1588 234.004 97.1763L233.306 94.2108C233.306 94.2108 231.153 94.8091 229.628 93.774C229.628 93.774 233.215 94.3025 233.219 93.774C233.219 93.6649 232.783 92.2192 232.783 92.2192C232.783 92.2192 229.04 93.2412 226.73 91.5772C226.73 91.5772 230.918 92.7826 232.622 91.6689L231.838 89.5201C231.838 89.5201 227.915 90.7998 225.23 89.0048C225.23 89.0048 229.654 90.1141 231.633 89.0659L230.565 87.0656C230.565 87.0656 226.73 88.2361 224.494 86.7293C224.494 86.7293 229.724 87.4892 230.29 86.6245C230.29 86.6245 229.201 84.8469 228.682 84.515C228.682 84.515 225.91 85.2924 224.69 84.301C224.69 84.301 228.242 84.4364 228.325 84.0608C228.325 84.0608 226.289 82.126 224.738 81.6892C226.184 82.0191 227.519 82.7206 228.612 83.7245C228.596 82.8091 228.315 81.9183 227.802 81.1608C227.802 81.1608 229.388 81.6849 229.109 84.218C229.109 84.218 230.635 85.7903 230.683 86.1484C230.683 86.1484 231.315 83.707 230.909 82.0867C230.909 82.0867 232.217 83.6764 230.983 86.6682L232.099 88.6554C232.099 88.6554 233.11 85.4671 232.853 83.9996C232.853 83.9996 233.938 85.8252 232.339 89.1795L233.145 91.2715C233.145 91.2715 234.222 88.5898 234.291 86.904C234.291 86.904 234.932 88.817 233.35 91.8873L233.725 93.346C233.725 93.346 234.475 91.3763 234.64 90.7911C234.806 90.2058 234.976 90.2015 234.976 90.2015C234.969 91.5302 234.593 92.8308 233.891 93.9575C233.891 93.9575 234.461 97.006 234.649 96.9841Z" fill="#2C3BD1"/>
<path opacity="0.1" d="M198.378 102.505C198.378 102.505 185.076 92.5337 180.321 103.334C180.321 103.334 178.87 104.841 179.911 106.645C179.911 106.645 180.408 105.942 181.655 107.108C182.096 107.52 182.585 107.877 183.111 108.174C183.822 108.571 184.644 108.724 185.451 108.61C185.451 108.61 190.402 109.567 196.103 104.191C196.103 104.191 198.138 103.535 198.33 103.151L195.327 102.623C195.327 102.623 195.013 104.837 193.466 105.828C193.466 105.828 195.38 102.745 194.883 102.522C194.782 102.474 193.283 102.304 193.283 102.304C193.283 102.304 192.725 106.156 190.285 107.61C190.285 107.61 193.061 104.243 192.717 102.234L190.437 102.112C190.437 102.112 190.049 106.213 187.329 107.977C187.329 107.977 190.106 104.356 189.945 102.12L187.687 102.304C187.687 102.304 187.229 106.291 184.959 107.741C184.959 107.741 187.744 103.234 187.173 102.378C187.173 102.378 185.111 102.671 184.601 103.011C184.601 103.011 184.205 105.868 182.81 106.593C182.81 106.593 184.357 103.383 184.043 103.16C184.043 103.16 181.459 104.256 180.443 105.505C181.322 104.309 182.496 103.364 183.851 102.762C183.008 102.411 182.081 102.314 181.184 102.483C181.184 102.483 182.291 101.234 184.479 102.505C184.479 102.505 186.528 101.732 186.876 101.828C186.876 101.828 184.893 100.269 183.25 99.9977C183.25 99.9977 185.229 99.43 187.473 101.745L189.735 101.513C189.735 101.513 187.221 99.3295 185.778 98.9626C185.778 98.9626 187.883 98.6962 190.311 101.5L192.542 101.601C192.542 101.601 190.524 99.5391 189.003 98.7967C189.003 98.7967 191.004 98.9714 193.183 101.649L194.669 101.889C194.669 101.889 193.165 100.413 192.695 100.028C192.224 99.644 192.289 99.4824 192.289 99.4824C193.502 100.02 194.541 100.885 195.292 101.981C195.292 101.981 198.321 102.684 198.378 102.505Z" fill="#2C3BD1"/>
<path opacity="0.1" d="M242.663 9.86616C242.663 9.86616 229.361 -0.109152 224.606 10.696C224.606 10.696 223.155 12.2028 224.197 14.0065C224.197 14.0065 224.693 13.3034 225.94 14.4695C226.384 14.879 226.874 15.2351 227.4 15.5308C228.112 15.9283 228.934 16.0817 229.741 15.9675C229.741 15.9675 234.692 16.924 240.393 11.5433C240.393 11.5433 242.428 10.8925 242.615 10.5038L239.612 9.98408C239.612 9.98408 239.303 12.1984 237.751 13.1898C237.751 13.1898 239.669 10.1064 239.172 9.88363C239.072 9.83559 237.573 9.66526 237.573 9.66526C237.573 9.66526 236.997 13.5261 234.557 14.9717C234.557 14.9717 237.329 11.6044 236.989 9.59538L234.709 9.47309C234.709 9.47309 234.317 13.5741 231.602 15.3342C231.602 15.3342 234.378 11.7136 234.217 9.47746L231.963 9.66089C231.963 9.66089 231.501 13.6528 229.231 15.1028C229.231 15.1028 232.02 10.5955 231.449 9.73951C231.449 9.73951 229.388 10.0321 228.878 10.3728C228.878 10.3728 228.481 13.2291 227.086 13.9541C227.086 13.9541 228.634 10.744 228.32 10.5169C228.32 10.5169 225.735 11.6175 224.72 12.8666C225.597 11.6694 226.772 10.7236 228.128 10.1238C227.284 9.7701 226.355 9.6729 225.456 9.84433C225.456 9.84433 226.568 8.59523 228.756 9.86616C228.756 9.86616 230.804 9.08875 231.153 9.1892C231.153 9.1892 229.17 7.63002 227.526 7.35487C227.526 7.35487 229.501 6.79146 231.745 9.10186L234.007 8.87038C234.007 8.87038 231.497 6.68664 230.05 6.3154C230.05 6.3154 232.155 6.05336 234.587 8.85728L236.819 8.95336C236.819 8.95336 234.801 6.89191 233.275 6.15381C233.275 6.15381 235.28 6.32851 237.459 9.00577L238.941 9.24598C238.941 9.24598 237.433 7.78724 236.962 7.41164C236.492 7.03604 236.557 6.87008 236.557 6.87008C237.77 7.40753 238.81 8.27251 239.56 9.36827C239.56 9.36827 242.589 10.0321 242.663 9.86616Z" fill="#2C3BD1"/>
<path opacity="0.1" d="M293.491 22.5012C293.491 22.5012 288.174 6.73026 278.145 12.9277C278.145 12.9277 276.097 13.3645 275.936 15.4215C275.936 15.4215 276.742 15.1245 277.099 16.7842C277.232 17.3746 277.432 17.9476 277.696 18.4919C278.057 19.2244 278.644 19.8204 279.37 20.1908C279.37 20.1908 282.909 23.794 290.65 22.6017C290.65 22.6017 292.694 23.2219 293.068 23.0078L290.889 20.8634C290.889 20.8634 289.381 22.51 287.542 22.4444C287.542 22.4444 290.867 20.9944 290.593 20.5271C290.536 20.4354 289.399 19.444 289.399 19.444C289.399 19.444 286.757 22.2959 283.924 22.1081C283.924 22.1081 288.113 20.9115 288.967 19.0509L287.163 17.6577C287.163 17.6577 284.522 20.811 281.283 20.7149C281.283 20.7149 285.642 19.313 286.744 17.3738L284.783 16.2426C284.783 16.2426 282.168 19.2693 279.457 19.1732C279.457 19.1732 284.304 17.0462 284.317 16.0155C284.317 16.0155 282.456 15.0852 281.841 15.0765C281.841 15.0765 279.897 17.2035 278.354 17.0113C278.354 17.0113 281.44 15.2425 281.309 14.88C281.309 14.88 278.564 14.3166 277.016 14.7708C278.416 14.2825 279.918 14.1696 281.375 14.4432C280.877 13.6741 280.167 13.067 279.331 12.6962C279.331 12.6962 280.952 12.2988 282.037 14.5873C282.037 14.5873 284.164 15.1158 284.391 15.391C284.391 15.391 283.641 12.9845 282.443 11.8227C282.443 11.8227 284.391 12.4822 284.923 15.6749L286.919 16.7667C286.919 16.7667 286.095 13.5304 285.101 12.3992C285.101 12.3992 286.988 13.3776 287.398 17.0681L289.185 18.4176C289.185 18.4176 288.688 15.57 287.851 14.0938C287.851 14.0938 289.403 15.3779 289.682 18.8238L290.767 19.8633C290.767 19.8633 290.366 17.7931 290.201 17.2078C290.035 16.6226 290.17 16.5833 290.17 16.5833C290.863 17.7163 291.23 19.0193 291.229 20.3481C291.229 20.3481 293.339 22.6148 293.491 22.5012Z" fill="#2C3BD1"/>
<path opacity="0.1" d="M258.79 23.2786C258.79 23.2786 242.272 21.4356 243.636 33.1797C243.636 33.1797 243.143 35.215 244.943 36.2369C244.943 36.2369 245.017 35.3634 246.687 35.7565C247.277 35.8837 247.879 35.9438 248.482 35.9356C249.297 35.9208 250.085 35.6402 250.727 35.1363C250.727 35.1363 255.482 33.4461 257.7 25.9122C257.7 25.9122 259.121 24.3181 259.091 23.8857L256.236 24.9427C256.236 24.9427 257.108 27.0085 256.236 28.6506C256.236 28.6506 256.327 25.0213 255.8 25.078C255.691 25.078 254.314 25.707 254.314 25.707C254.314 25.707 255.778 29.3101 254.41 31.8214C254.41 31.8214 255.098 27.5064 253.787 25.9515L251.76 26.9997C251.76 26.9997 253.503 30.7339 252.043 33.6339C252.043 33.6339 252.61 29.1005 251.333 27.2618L249.48 28.572C249.48 28.572 251.102 32.2451 249.877 34.6515C249.877 34.6515 250.003 29.3494 249.075 28.8996C249.075 28.8996 247.445 30.2098 247.179 30.7514C247.179 30.7514 248.282 33.4156 247.449 34.7476C247.449 34.7476 247.157 31.1969 246.774 31.1619C246.774 31.1619 245.1 33.4199 244.856 35.014C245.007 33.5361 245.542 32.1236 246.408 30.9174C245.503 31.0426 244.655 31.4297 243.967 32.0311C243.967 32.0311 244.29 30.3933 246.817 30.3758C246.817 30.3758 248.19 28.6681 248.561 28.5764C248.561 28.5764 246.063 28.2401 244.507 28.8384C244.507 28.8384 245.924 27.3448 249.036 28.2139L250.871 26.8643C250.871 26.8643 247.554 26.1917 246.151 26.6285C246.151 26.6285 247.833 25.3183 251.346 26.5193L253.32 25.4667C253.32 25.4667 250.535 24.7155 248.848 24.8509C248.848 24.8509 250.666 23.9774 253.895 25.1872L255.299 24.6413C255.299 24.6413 253.255 24.1303 252.653 24.0342C252.052 23.9381 252.03 23.7722 252.03 23.7722C253.348 23.6207 254.681 23.8384 255.883 24.4011C255.883 24.4011 258.82 23.4621 258.79 23.2786Z" fill="#2C3BD1"/>
<path opacity="0.1" d="M403.315 151.757C403.315 151.757 386.805 149.914 388.169 161.645C388.169 161.645 387.676 163.68 389.477 164.702C389.477 164.702 389.551 163.828 391.22 164.217C391.809 164.349 392.412 164.409 393.016 164.396C393.831 164.384 394.62 164.103 395.26 163.597C395.26 163.597 400.015 161.907 402.212 154.377C402.212 154.377 403.633 152.779 403.602 152.351L400.747 153.403C400.747 153.403 401.619 155.473 400.747 157.116C400.747 157.116 400.839 153.482 400.312 153.543C400.203 153.543 398.825 154.168 398.825 154.168C398.825 154.168 400.29 157.771 398.921 160.282C398.921 160.282 399.61 155.971 398.298 154.412L396.271 155.465C396.271 155.465 398.015 159.199 396.559 162.099C396.559 162.099 397.121 157.565 395.844 155.722L393.992 157.033C393.992 157.033 395.613 160.706 394.388 163.108C394.388 163.108 394.515 157.806 393.587 157.36C393.587 157.36 391.961 158.67 391.691 159.212C391.691 159.212 392.798 161.876 391.961 163.208C391.961 163.208 391.669 159.657 391.285 159.623C391.285 159.623 389.612 161.88 389.368 163.475C389.519 161.997 390.054 160.584 390.919 159.378C390.014 159.501 389.165 159.888 388.478 160.492C388.478 160.492 388.801 158.849 391.329 158.832C391.329 158.832 392.706 157.124 393.072 157.037C393.072 157.037 390.575 156.696 389.019 157.295C389.019 157.295 390.435 155.805 393.552 156.674L395.382 155.325C395.382 155.325 392.105 154.705 390.679 155.133C390.679 155.133 392.362 153.822 395.875 155.019L397.849 153.971C397.849 153.971 395.064 153.22 393.377 153.355C393.377 153.355 395.195 152.482 398.424 153.691L399.828 153.141C399.828 153.141 397.784 152.63 397.182 152.538C396.581 152.447 396.559 152.276 396.559 152.276C397.876 152.122 399.21 152.338 400.412 152.901C400.412 152.901 403.358 151.944 403.315 151.757Z" fill="#2C3BD1"/>
<path opacity="0.1" d="M428.555 167.209C428.555 167.209 412.045 165.37 413.409 177.097C413.409 177.097 412.921 179.132 414.717 180.154C414.717 180.154 414.791 179.28 416.46 179.674C417.048 179.802 417.65 179.86 418.251 179.848C419.063 179.832 419.847 179.553 420.487 179.053C420.487 179.053 425.238 177.363 427.435 169.829C427.435 169.829 428.86 168.235 428.825 167.803L425.97 168.855C425.97 168.855 426.842 170.926 425.97 172.568C425.97 172.568 426.062 168.938 425.534 168.995C425.425 168.995 424.048 169.62 424.048 169.62C424.048 169.62 425.513 173.223 424.144 175.734C424.144 175.734 424.833 171.423 423.521 169.869L421.494 170.917C421.494 170.917 423.237 174.651 421.782 177.551C421.782 177.551 422.344 173.018 421.067 171.179L419.215 172.489C419.215 172.489 420.836 176.162 419.616 178.569C419.616 178.569 419.738 173.262 418.809 172.817C418.809 172.817 417.184 174.127 416.913 174.668C416.913 174.668 418.02 177.333 417.184 178.665C417.184 178.665 416.892 175.114 416.508 175.079C416.508 175.079 414.834 177.337 414.595 178.931C414.746 177.454 415.279 176.042 416.142 174.834C415.238 174.96 414.389 175.347 413.701 175.948C413.701 175.948 414.028 174.306 416.556 174.293C416.556 174.293 417.929 172.585 418.299 172.493C418.299 172.493 415.802 172.157 414.246 172.755C414.246 172.755 415.663 171.262 418.779 172.131L420.609 170.781C420.609 170.781 417.332 170.161 415.907 170.589C415.907 170.589 417.589 169.279 421.102 170.48L423.076 169.427C423.076 169.427 420.291 168.676 418.604 168.812C418.604 168.812 420.422 167.938 423.652 169.148L425.055 168.602C425.055 168.602 423.011 168.091 422.414 167.995C421.817 167.899 421.786 167.733 421.786 167.733C423.104 167.581 424.437 167.799 425.639 168.362C425.639 168.362 428.598 167.397 428.555 167.209Z" fill="#2C3BD1"/>
<path opacity="0.1" d="M372.519 37.0537C372.519 37.0537 359.217 27.0827 354.462 37.8835C354.462 37.8835 353.01 39.3903 354.052 41.194C354.052 41.194 354.549 40.4909 355.795 41.657C356.237 42.0686 356.726 42.4263 357.251 42.7227C357.963 43.1195 358.785 43.2729 359.592 43.1594C359.592 43.1594 364.543 44.1159 370.248 38.7395C370.248 38.7395 372.279 38.0844 372.471 37.7001L369.477 37.1585C369.477 37.1585 369.163 39.3728 367.615 40.3642C367.615 40.3642 369.529 37.2808 369.032 37.058C368.932 37.01 367.437 36.8397 367.437 36.8397C367.437 36.8397 366.875 40.6918 364.434 42.1462C364.434 42.1462 367.21 38.7788 366.866 36.7698L364.586 36.6475C364.586 36.6475 364.198 40.7486 361.479 42.513C361.479 42.513 364.259 38.8924 364.094 36.6562L361.836 36.8397C361.836 36.8397 361.4 40.8272 359.108 42.2772C359.108 42.2772 361.897 37.7699 361.322 36.9139C361.322 36.9139 359.26 37.2065 358.75 37.5472C358.75 37.5472 358.358 40.4035 356.964 41.1285C356.964 41.1285 358.506 37.9184 358.193 37.6957C358.193 37.6957 355.608 38.7919 354.593 40.041C355.471 38.8451 356.646 37.8996 358.001 37.2983C357.158 36.9471 356.231 36.85 355.333 37.0187C355.333 37.0187 356.445 35.7696 358.633 37.0406C358.633 37.0406 360.677 36.2675 361.026 36.3636C361.026 36.3636 359.042 34.8044 357.399 34.5336C357.399 34.5336 359.378 33.9659 361.623 36.2806L363.885 36.0492C363.885 36.0492 361.374 33.8654 359.927 33.4986C359.927 33.4986 362.032 33.2321 364.46 36.0361L366.696 36.1365C366.696 36.1365 364.674 34.0751 363.152 33.3326C363.152 33.3326 365.157 33.5073 367.332 36.1846L368.818 36.4248C368.818 36.4248 367.315 34.9486 366.844 34.5642C366.373 34.1799 366.443 34.0532 366.443 34.0532C367.654 34.5921 368.692 35.4569 369.442 36.5514C369.442 36.5514 372.462 37.2327 372.519 37.0537Z" fill="#2C3BD1"/>
<path opacity="0.1" d="M382.795 109.038C382.795 109.038 378.21 93.0403 367.898 98.7836C367.898 98.7836 365.832 99.1024 365.575 101.173C365.575 101.173 366.395 100.915 366.678 102.588C366.783 103.189 366.958 103.775 367.201 104.335C367.524 105.087 368.084 105.713 368.796 106.117C368.796 106.117 372.169 109.873 379.954 109.034C379.954 109.034 381.967 109.742 382.351 109.549L380.289 107.305C380.289 107.305 378.707 108.886 376.877 108.737C376.877 108.737 380.259 107.427 379.997 106.959C379.945 106.863 378.855 105.82 378.855 105.82C378.855 105.82 376.092 108.554 373.268 108.235C373.268 108.235 377.509 107.23 378.441 105.422L376.698 103.946C376.698 103.946 373.917 106.977 370.688 106.741C370.688 106.741 375.081 105.531 376.293 103.649L374.384 102.43C374.384 102.43 371.616 105.335 368.931 105.116C368.931 105.116 373.869 103.208 373.93 102.181C373.93 102.181 372.108 101.168 371.494 101.133C371.494 101.133 369.459 103.169 367.911 102.906C367.911 102.906 371.076 101.277 370.962 100.911C370.962 100.911 368.243 100.225 366.678 100.605C368.095 100.184 369.597 100.14 371.036 100.478C370.575 99.6879 369.894 99.0502 369.075 98.6438C369.075 98.6438 370.714 98.3163 371.69 100.653C371.69 100.653 373.786 101.273 374.004 101.561C374.004 101.561 373.364 99.1199 372.217 97.9101C372.217 97.9101 374.135 98.6526 374.523 101.867L376.467 103.051C376.467 103.051 375.787 99.775 374.846 98.622C374.846 98.622 376.685 99.6833 376.933 103.387L378.677 104.815C378.677 104.815 378.306 101.95 377.539 100.448C377.539 100.448 379.034 101.802 379.156 105.252L380.193 106.344C380.193 106.344 379.888 104.256 379.757 103.662C379.627 103.068 379.757 102.985 379.757 102.985C380.402 104.147 380.712 105.466 380.651 106.794C380.651 106.794 382.638 109.143 382.795 109.038Z" fill="#2C3BD1"/>
<path opacity="0.1" d="M280.626 145.088C280.626 145.088 271.722 131.033 263.454 139.445C263.454 139.445 261.562 140.318 261.893 142.393C261.893 142.393 262.613 141.912 263.353 143.441C263.62 143.983 263.95 144.49 264.338 144.952C264.858 145.583 265.57 146.025 266.365 146.21C266.365 146.21 270.658 148.865 277.893 145.861C277.893 145.861 280.024 145.974 280.338 145.682L277.723 144.109C277.723 144.109 276.647 146.075 274.847 146.446C274.847 146.446 277.732 144.262 277.344 143.86C277.27 143.782 275.928 143.092 275.928 143.092C275.928 143.092 274.04 146.49 271.242 146.983C271.242 146.983 275.03 144.821 275.422 142.821L273.334 141.899C273.334 141.899 271.517 145.59 268.353 146.267C268.353 146.267 272.232 143.869 272.864 141.72L270.684 141.091C270.684 141.091 268.845 144.66 266.208 145.205C266.208 145.205 270.41 141.982 270.179 140.978C270.179 140.978 268.148 140.519 267.564 140.659C267.564 140.659 266.182 143.188 264.622 143.371C264.622 143.371 267.202 140.917 266.988 140.593C266.988 140.593 264.186 140.703 262.791 141.511C264.035 140.703 265.469 140.236 266.949 140.157C266.286 139.528 265.455 139.108 264.556 138.947C264.556 138.947 266.034 138.174 267.607 140.139C267.607 140.139 269.787 140.139 270.087 140.358C270.087 140.358 268.78 138.174 267.346 137.357C267.346 137.357 269.394 137.532 270.667 140.506L272.868 141.091C272.868 141.091 271.295 138.143 270.07 137.3C270.07 137.3 272.131 137.798 273.408 141.288L275.466 142.161C275.466 142.161 274.306 139.519 273.143 138.283C273.143 138.283 274.956 139.157 276.041 142.436L277.348 143.192C277.348 143.192 276.477 141.275 276.167 140.746C275.858 140.218 275.98 140.096 275.98 140.096C276.923 141.029 277.588 142.207 277.902 143.498C277.902 143.498 280.508 145.236 280.626 145.088Z" fill="#2C3BD1"/>
<path d="M339.146 73.2775C339.146 73.2775 330.678 58.9565 322.148 67.1063C322.148 67.1063 320.23 67.9361 320.501 70.0063C320.501 70.0063 321.229 69.5433 321.926 71.0938C322.175 71.6449 322.49 72.164 322.863 72.6399C323.363 73.2839 324.062 73.7445 324.85 73.9501C324.85 73.9501 329.056 76.7366 336.383 73.9501C336.383 73.9501 338.51 74.1292 338.832 73.8453L336.274 72.1944C336.274 72.1944 335.141 74.1204 333.328 74.4393C333.328 74.4393 336.278 72.3298 335.908 71.9323C335.829 71.8493 334.513 71.1156 334.513 71.1156C334.513 71.1156 332.521 74.4567 329.719 74.8629C329.719 74.8629 333.572 72.8189 334.02 70.8361L331.963 69.8665C331.963 69.8665 330.033 73.5046 326.847 74.0855C326.847 74.0855 330.8 71.81 331.497 69.6831L329.344 68.9843C329.344 68.9843 327.391 72.4783 324.741 72.9587C324.741 72.9587 329.039 69.8665 328.838 68.8576C328.838 68.8576 326.825 68.3335 326.223 68.4558C326.223 68.4558 324.763 70.9409 323.199 71.0763C323.199 71.0763 325.853 68.7091 325.652 68.3772C325.652 68.3772 322.846 68.399 321.429 69.1633C322.698 68.3964 324.145 67.9748 325.626 67.9404C324.982 67.2912 324.162 66.8449 323.268 66.6564C323.268 66.6564 324.772 65.927 326.319 67.9404C326.319 67.9404 328.498 68.0147 328.79 68.2374C328.79 68.2374 327.557 66.0537 326.145 65.154C326.145 65.154 328.185 65.3898 329.366 68.4034L331.545 69.0585C331.545 69.0585 330.067 66.0624 328.865 65.1802C328.865 65.1802 330.913 65.7436 332.081 69.2682L334.108 70.2159C334.108 70.2159 333.031 67.5386 331.928 66.2852C331.928 66.2852 333.711 67.2154 334.7 70.526L335.977 71.3209C335.977 71.3209 335.158 69.3773 334.87 68.8401C334.583 68.3029 334.705 68.185 334.705 68.185C335.618 69.1473 336.248 70.3447 336.522 71.6441C336.522 71.6441 339.02 73.4216 339.146 73.2775Z" fill="#2C3BD1"/>
<path d="M285.568 103.391C285.568 103.391 286.004 86.7512 274.467 89.0965C274.467 89.0965 272.401 88.7777 271.529 90.6732C271.529 90.6732 272.401 90.6732 272.157 92.3546C272.077 92.9542 272.068 93.5612 272.131 94.1628C272.21 94.9788 272.554 95.7462 273.111 96.3465C273.111 96.3465 275.19 100.95 282.866 102.513C282.866 102.513 284.57 103.802 284.997 103.732L283.689 100.972C283.689 100.972 281.706 101.994 280.002 101.299C280.002 101.299 283.62 101.085 283.519 100.552C283.519 100.443 282.77 99.1155 282.77 99.1155C282.77 99.1155 279.309 100.884 276.716 99.7226C276.716 99.7226 281.074 100.05 282.499 98.6133L281.283 96.6785C281.283 96.6785 277.718 98.7224 274.711 97.517C274.711 97.517 279.265 97.7004 280.991 96.2723L279.54 94.5253C279.54 94.5253 276.023 96.4557 273.53 95.4337C273.53 95.4337 278.812 95.1149 279.196 94.1497C279.196 94.1497 277.766 92.6342 277.191 92.4027C277.191 92.4027 274.637 93.7129 273.242 93.0054C273.242 93.0054 276.729 92.4202 276.751 92.0315C276.751 92.0315 274.367 90.5509 272.758 90.4417C274.241 90.4683 275.692 90.8839 276.964 91.6471C276.766 90.7544 276.311 89.9393 275.657 89.3018C275.657 89.3018 277.317 89.4896 277.544 92.0096C277.544 92.0096 279.361 93.2412 279.479 93.5819C279.479 93.5819 279.605 91.0619 278.878 89.5595C278.878 89.5595 280.481 90.8479 279.88 94.0274L281.375 95.7482C281.375 95.7482 281.715 92.4202 281.17 91.0357C281.17 91.0357 282.6 92.6036 281.719 96.2111L282.927 98.0935C282.927 98.0935 283.441 95.2503 283.166 93.5776C283.166 93.5776 284.177 95.3245 283.253 98.6482L283.916 100.002C283.916 100.002 284.252 97.9188 284.295 97.3117C284.339 96.7047 284.504 96.6653 284.504 96.6653C284.767 97.9682 284.663 99.3185 284.204 100.566C284.204 100.566 285.376 103.448 285.568 103.391Z" fill="#2C3BD1"/>
<path opacity="0.1" d="M304.641 314.829C311.123 314.829 316.378 313.94 316.378 312.842C316.378 311.745 311.123 310.855 304.641 310.855C298.158 310.855 292.903 311.745 292.903 312.842C292.903 313.94 298.158 314.829 304.641 314.829Z" fill="#2C3BD1"/>
<path opacity="0.1" d="M261.853 345C268.336 345 273.591 344.11 273.591 343.013C273.591 341.915 268.336 341.026 261.853 341.026C255.371 341.026 250.116 341.915 250.116 343.013C250.116 344.11 255.371 345 261.853 345Z" fill="#2C3BD1"/>
<path opacity="0.1" d="M40.5947 329.543C47.0769 329.543 52.3319 328.654 52.3319 327.556C52.3319 326.459 47.0769 325.569 40.5947 325.569C34.1124 325.569 28.8574 326.459 28.8574 327.556C28.8574 328.654 34.1124 329.543 40.5947 329.543Z" fill="#2C3BD1"/>
<path opacity="0.1" d="M350.879 343.013C357.361 343.013 362.616 342.123 362.616 341.026C362.616 339.928 357.361 339.038 350.879 339.038C344.397 339.038 339.142 339.928 339.142 341.026C339.142 342.123 344.397 343.013 350.879 343.013Z" fill="#2C3BD1"/>
<path d="M363.1 318.782C372.779 318.782 380.626 317.452 380.626 315.812C380.626 314.172 372.779 312.842 363.1 312.842C353.421 312.842 345.575 314.172 345.575 315.812C345.575 317.452 353.421 318.782 363.1 318.782Z" fill="#2C3BD1"/>
<path d="M370.365 310.951C371.166 310.3 371.748 309.419 372.035 308.427C372.253 307.422 371.826 306.221 370.871 305.854C369.799 305.444 368.653 306.186 367.781 306.937C366.909 307.689 365.92 308.549 364.782 308.392C365.366 307.86 365.803 307.186 366.051 306.436C366.298 305.685 366.348 304.883 366.194 304.107C366.145 303.786 366.01 303.484 365.802 303.234C365.205 302.596 364.129 302.871 363.414 303.374C361.147 304.972 360.515 308.056 360.502 310.833C360.276 309.833 360.468 308.789 360.463 307.776C360.459 306.763 360.175 305.592 359.308 305.059C358.776 304.762 358.174 304.611 357.565 304.623C356.545 304.588 355.407 304.688 354.714 305.435C353.843 306.361 354.074 307.92 354.823 308.929C355.573 309.938 356.719 310.589 357.774 311.296C358.618 311.801 359.339 312.489 359.883 313.31C359.946 313.424 359.997 313.544 360.036 313.668H366.425C367.856 312.946 369.181 312.032 370.365 310.951Z" fill="#2C3BD1"/>
<path d="M32.7148 318.319C32.7148 318.319 39.405 318.114 41.4317 316.673C43.4583 315.231 51.7306 313.515 52.2319 315.825C52.7331 318.136 62.2911 327.307 54.7336 327.368C47.1761 327.43 37.1735 326.189 35.1599 324.958C33.1463 323.726 32.7148 318.319 32.7148 318.319Z" fill="#A8A8A8"/>
<path opacity="0.2" d="M54.86 326.565C47.3025 326.626 37.2999 325.386 35.2863 324.154C33.7522 323.219 33.142 319.861 32.9371 318.31H32.7148C32.7148 318.31 33.1507 323.722 35.1512 324.949C37.1517 326.176 47.1674 327.421 54.7249 327.36C56.9041 327.36 57.6581 326.565 57.6188 325.412C57.3138 326.115 56.4813 326.552 54.86 326.565Z" fill="black"/>
</g>
<defs>
<linearGradient id="paint0_linear_691_1977" x1="97.1888" y1="189.295" x2="233.228" y2="189.295" gradientUnits="userSpaceOnUse">
<stop stop-color="#808080" stop-opacity="0.25"/>
<stop offset="0.54" stop-color="#808080" stop-opacity="0.12"/>
<stop offset="1" stop-color="#808080" stop-opacity="0.1"/>
</linearGradient>
<clipPath id="clip0_691_1977">
<rect width="440" height="345" fill="white"/>
</clipPath>
</defs>
</svg>
