<svg width="34" height="18" viewBox="0 0 34 18" fill="none" xmlns="http://www.w3.org/2000/svg">
<g clip-path="url(#clip0_1239:2333)">
<path d="M22.667 0.5H8.50033L1.41699 9V13.25H4.25033C4.25033 14.3772 4.69809 15.4582 5.49512 16.2552C6.29215 17.0522 7.37316 17.5 8.50033 17.5C9.6275 17.5 10.7085 17.0522 11.5055 16.2552C12.3026 15.4582 12.7503 14.3772 12.7503 13.25H21.2503C21.2503 14.3772 21.6981 15.4582 22.4951 16.2552C23.2922 17.0522 24.3732 17.5 25.5003 17.5C26.6275 17.5 27.7085 17.0522 28.5055 16.2552C29.3026 15.4582 29.7503 14.3772 29.7503 13.25H32.5837V9C32.5837 7.4275 31.3228 6.16667 29.7503 6.16667H26.917L22.667 0.5ZM9.20866 2.625H14.8753V6.16667H6.37533L9.20866 2.625ZM17.0003 2.625H21.9587L24.7353 6.16667H17.0003V2.625ZM8.50033 11.125C9.06391 11.125 9.60441 11.3489 10.0029 11.7474C10.4014 12.1459 10.6253 12.6864 10.6253 13.25C10.6253 13.8136 10.4014 14.3541 10.0029 14.7526C9.60441 15.1511 9.06391 15.375 8.50033 15.375C7.93674 15.375 7.39624 15.1511 6.99772 14.7526C6.59921 14.3541 6.37533 13.8136 6.37533 13.25C6.37533 12.6864 6.59921 12.1459 6.99772 11.7474C7.39624 11.3489 7.93674 11.125 8.50033 11.125V11.125ZM25.5003 11.125C26.0639 11.125 26.6044 11.3489 27.0029 11.7474C27.4014 12.1459 27.6253 12.6864 27.6253 13.25C27.6253 13.8136 27.4014 14.3541 27.0029 14.7526C26.6044 15.1511 26.0639 15.375 25.5003 15.375C24.9367 15.375 24.3962 15.1511 23.9977 14.7526C23.5992 14.3541 23.3753 13.8136 23.3753 13.25C23.3753 12.6864 23.5992 12.1459 23.9977 11.7474C24.3962 11.3489 24.9367 11.125 25.5003 11.125Z" fill="#393D60"/>
</g>
<defs>
<clipPath id="clip0_1239:2333">
<rect width="34" height="17" fill="white" transform="translate(0 0.5)"/>
</clipPath>
</defs>
</svg>
