<svg width="542" height="289" viewBox="0 0 542 289" fill="none" xmlns="http://www.w3.org/2000/svg">
<g clip-path="url(#clip0)">
<path opacity="0.1" d="M271 289C420.669 289 542 251.118 542 204.387C542 157.657 420.669 119.775 271 119.775C121.331 119.775 0 157.657 0 204.387C0 251.118 121.331 289 271 289Z" fill="#2C3BD1"/>
<g opacity="0.8">
<path opacity="0.8" d="M196.945 17.2274C201.54 23.6749 205.064 42.452 206.047 48.1102L214.259 47.9425C213.834 43.0814 204.28 23.3091 201.625 17.884C200.147 17.6521 198.569 17.4256 196.945 17.2274Z" fill="#65617D"/>
<path opacity="0.8" d="M94.4522 13.0324L94.3555 18.1604L97.993 18.2292L98.0897 13.1012L94.4522 13.0324Z" fill="#DCE0ED"/>
<path opacity="0.1" d="M94.4524 13.0325L94.4209 14.7021C94.6765 14.7805 94.9421 14.8215 95.2094 14.8239L98.0568 14.8534L98.0899 13.1012L94.4524 13.0325Z" fill="black"/>
<path opacity="0.8" d="M99.8719 0.0656337L96.4375 0.000721054C95.6173 -0.0146248 94.8111 0.215286 94.1222 0.661044C93.4333 1.1068 92.893 1.74813 92.5703 2.50296C91.5176 4.96175 90.592 8.88574 92.7555 12.8575C92.9972 13.3013 93.3528 13.6725 93.7856 13.9329C94.2184 14.1932 94.7128 14.3334 95.2178 14.3388L99.6017 14.3841L99.8719 0.0656337Z" fill="#DCE0ED"/>
<path opacity="0.8" d="M103.415 7.29438C103.489 3.34044 101.903 0.104019 99.872 0.065626C97.8407 0.0272332 96.1336 3.20141 96.0589 7.15534C95.9843 11.1093 97.5705 14.3457 99.6017 14.3841C101.633 14.4225 103.34 11.2483 103.415 7.29438Z" fill="#F0F0F4"/>
<path opacity="0.8" d="M126.764 13.7039L126.68 18.1935L130.317 18.2623L130.402 13.7726L126.764 13.7039Z" fill="#DCE0ED"/>
<path opacity="0.1" d="M126.764 13.7039L126.737 15.1309C126.993 15.2092 127.259 15.2502 127.526 15.2526L130.373 15.2821L130.402 13.7726L126.764 13.7039Z" fill="black"/>
<path opacity="0.8" d="M132.183 0.73702L128.749 0.672108C127.929 0.656763 127.123 0.886679 126.434 1.33244C125.745 1.7782 125.204 2.41952 124.882 3.17435C123.829 5.63314 122.904 9.55713 125.067 13.5289C125.309 13.9727 125.664 14.3439 126.097 14.6042C126.53 14.8646 127.024 15.0048 127.529 15.0102L131.913 15.0555L132.183 0.73702Z" fill="#DCE0ED"/>
<path opacity="0.8" d="M135.726 7.96575C135.801 4.01182 134.215 0.775413 132.183 0.737027C130.152 0.69864 128.445 3.87281 128.37 7.82674C128.296 11.7807 129.882 15.0171 131.913 15.0555C133.945 15.0939 135.652 11.9197 135.726 7.96575Z" fill="#F0F0F4"/>
<path opacity="0.8" d="M131.217 3.33655C131.217 3.33655 132.57 3.57943 131.83 5.35829C131.44 6.22219 131.149 7.12815 130.965 8.05836C130.965 8.05836 129.595 8.73873 129.694 6.40446C129.792 4.0702 131.217 3.33655 131.217 3.33655Z" fill="#DCE0ED"/>
<path opacity="0.8" d="M288.597 108.652C288.843 95.651 279.433 84.9299 267.58 84.7059C255.728 84.4819 245.92 94.8397 245.675 107.841C245.429 120.842 254.839 131.563 266.692 131.787C278.544 132.011 288.352 121.653 288.597 108.652Z" fill="#636780"/>
<path opacity="0.1" d="M259.51 86.0223C270.727 86.9906 279.43 97.3873 279.194 109.897C279.003 119.98 273.061 128.472 264.874 131.672C253.657 130.703 244.954 120.307 245.19 107.797C245.381 97.7141 251.323 89.2222 259.51 86.0223Z" fill="black"/>
<path opacity="0.8" d="M117.554 53.9514C117.791 41.3971 110.184 31.0724 100.564 30.8906C90.9431 30.7087 82.9521 40.7386 82.7151 53.2929C82.4782 65.8472 90.0851 76.1719 99.7057 76.3537C109.326 76.5356 117.317 66.5057 117.554 53.9514Z" fill="#636780"/>
<path opacity="0.1" d="M105.415 31.9348C112.587 34.8421 117.697 43.6571 117.503 53.9816C117.294 65.0147 111.097 74.0968 103.068 76.0127C95.8958 73.1053 90.7852 64.2903 90.98 53.9658C91.1882 42.9327 97.3857 33.8506 105.415 31.9348Z" fill="black"/>
<path opacity="0.8" d="M165.661 50.0052L165.493 41.7478C165.493 41.7478 167.177 38.219 168.8 37.926C170.423 37.6329 174.145 37.501 174.145 37.501C174.145 37.501 176.831 49.4071 174.824 52.9299C172.817 56.4526 165.661 50.0052 165.661 50.0052Z" fill="#65617D"/>
<path opacity="0.1" d="M165.661 50.0052L165.493 41.7478C165.493 41.7478 167.177 38.219 168.8 37.926C170.423 37.6329 174.145 37.501 174.145 37.501C174.145 37.501 176.831 49.4071 174.824 52.9299C172.817 56.4526 165.661 50.0052 165.661 50.0052Z" fill="black"/>
<path opacity="0.8" d="M195.506 49.6791C195.506 49.6791 196.724 38.2567 190.444 37.9321C189.636 37.8903 188.828 37.8556 188.024 37.7623C183.677 37.258 171.818 36.1165 173.19 38.8586C173.19 38.8586 175.831 48.8622 173.844 51.3332L195.506 49.6791Z" fill="#65617D"/>
<path opacity="0.8" d="M106.067 69.211L97.6357 69.2944C97.6357 69.2944 96.4738 53.735 96.0117 52.5124C95.5496 51.2898 95.417 45.4608 97.0093 44.6412C98.6015 43.8216 103.895 42.8898 103.895 42.8898L107.608 51.8212L107.76 59.8355L106.067 69.211Z" fill="#65617D"/>
<path opacity="0.1" d="M106.067 69.211L97.6357 69.2944C97.6357 69.2944 96.4738 53.735 96.0117 52.5124C95.5496 51.2898 95.417 45.4608 97.0093 44.6412C98.6015 43.8216 103.895 42.8898 103.895 42.8898L107.608 51.8212L107.76 59.8355L106.067 69.211Z" fill="black"/>
<path opacity="0.8" d="M126.923 43.8107L126.994 42.0817C126.999 41.9453 126.977 41.8093 126.928 41.682C126.879 41.5547 126.804 41.4388 126.708 41.3415C126.613 41.2442 126.498 41.1676 126.372 41.1163C126.246 41.065 126.11 41.0402 125.974 41.0434C121.794 41.1409 106.583 41.5821 103.895 42.8898C103.895 42.8898 106.396 64.6046 103.086 69.7009L103.85 87.0736L141.126 84.9863L126.923 43.8107Z" fill="#65617D"/>
<path opacity="0.1" d="M130.35 16.5125C129.319 16.3911 128.092 16.2562 126.719 16.1234L126.68 18.1935L130.317 18.2623L130.35 16.5125Z" fill="black"/>
<path opacity="0.1" d="M94.3604 17.8982L94.3555 18.1603L97.993 18.2291L98.0227 16.6541C96.7549 16.9145 95.5246 17.3325 94.3604 17.8982Z" fill="black"/>
<path opacity="0.8" d="M75.1377 69.1725L80.6336 69.3565L92.3824 48.9137L94.3437 45.501L93.0534 36.7371L91.8959 38.8323L75.1377 69.1725Z" fill="#DCE0ED"/>
<path opacity="0.8" d="M125.33 44.7103L127.529 48.1508L134.467 39.1245L137.643 34.9892L135.83 32.4475L134.374 34.1483L125.33 44.7103Z" fill="#DCE0ED"/>
<path opacity="0.1" d="M134.374 34.1483C134.361 34.3228 134.348 34.5022 134.332 34.684L134.467 39.1244L137.642 34.9894L135.83 32.4473L134.374 34.1483Z" fill="black"/>
<path opacity="0.1" d="M91.8965 38.8323L92.383 48.9137L94.3442 45.501L93.0539 36.7371L91.8965 38.8323Z" fill="black"/>
<path opacity="0.8" d="M140.688 40.7124C140.688 40.7124 143.785 20.4741 133.962 17.2537C133.836 17.2132 133.706 17.184 133.575 17.1664C131.306 16.8487 110.155 14.0022 99.093 16.7009C99.093 16.7009 91.5541 17.6914 91.5586 21.7377L93.94 71.2273L99.3558 71.3297L98.1942 38.6144C98.1942 38.6144 95.8763 24.3279 100.179 23.4382C104.481 22.5484 123.993 21.2987 130.827 23.37C130.827 23.37 135.86 22.3322 134.818 34.6939L135.016 41.3335L140.688 40.7124Z" fill="#DCE0ED"/>
<path opacity="0.8" d="M124.085 46.4275C124.05 45.8912 124.153 45.3549 124.386 44.8703C124.618 44.3857 124.971 43.9691 125.411 43.6607C126.948 42.5366 131.663 40.1373 131.663 40.1373L133.176 40.2873L137.51 51.6581L136.755 75.6176L128.379 85.595L124.085 46.4275Z" fill="#65617D"/>
<path opacity="0.1" d="M124.085 46.4275C124.05 45.8912 124.153 45.3549 124.386 44.8703C124.618 44.3857 124.971 43.9691 125.411 43.6607C126.948 42.5366 131.663 40.1373 131.663 40.1373L133.176 40.2873L137.51 51.6581L136.755 75.6176L128.379 85.595L124.085 46.4275Z" fill="black"/>
<path opacity="0.8" d="M156.267 72.1627L156.569 47.5675C156.569 47.5675 157.477 38.0356 151.781 37.7661C151.781 37.7661 138.339 37.61 132.465 39.3968C132.28 39.4527 132.109 39.5492 131.966 39.6793C131.822 39.8095 131.709 39.97 131.636 40.1491C131.562 40.3283 131.529 40.5217 131.539 40.7153C131.549 40.9089 131.602 41.0977 131.694 41.2682C132.819 43.3155 134.678 48.713 135.365 62.4816L135.086 77.2248L156.267 72.1627Z" fill="#65617D"/>
<path opacity="0.8" d="M127.618 87.3405L152.083 87.2324L152.107 87.2329L164.13 87.1813L163.039 71.0768L156.366 71.1937L135.058 75.5247L128.379 85.595L127.618 87.3405Z" fill="#65617D"/>
<path opacity="0.1" d="M127.618 87.3405L152.083 87.2324L152.107 87.2329L164.13 87.1813L163.039 71.0768L156.366 71.1937L135.058 75.5247L128.379 85.595L127.618 87.3405Z" fill="black"/>
<path opacity="0.8" d="M127.618 87.3405L152.083 87.2324L152.688 76.4649L135.058 75.5247L128.379 85.595L127.618 87.3405Z" fill="#65617D"/>
<path opacity="0.1" d="M152.107 87.2331L164.131 87.1812L163.04 71.0769C163.04 71.0769 159.168 77.0123 152.689 76.465L152.107 87.2331Z" fill="white"/>
<path opacity="0.8" d="M65.6066 98.6108C66.0046 103.231 69.2921 102.565 69.2921 102.565L69.9043 102.521L75.9723 102.084L75.8649 94.9203C73.8115 94.7634 71.7467 94.8482 69.713 95.173C67.4319 95.6009 65.4295 96.5584 65.6066 98.6108Z" fill="#DCE0ED"/>
<path opacity="0.1" d="M65.6066 98.6108C66.0046 103.231 69.2921 102.565 69.2921 102.565L69.9043 102.52C70.5805 101.499 70.9391 100.301 70.9348 99.0756C71.012 97.6698 70.578 96.2834 69.713 95.173C67.4319 95.6009 65.4295 96.5584 65.6066 98.6108Z" fill="black"/>
<path opacity="0.8" d="M150.154 53.3132C150.012 60.7967 154.386 66.948 159.921 67.0526C165.457 67.1573 170.059 61.1756 170.2 53.6921C170.342 46.2087 165.969 40.0573 160.433 39.9527C154.897 39.8481 150.295 45.8298 150.154 53.3132ZM153.936 54.2749C154.039 48.8466 157.542 44.5107 161.76 44.5905C165.979 44.6702 169.316 49.1353 169.214 54.5636C169.111 59.9919 165.608 64.3278 161.389 64.248C157.171 64.1683 153.834 59.7032 153.936 54.2749V54.2749Z" fill="#636780"/>
<path opacity="0.8" d="M159.614 57.6596L154.838 62.182L153.219 58.0243L160.084 54.1889L159.614 57.6596Z" fill="#636780"/>
<path opacity="0.8" d="M153.563 11.8922L149.472 12.3124L147.924 14.0843L150.025 24.4661L154.588 41.2148L157.573 52.7107L159.694 59.6973L160.955 68.9145L162.271 75.2594L166.494 79.6484L175.441 69.4754L176.941 66.0563L180.518 59.0858L171.7 54.7533L161.96 53.7074L157.591 41.8463L154.118 28.1345L153.563 11.8922Z" fill="#2C3BD1"/>
<path opacity="0.8" d="M235.205 62.7298L239.694 107.647L172.575 103.546L180.75 81.689L193.843 73.5201L164.248 73.4466L164.319 61.1473L176.331 58.7848L200.456 57.2988L218.577 56.8318L235.769 62.8218" fill="#65617D"/>
<path opacity="0.1" d="M235.205 62.7298L239.694 107.647L172.575 103.546L180.75 81.689L193.843 73.5201L164.248 73.4466L164.319 61.1473L176.331 58.7848L200.456 57.2988L218.577 56.8318L235.769 62.8218" fill="black"/>
<path opacity="0.8" d="M142.591 105.659C142.381 116.796 145.886 127.004 156.167 126.088C169.112 126.055 170.294 117.324 170.504 106.187C170.714 95.0503 164.622 86.6442 156.914 86.4985C149.206 86.3528 142.801 94.5228 142.591 105.659Z" fill="#636780"/>
<path opacity="0.1" d="M142.51 105.677C142.673 97.0547 146.549 90.2121 151.868 87.6287C158.609 89.0441 163.663 96.9304 163.472 107.091C163.299 116.217 162.473 123.727 155.056 126.159C145.571 126.321 142.307 116.433 142.51 105.677Z" fill="black"/>
<path opacity="0.8" d="M129.737 87.9316L133.597 92.529L126.518 91.1744L121.302 86.1919L116.746 76.6256L110.151 72.407L93.7521 74.3235L78.6038 74.6118L73.1094 69.5392L79.3594 68.8083L85.6751 68.7845L101.537 68.7251L120.414 68.579L124.093 78.991L126.9 86.1539L129.737 87.9316Z" fill="#2C3BD1"/>
<path opacity="0.8" d="M75.1032 105.345C75.4166 105.837 85.976 107.655 85.976 107.655L115.135 113.548L165.402 115.226L171.396 110.321L174.485 110.931L174.611 110.955L215.867 119.093L216.543 119.009L227.857 117.613L286.948 110.32L286.449 101.746L286.154 96.6857L285.545 86.1791L285.029 83.4164L279.791 82.8367L277.343 82.5646L239.16 78.33L234.168 77.7768L231.37 77.4666L204.118 73.2298L164.249 73.4473L164.319 61.1474L149.472 12.3123C145.987 12.812 146.022 15.1603 146.022 15.1603L158.577 61.1189L158.21 89.1935C130.25 91.486 129.465 85.3849 125.01 87.3521L119.998 70.1832L73.1105 69.5398C71.2078 71.7689 75.1032 105.345 75.1032 105.345Z" fill="#65617D"/>
<path opacity="0.8" d="M191.903 82.0615L176.426 113.734L171.383 115.256L170.27 110.057L176.181 92.4462L182.114 82.2811L191.903 82.0615Z" fill="#65617D"/>
<path opacity="0.15" d="M191.903 82.0615L176.426 113.734L171.383 115.256L170.27 110.057L176.181 92.4462L182.114 82.2811L191.903 82.0615Z" fill="black"/>
<path opacity="0.8" d="M227.855 117.943C228.174 101.055 216.372 87.1366 201.495 86.8555C186.618 86.5743 174.3 100.037 173.981 116.925C173.663 133.813 185.464 147.731 200.341 148.012C215.218 148.293 227.536 134.831 227.855 117.943Z" fill="#636780"/>
<path opacity="0.1" d="M191.851 88.5815C205.929 89.8299 216.844 103.328 216.538 119.577C216.29 132.675 208.824 143.71 198.546 147.873C184.468 146.625 173.553 133.127 173.86 116.878C174.107 103.78 181.573 92.7448 191.851 88.5815Z" fill="black"/>
<path opacity="0.8" d="M274.132 65.3278L275.347 71.6434L279.064 90.9922L296.639 89.625C296.639 89.625 297.75 86.4098 295.025 85.1445C295.025 85.1445 294.33 74.175 291.153 70.6651C290.813 70.2654 290.382 69.9526 289.897 69.7528L274.132 65.3278Z" fill="#65617D"/>
<path opacity="0.1" d="M275.347 71.6434L279.064 90.9922L296.639 89.625C296.639 89.625 297.75 86.4098 295.025 85.1445C295.025 85.1445 294.33 74.175 291.153 70.6652L275.347 71.6434Z" fill="white"/>
<path opacity="0.8" d="M234.572 66.2794C232.237 70.0371 237.071 105.17 237.071 105.17L280.291 98.8642L279.334 68.1767C278.548 62.6582 275.328 61.9516 275.328 61.9516C260.275 53.9784 225.386 51.6997 225.386 51.6997C193.515 52.3112 164.318 61.1474 164.318 61.1474C200.636 56.25 234.572 66.2794 234.572 66.2794Z" fill="#65617D"/>
<path opacity="0.1" d="M237.072 105.17L280.291 98.8643L279.335 68.1768C278.549 62.6582 275.329 61.9516 275.329 61.9516C275.329 61.9516 243.94 58.3625 234.572 66.2795C232.238 70.0372 237.072 105.17 237.072 105.17Z" fill="black"/>
<path opacity="0.8" d="M241.664 103.233L277.804 97.839L277.014 71.6571C276.358 66.949 273.666 66.3471 273.666 66.3471C273.666 66.3471 247.422 63.2951 239.587 70.0528C237.634 73.2595 241.664 103.233 241.664 103.233Z" fill="#65617D"/>
<path opacity="0.1" d="M249.965 81.8643C250.058 76.9051 247.927 72.8432 245.203 72.7917C242.48 72.7403 240.197 76.7187 240.103 81.6779C240.009 86.6371 242.141 90.699 244.864 90.7505C247.588 90.802 249.871 86.8235 249.965 81.8643Z" fill="black"/>
<path opacity="0.8" d="M249.97 81.6216C250.063 76.6624 247.931 72.6005 245.208 72.549C242.485 72.4976 240.202 76.476 240.108 81.4352C240.014 86.3943 242.146 90.4563 244.869 90.5077C247.593 90.5592 249.876 86.5807 249.97 81.6216Z" fill="#DCE0ED"/>
<path opacity="0.8" d="M244.517 74.8828C244.517 74.8828 246.532 75.2445 245.431 77.8942C244.849 79.181 244.416 80.5305 244.142 81.9161C244.142 81.9161 242.101 82.9295 242.248 79.4525C242.394 75.9756 244.517 74.8828 244.517 74.8828Z" fill="#F0F0F4"/>
<path opacity="0.1" d="M276.141 78.7983C276.228 74.1643 274.236 70.3688 271.692 70.3207C269.147 70.2726 267.013 73.9902 266.926 78.6241C266.838 83.2581 268.83 87.0537 271.375 87.1018C273.92 87.1499 276.053 83.4323 276.141 78.7983Z" fill="black"/>
<path opacity="0.8" d="M276.146 78.5557C276.233 73.9217 274.241 70.1261 271.697 70.078C269.152 70.0299 267.018 73.7475 266.931 78.3815C266.843 83.0155 268.835 86.8111 271.38 86.8592C273.925 86.9073 276.058 83.1897 276.146 78.5557Z" fill="#DCE0ED"/>
<path opacity="0.8" d="M271.017 71.823C271.017 71.823 273.032 72.1848 271.931 74.8345C271.349 76.1213 270.916 77.4707 270.642 78.8563C270.642 78.8563 268.601 79.8698 268.748 76.3928C268.894 72.9158 271.017 71.823 271.017 71.823Z" fill="#F0F0F4"/>
<path opacity="0.1" d="M250.836 74.2731C251.096 77.5967 252.25 102.219 252.25 102.219L255.001 101.812L256.531 101.588L258.57 101.287L258.816 101.25L266.846 100.067L265.757 73.9506C265.721 73.1117 265.365 72.3186 264.761 71.7355C264.158 71.1524 263.353 70.824 262.514 70.8182C262.434 70.8192 262.352 70.82 262.269 70.8257C261.715 70.8638 261.118 70.9108 260.496 70.967C260.233 70.9912 259.968 71.0153 259.699 71.0442C258.928 71.1219 258.133 71.2185 257.352 71.3324C256.953 71.3929 256.561 71.4559 256.174 71.5238C255.52 71.6426 254.886 71.7738 254.301 71.9254C253.904 72.0272 253.526 72.139 253.179 72.2611C251.724 72.758 250.768 73.4148 250.836 74.2731Z" fill="black"/>
<path opacity="0.8" d="M262.515 70.8182L263.528 100.167L264.419 100.103L263.417 70.9518C263.124 70.8655 262.82 70.8205 262.515 70.8182Z" fill="#65617D"/>
<path opacity="0.8" d="M259.699 71.0442L260.608 100.677L261.983 100.703L260.496 70.967C260.234 70.9912 259.969 71.0153 259.699 71.0442Z" fill="#65617D"/>
<path opacity="0.8" d="M256.175 71.5238L257.928 101.275L258.818 101.292L258.816 101.25L257.353 71.3325C256.954 71.3929 256.562 71.4559 256.175 71.5238Z" fill="#65617D"/>
<path opacity="0.8" d="M253.18 72.2611L255.002 101.812L255.006 101.868L256.544 101.734L256.532 101.588L254.302 71.9254C253.905 72.0271 253.526 72.139 253.18 72.2611Z" fill="#65617D"/>
<path opacity="0.1" d="M285.626 95.729C285.626 95.729 288.886 80.4352 282.111 79.5182C275.336 78.6011 252.995 79.8175 253.543 86.14C254.091 92.4624 254.638 102.062 254.638 102.062L259.264 101.118C259.264 101.118 256.081 86.6128 261.487 86.1688C266.893 85.7247 280.138 84.4577 280.138 84.4577C280.138 84.4577 283.726 83.9186 281.426 96.56L285.626 95.729Z" fill="black"/>
<path opacity="0.8" d="M285.599 97.1851C285.599 97.1851 288.878 80.9206 282.103 80.0035C275.327 79.0865 252.987 80.3029 253.534 86.6253C254.082 92.9478 254.629 102.548 254.629 102.548L259.256 101.603C259.256 101.603 256.073 87.0982 261.478 86.6541C266.884 86.2101 280.129 84.9431 280.129 84.9431C280.129 84.9431 283.699 85.3747 281.399 98.0161L285.599 97.1851Z" fill="#DCE0ED"/>
<path opacity="0.8" d="M165.401 115.226L171.383 115.256C176.111 96.0867 183.532 84.251 183.532 84.251C185.982 83.0009 212.491 83.6646 212.491 83.6646C215.232 84.2019 215.795 92.9524 215.795 92.9524C215.795 92.9524 213.411 94.9296 215.65 96.2683C216.65 96.865 219.975 97.0371 223.813 96.913C228.577 96.7554 234.135 96.137 237.015 95.2956C242.221 93.7747 238.155 90.7045 238.155 90.7045C238.155 90.7045 237.446 89.72 237.062 84.3718C236.788 81.2485 235.837 78.2225 234.277 75.504C234.061 75.1285 233.924 74.9244 233.924 74.9244C233.656 74.6603 233.338 74.4529 232.989 74.3144C226.19 71.3212 192.55 73.4141 192.55 73.4141L180.028 77.1443C179.681 77.2761 179.133 78.1446 178.452 79.535C174.359 87.9037 165.401 115.226 165.401 115.226Z" fill="#65617D"/>
<path opacity="0.1" d="M165.401 115.226L171.383 115.256C176.111 96.0867 183.532 84.251 183.532 84.251C185.982 83.0009 212.491 83.6646 212.491 83.6646C215.232 84.2019 215.795 92.9524 215.795 92.9524C215.795 92.9524 213.411 94.9296 215.65 96.2683C216.65 96.865 219.975 97.0371 223.813 96.913C228.577 96.7554 234.135 96.137 237.015 95.2956C242.221 93.7747 238.155 90.7045 238.155 90.7045C238.155 90.7045 237.446 89.72 237.062 84.3718C236.788 81.2485 235.837 78.2225 234.277 75.504C234.061 75.1285 233.924 74.9244 233.924 74.9244C233.656 74.6603 233.338 74.4529 232.989 74.3144C226.19 71.3212 192.55 73.4141 192.55 73.4141L180.028 77.1443C179.681 77.2761 179.133 78.1446 178.452 79.535C174.359 87.9037 165.401 115.226 165.401 115.226Z" fill="black"/>
<path opacity="0.8" d="M178.451 79.535C190.028 75.2844 221.651 78.254 221.651 78.254C225.069 75.4393 231.399 75.3696 234.276 75.5041C234.06 75.1286 233.923 74.9245 233.923 74.9245C233.656 74.6604 233.338 74.4529 232.989 74.3145C226.19 71.3212 192.549 73.4142 192.549 73.4142L180.027 77.1444C179.68 77.2762 179.132 78.1447 178.451 79.535Z" fill="#65617D"/>
<path opacity="0.8" d="M219.769 79.4323C220.449 81.953 223.25 92.0422 223.25 92.0422C223.531 93.6537 223.719 95.28 223.813 96.9131C228.578 96.7555 234.135 96.1371 237.016 95.2957C242.221 93.7748 238.155 90.7046 238.155 90.7046C238.155 90.7046 237.446 89.7201 237.062 84.3719C236.769 81.0204 235.694 77.7845 233.924 74.9245C233.656 74.6604 233.339 74.453 232.989 74.3145C228.476 75.2901 219.254 77.5241 219.769 79.4323Z" fill="#65617D"/>
<path opacity="0.1" d="M219.769 79.4323C220.449 81.953 223.25 92.0422 223.25 92.0422C223.531 93.6537 223.719 95.28 223.813 96.9131C228.578 96.7555 234.135 96.1371 237.016 95.2957C242.221 93.7748 238.155 90.7046 238.155 90.7046C238.155 90.7046 237.446 89.7201 237.062 84.3719C236.769 81.0204 235.694 77.7845 233.924 74.9245C233.656 74.6604 233.339 74.453 232.989 74.3145C228.476 75.2901 219.254 77.5241 219.769 79.4323Z" fill="white"/>
<path opacity="0.8" d="M149.472 12.3122L164.318 61.1473L226.226 52.1817L218.046 22.8337C218.046 22.8337 216.778 16.1335 213.574 15.5874C213.574 15.5874 164.085 6.03353 149.472 12.3122ZM156.362 19.9684C154.364 13.3758 183.776 16.6629 183.776 16.6629C187.736 16.3566 192.509 16.6895 196.945 17.2274C198.569 17.4256 200.147 17.6521 201.625 17.8839C204.921 18.4026 207.72 18.9556 209.394 19.3053C210.46 19.527 211.071 19.6672 211.071 19.6672C216.917 21.5985 219.794 45.9301 219.794 45.9301C220.231 48.4875 217.21 47.8841 217.21 47.8841L217.013 47.8877L214.259 47.9425L206.047 48.1101L166.004 48.9192C163.645 48.6318 163.334 45.834 163.334 45.834C162.098 43.8078 156.362 19.9684 156.362 19.9684H156.362Z" fill="#65617D"/>
<path opacity="0.8" d="M217.013 47.8877L217.21 47.8842C217.21 47.8842 220.231 48.4875 219.794 45.9301C219.794 45.9301 216.918 21.5985 211.071 19.6672C211.071 19.6672 210.46 19.527 209.395 19.3054C211.452 23.5151 218.033 37.9218 217.013 47.8877Z" fill="#65617D"/>
<path opacity="0.1" d="M217.013 47.8877L217.21 47.8842C217.21 47.8842 220.231 48.4875 219.794 45.9301C219.794 45.9301 216.918 21.5985 211.071 19.6672C211.071 19.6672 210.46 19.527 209.395 19.3054C211.452 23.5151 218.033 37.9218 217.013 47.8877Z" fill="black"/>
<path opacity="0.1" d="M210.452 107.641C210.791 108.302 211.311 108.852 211.951 109.228C212.592 109.603 213.326 109.788 214.068 109.761L215.303 109.731L226.967 109.449L231.17 109.346L235.057 109.097L286.449 101.746L286.154 96.6857L280.245 97.4189L277.802 97.7223L241.53 102.217L236.757 102.809L234.442 103.096L224.661 102.841L214.072 102.563C213.537 102.547 213.004 102.64 212.505 102.834C211.589 103.179 210.841 103.864 210.417 104.747C210.195 105.198 210.082 105.695 210.088 106.198C210.094 106.701 210.219 107.195 210.452 107.641Z" fill="black"/>
<path opacity="0.8" d="M210.443 108.127C210.782 108.787 211.302 109.338 211.942 109.713C212.583 110.089 213.317 110.274 214.059 110.246L231.162 109.832L235.048 109.582L289.853 101.742L294.161 101.127L296.508 100.79C301.134 99.9064 299.846 95.2694 299.846 95.2694C299.563 93.1592 291.677 91.068 289.091 91.1017C287.351 91.1222 287.058 93.7993 287.054 95.5544C287.052 96.4138 287.118 97.0511 287.118 97.0511L284.555 97.3693L234.433 103.581L214.064 103.048C213.309 103.02 212.562 103.212 211.913 103.599C211.264 103.987 210.742 104.554 210.408 105.232C210.186 105.683 210.073 106.181 210.079 106.683C210.085 107.186 210.21 107.681 210.443 108.127Z" fill="#DCE0ED"/>
<path opacity="0.1" d="M292.753 94.0834C292.753 94.0834 290.52 96.7117 287.117 97.052C287.117 97.052 288.548 94.0848 292.753 94.0834Z" fill="black"/>
<path opacity="0.1" d="M293.177 101.617C293.177 101.617 300.374 101.592 300.301 105.474C300.228 109.357 295.689 109.919 295.689 109.919L231.193 121.081L212.918 121.06C212.918 121.06 206.628 115.843 213.3 113.703L231.72 114.537L293.204 104.45C293.204 104.45 291.629 102.235 293.177 101.617Z" fill="black"/>
<path opacity="0.8" d="M212.909 121.545L231.183 121.568L288.531 111.642L292.727 110.915L295.679 110.405C295.679 110.405 300.218 109.843 300.292 105.96C300.344 103.174 296.65 102.4 294.56 102.186C293.739 102.102 293.167 102.103 293.167 102.103C291.62 102.72 293.196 104.935 293.196 104.935L290.957 105.303L231.711 115.023L213.29 114.189C206.62 116.328 212.909 121.545 212.909 121.545Z" fill="#DCE0ED"/>
<path opacity="0.8" d="M287.821 98.36L284.054 96.5894L282.115 96.4718L281.969 112.816L287.973 111.715L290.51 110.145L291.85 103.373C291.85 103.373 291.419 100.532 291.181 100.285C290.943 100.037 287.821 98.36 287.821 98.36Z" fill="#DCE0ED"/>
<path opacity="0.1" d="M287.821 98.36L284.054 96.5894L282.115 96.4718L281.969 112.816L287.973 111.715L290.51 110.145L291.85 103.373C291.85 103.373 291.419 100.532 291.181 100.285C290.943 100.037 287.821 98.36 287.821 98.36Z" fill="black"/>
<path opacity="0.1" d="M288.531 111.642C288.484 111.697 288.459 111.725 288.459 111.725L292.677 110.994C292.694 110.968 292.712 110.941 292.727 110.915C295.011 107.382 295.255 104.483 294.561 102.186C293.74 102.102 293.167 102.103 293.167 102.103C291.62 102.72 293.196 104.935 293.196 104.935L290.958 105.303C291.048 108.504 288.95 111.145 288.531 111.642Z" fill="black"/>
<path opacity="0.1" d="M282.6 96.4802C283.305 96.7678 283.957 97.0642 284.555 97.3692C287.249 98.7311 288.901 100.234 289.853 101.742L294.161 101.127C292.372 97.2184 287.957 95.3676 287.957 95.3676L287.054 95.5544L282.6 96.4802Z" fill="black"/>
<path opacity="0.8" d="M287.473 95.3593C287.473 95.3593 299.186 100.274 292.192 110.986L287.973 111.715C287.973 111.715 296.479 102.327 282.115 96.4719L287.473 95.3593Z" fill="#DCE0ED"/>
<path opacity="0.8" d="M259.244 100.086L254.882 99.8414L255.278 117.41L262.335 116.248L265.353 114.848L266.793 111.396L267.829 107.936L265.544 104.737L262.91 102.907L259.244 100.086Z" fill="#DCE0ED"/>
<path opacity="0.1" d="M259.244 100.086L254.882 99.8414L255.278 117.41L262.335 116.248L265.353 114.848L266.793 111.396L267.829 107.936L265.544 104.737L262.91 102.907L259.244 100.086Z" fill="black"/>
<path opacity="0.8" d="M261.659 109.195C261.696 107.229 260.785 105.618 259.625 105.596C258.464 105.574 257.493 107.15 257.456 109.115C257.419 111.081 258.33 112.693 259.49 112.715C260.651 112.737 261.622 111.161 261.659 109.195Z" fill="#DCE0ED"/>
<path opacity="0.8" d="M279.511 114.366C279.657 114.429 279.789 114.523 279.897 114.64C280.005 114.758 280.087 114.897 280.138 115.048C280.189 115.2 280.208 115.36 280.193 115.519C280.178 115.678 280.131 115.832 280.053 115.971C279.56 116.854 278.966 117.997 279.014 118.303C279.095 118.821 277.952 118.374 277.802 118.25C277.653 118.126 275.559 118.208 275.465 116.779C275.453 116.349 275.554 115.922 275.758 115.543C275.962 115.164 276.262 114.844 276.628 114.616L276.202 111.483L279.086 111.294L279.002 114.145L279.511 114.366Z" fill="#636780"/>
<path opacity="0.1" d="M279.511 114.366C279.657 114.429 279.789 114.523 279.897 114.64C280.005 114.758 280.087 114.897 280.138 115.048C280.189 115.2 280.208 115.36 280.193 115.519C280.178 115.678 280.131 115.832 280.053 115.971C279.56 116.854 278.966 117.997 279.014 118.303C279.095 118.821 277.952 118.374 277.802 118.25C277.653 118.126 275.559 118.208 275.465 116.779C275.453 116.349 275.554 115.922 275.758 115.543C275.962 115.164 276.262 114.844 276.628 114.616L276.202 111.483L279.086 111.294L279.002 114.145L279.511 114.366Z" fill="black"/>
<path opacity="0.1" d="M278.726 114.292C278.726 114.292 277.693 117.611 278.115 117.74C278.537 117.869 278.726 114.292 278.726 114.292Z" fill="black"/>
<path opacity="0.1" d="M277.65 113.483C277.65 113.483 276.617 116.801 277.039 116.931C277.461 117.06 277.65 113.483 277.65 113.483Z" fill="black"/>
<path opacity="0.8" d="M266.219 103.211L267.647 113.274C267.647 113.274 269.653 113.038 270.761 112.821C271.003 112.792 271.24 112.724 271.461 112.618C271.517 112.563 271.636 112.57 271.793 112.605L271.796 112.605C272.332 112.724 273.284 113.189 273.478 112.816C273.492 112.787 273.51 112.761 273.532 112.737L273.535 112.735C273.728 112.532 274.094 112.69 274.449 112.75C274.639 112.801 274.842 112.778 275.016 112.685C275.318 112.492 275.915 112.823 276.408 112.94C276.72 113.013 276.989 113.004 277.118 112.725C277.168 112.634 277.238 112.557 277.323 112.499C277.408 112.44 277.505 112.403 277.607 112.389L277.61 112.389C278.077 112.282 278.728 112.374 279.106 112.301C279.254 112.275 279.357 112.221 279.393 112.12C279.47 111.903 279.889 111.806 280.337 111.73C280.879 111.635 281.463 111.571 281.511 111.351C281.524 111.279 281.578 111.248 281.658 111.247C281.958 111.298 282.253 111.377 282.539 111.482L282.542 111.482C282.783 111.548 282.984 111.554 283.046 111.38C283.112 111.19 283.391 111.217 283.707 111.301C283.963 111.368 284.245 111.473 284.462 111.528C284.658 111.576 284.798 111.586 284.824 111.494C284.91 111.173 285.947 111.921 286.201 111.277C286.456 110.634 289.852 106.411 285.672 100.748C285.672 100.748 284.512 100.806 283.623 100.95C283.328 100.984 283.039 101.059 282.765 101.174C282.76 101.174 282.758 101.176 282.753 101.178C282.244 101.311 281.718 101.361 281.193 101.328C280.892 101.326 280.594 101.391 280.321 101.518C280.213 101.575 280.127 101.664 280.073 101.773C279.932 102.079 279.62 102.136 279.281 102.11C278.823 102.075 278.317 101.891 278.129 101.979C278.123 101.982 278.118 101.985 278.112 101.986C277.769 102.126 276.504 101.961 276.284 102.168C276.278 102.174 276.272 102.18 276.267 102.187C276.172 102.321 275.677 102.169 275.172 102.091L275.17 102.091C275.001 102.041 274.825 102.028 274.651 102.052C274.478 102.076 274.311 102.136 274.163 102.23C273.937 102.402 273.652 102.48 273.37 102.448C273.027 102.416 272.682 102.423 272.341 102.47C272.261 102.49 272.19 102.533 272.135 102.594C271.924 102.845 271.432 102.802 270.993 102.816C270.768 102.802 270.543 102.854 270.347 102.966C270.277 103.014 270.197 103.046 270.113 103.059C269.46 103.106 268.805 103.061 268.165 102.925L266.219 103.211Z" fill="#636780"/>
<path opacity="0.1" d="M283.707 111.301C283.963 111.369 284.245 111.473 284.462 111.528C287.842 106.494 285.151 102.571 283.624 100.95C283.329 100.984 283.04 101.059 282.766 101.174C285.989 105.044 284.369 109.771 283.707 111.301Z" fill="black"/>
<path opacity="0.1" d="M281.659 111.247C281.959 111.298 282.254 111.377 282.54 111.482L282.542 111.482C285.447 106.563 282.626 102.79 281.193 101.328C280.892 101.326 280.594 101.391 280.321 101.518C283.402 105.019 282.387 109.282 281.659 111.247Z" fill="black"/>
<path opacity="0.1" d="M279.106 112.301C279.255 112.275 279.358 112.221 279.394 112.12C279.47 111.903 279.89 111.806 280.337 111.73C282.886 107.272 280.747 103.772 279.282 102.11C278.824 102.075 278.318 101.891 278.129 101.979C278.124 101.982 278.118 101.985 278.112 101.986C281.516 105.955 279.745 110.861 279.106 112.301Z" fill="black"/>
<path opacity="0.1" d="M276.408 112.94C276.72 113.014 276.989 113.004 277.118 112.725C277.168 112.634 277.238 112.557 277.323 112.499C277.408 112.44 277.505 112.403 277.607 112.389L277.61 112.389C280.58 107.427 277.719 103.623 276.284 102.168C276.277 102.174 276.272 102.18 276.267 102.187C276.172 102.321 275.677 102.169 275.172 102.091C279.178 106.294 276.974 111.734 276.408 112.94Z" fill="black"/>
<path opacity="0.1" d="M273.535 112.735C273.728 112.532 274.094 112.69 274.449 112.75C277.538 107.826 274.856 104.013 273.37 102.448C273.027 102.416 272.682 102.423 272.341 102.47C275.767 106.302 274.233 111.073 273.535 112.735Z" fill="black"/>
<path opacity="0.1" d="M270.761 112.821C271.004 112.792 271.241 112.724 271.461 112.618C271.518 112.563 271.637 112.57 271.794 112.605L271.796 112.605C274.537 108.107 272.484 104.553 270.994 102.816C270.768 102.802 270.544 102.854 270.348 102.966C270.277 103.014 270.197 103.046 270.113 103.059C272.945 106.863 271.4 111.35 270.761 112.821Z" fill="black"/>
<path opacity="0.8" d="M205.438 118.976C205.64 108.254 199.905 99.4497 192.628 99.3122C185.352 99.1746 179.288 107.755 179.086 118.478C178.884 129.201 184.619 138.004 191.896 138.142C199.172 138.279 205.235 129.699 205.438 118.976Z" fill="#636780"/>
<path opacity="0.1" d="M202.28 119.2C202.444 110.51 198.288 103.384 192.998 103.284C187.708 103.184 183.286 110.148 183.122 118.838C182.958 127.527 187.114 134.653 192.404 134.753C197.694 134.853 202.116 127.889 202.28 119.2Z" fill="black"/>
<path opacity="0.8" d="M202.288 118.714C202.452 110.025 198.297 102.899 193.007 102.799C187.716 102.699 183.295 109.662 183.131 118.352C182.967 127.042 187.123 134.167 192.413 134.267C197.703 134.367 202.124 127.404 202.288 118.714Z" fill="#F0F0F4"/>
<path opacity="0.8" d="M192.303 107.965C192.323 106.893 191.833 106.014 191.208 106.002C190.583 105.99 190.06 106.85 190.04 107.922C190.019 108.994 190.51 109.873 191.135 109.885C191.76 109.897 192.283 109.037 192.303 107.965Z" fill="#636780"/>
<path opacity="0.8" d="M187.455 124.867C187.475 123.795 186.985 122.916 186.36 122.905C185.735 122.893 185.212 123.752 185.192 124.825C185.172 125.897 185.662 126.776 186.287 126.788C186.912 126.799 187.435 125.94 187.455 124.867Z" fill="#636780"/>
<path opacity="0.8" d="M199.814 117.009C199.834 115.936 199.344 115.057 198.719 115.046C198.094 115.034 197.571 115.893 197.55 116.966C197.53 118.038 198.02 118.917 198.645 118.929C199.27 118.94 199.793 118.081 199.814 117.009Z" fill="#636780"/>
<path opacity="0.8" d="M196.286 128.271C196.307 127.199 195.816 126.32 195.191 126.308C194.566 126.297 194.043 127.156 194.023 128.229C194.003 129.301 194.493 130.18 195.118 130.191C195.743 130.203 196.266 129.344 196.286 128.271Z" fill="#636780"/>
<path opacity="0.8" d="M96.5047 80.9868C96.5047 80.9868 86.5709 106.047 87.0261 107.634C87.0261 107.634 82.979 109.985 82.0205 109.36C81.0619 108.735 82.1214 97.5876 82.1214 97.5876L84.1256 87.7932L86.2968 82.0077L96.5047 80.9868Z" fill="#65617D"/>
<path opacity="0.15" d="M96.5047 80.9868C96.5047 80.9868 86.5709 106.047 87.0261 107.634C87.0261 107.634 82.979 109.985 82.0205 109.36C81.0619 108.735 82.1214 97.5876 82.1214 97.5876L84.1256 87.7932L86.2968 82.0077L96.5047 80.9868Z" fill="black"/>
<path opacity="0.8" d="M186.037 114.32C186.058 113.248 185.567 112.369 184.942 112.358C184.317 112.346 183.794 113.205 183.774 114.278C183.754 115.35 184.244 116.229 184.869 116.241C185.494 116.252 186.017 115.393 186.037 114.32Z" fill="#636780"/>
<path opacity="0.8" d="M194.275 119.17C194.323 116.623 192.878 114.531 191.048 114.496C189.217 114.461 187.695 116.498 187.647 119.044C187.599 121.591 189.043 123.684 190.874 123.718C192.704 123.753 194.227 121.716 194.275 119.17Z" fill="#636780"/>
<path opacity="0.8" d="M85.3202 114.521C85.0445 129.13 89.6435 142.521 103.13 141.32C120.112 141.276 121.662 129.822 121.938 115.213C122.213 100.603 114.222 89.576 104.11 89.3848C93.9982 89.1937 85.5959 99.9113 85.3202 114.521Z" fill="#636780"/>
<path opacity="0.1" d="M85.2138 114.544C85.4272 103.233 90.5124 94.2564 97.49 90.8675C106.333 92.7242 112.964 103.07 112.712 116.399C112.486 128.371 111.402 138.223 101.672 141.413C89.2294 141.626 84.9475 128.654 85.2138 114.544Z" fill="black"/>
<path opacity="0.1" d="M78.2832 108.197C78.2832 108.197 80.6693 110.306 82.0305 108.875C82.0305 108.875 85.7989 82.7266 89.9237 82.6832L104.112 82.83C104.112 82.83 105.796 83.5901 106.464 86.7588L115.145 113.062L165.411 114.741L169.402 106.763L127.81 106.099L127.806 106.079C127.596 105.269 121.117 80.3061 116.504 77.1284C116.502 77.126 116.5 77.1259 116.497 77.1234C116.341 77.0134 116.171 76.926 115.99 76.8638C115.99 76.8638 98.695 74.2306 92.9665 75.7003C92.9665 75.7003 87 76.9228 85.5107 78.7154C85.5063 78.7199 85.5021 78.7247 85.4983 78.7297C85.3004 78.9299 83.0022 81.4235 82.1681 88.7273L78.2832 108.197Z" fill="black"/>
<path opacity="0.8" d="M78.2734 108.682C78.2734 108.682 80.6595 110.791 82.0207 109.36C82.0207 109.36 85.7891 83.212 89.9139 83.1686L104.102 83.3154C104.102 83.3154 105.786 84.0755 106.454 87.2442L115.135 113.548L165.401 115.226L169.392 107.249L127.801 106.584L127.796 106.564C127.586 105.754 121.107 80.7915 116.495 77.6138C116.492 77.6114 116.49 77.6113 116.487 77.6088C116.332 77.4989 116.161 77.4115 115.98 77.3492C115.98 77.3492 98.6852 74.716 92.9567 76.1857C92.9567 76.1857 86.9903 77.4082 85.5009 79.2009C85.4965 79.2054 85.4924 79.2101 85.4885 79.2152C85.2907 79.4154 82.9924 81.9089 82.1584 89.2127L78.2734 108.682Z" fill="#65617D"/>
<path opacity="0.1" d="M78.2734 108.682C78.2734 108.682 80.6595 110.791 82.0207 109.36C82.0207 109.36 85.7891 83.212 89.9139 83.1686L104.102 83.3154C104.102 83.3154 105.786 84.0755 106.454 87.2442L115.135 113.548L165.401 115.226L169.392 107.249L127.801 106.584L127.796 106.564C127.586 105.754 121.107 80.7915 116.495 77.6138C116.492 77.6114 116.49 77.6113 116.487 77.6088C116.332 77.4989 116.161 77.4115 115.98 77.3492C115.98 77.3492 98.6852 74.716 92.9567 76.1857C92.9567 76.1857 86.9903 77.4082 85.5009 79.2009C85.4965 79.2054 85.4924 79.2101 85.4885 79.2152C85.2907 79.4154 82.9924 81.9089 82.1584 89.2127L78.2734 108.682Z" fill="black"/>
<path opacity="0.8" d="M109.612 80.6276C110.781 82.956 120.673 111.547 120.673 111.547L127.801 106.584L127.797 106.564C127.586 105.754 121.101 80.7647 116.488 77.6088C113.442 78.0708 108.817 79.0467 109.612 80.6276Z" fill="#65617D"/>
<path opacity="0.8" d="M123.437 67.9006L128.783 86.6952L158.505 86.4072L158.21 89.1935C158.21 89.1935 134.866 92.1511 125.01 87.3522L119.997 70.1824L73.1094 69.539L82.0812 67.6045L123.437 67.9006Z" fill="#65617D"/>
<path opacity="0.1" d="M123.437 67.9006L128.783 86.6952L158.505 86.4072L158.21 89.1935C158.21 89.1935 134.866 92.1511 125.01 87.3522L119.997 70.1824L73.1094 69.539L82.0812 67.6045L123.437 67.9006Z" fill="white"/>
<path opacity="0.1" d="M262.157 99.979C262.157 99.979 277.93 108.289 265.987 115.589L262.82 116.257C262.82 116.257 274.537 108.144 255.367 99.8506L262.157 99.979Z" fill="black"/>
<path opacity="0.8" d="M261.672 99.9698C261.672 99.9698 277.445 108.279 265.501 115.58L262.335 116.248C262.335 116.248 274.051 108.134 254.882 99.8415L261.672 99.9698Z" fill="#DCE0ED"/>
<path opacity="0.8" d="M105.409 116.964C105.567 108.587 101.732 101.721 96.8437 101.629C91.9552 101.537 87.8643 108.253 87.7062 116.629C87.5481 125.006 91.3828 131.872 96.2712 131.965C101.16 132.057 105.251 125.341 105.409 116.964Z" fill="#636780"/>
<path opacity="0.1" d="M103.284 117.251C103.412 110.463 100.635 104.905 97.0814 104.837C93.5275 104.77 90.5427 110.219 90.4146 117.008C90.2865 123.797 93.0636 129.355 96.6174 129.422C100.171 129.489 103.156 124.04 103.284 117.251Z" fill="black"/>
<path opacity="0.8" d="M103.294 116.766C103.422 109.977 100.645 104.419 97.0912 104.352C93.5373 104.285 90.5525 109.734 90.4244 116.523C90.2962 123.312 93.0733 128.87 96.6272 128.937C100.181 129.004 103.166 123.555 103.294 116.766Z" fill="#F0F0F4"/>
<path opacity="0.8" d="M96.6067 108.389C96.6225 107.552 96.295 106.866 95.8751 106.858C95.4552 106.85 95.1021 107.523 95.0862 108.36C95.0704 109.198 95.398 109.884 95.8178 109.892C96.2377 109.9 96.5909 109.227 96.6067 108.389Z" fill="#636780"/>
<path opacity="0.8" d="M93.3157 121.604C93.3315 120.766 93.004 120.08 92.5841 120.072C92.1642 120.065 91.811 120.737 91.7952 121.575C91.7794 122.413 92.107 123.098 92.5268 123.106C92.9467 123.114 93.2999 122.441 93.3157 121.604Z" fill="#636780"/>
<path opacity="0.8" d="M101.635 115.439C101.651 114.601 101.323 113.915 100.903 113.907C100.484 113.899 100.13 114.572 100.115 115.41C100.099 116.248 100.426 116.933 100.846 116.941C101.266 116.949 101.619 116.276 101.635 115.439Z" fill="#636780"/>
<path opacity="0.8" d="M99.2415 124.244C99.2573 123.407 98.9297 122.721 98.5099 122.713C98.09 122.705 97.7368 123.378 97.721 124.216C97.7052 125.053 98.0327 125.739 98.4526 125.747C98.8725 125.755 99.2257 125.082 99.2415 124.244Z" fill="#636780"/>
<path opacity="0.8" d="M92.385 113.367C92.4008 112.529 92.0733 111.844 91.6534 111.836C91.2335 111.828 90.8804 112.501 90.8646 113.338C90.8488 114.176 91.1763 114.862 91.5962 114.87C92.016 114.877 92.3692 114.205 92.385 113.367Z" fill="#636780"/>
<path opacity="0.8" d="M97.9085 117.138C97.946 115.149 96.9797 113.517 95.7501 113.494C94.5204 113.471 93.4932 115.065 93.4557 117.054C93.4181 119.044 94.3845 120.675 95.6141 120.699C96.8437 120.722 97.8709 119.128 97.9085 117.138Z" fill="#636780"/>
<path opacity="0.1" d="M226.355 51.7593C226.355 51.7593 199.419 52.2213 164.318 61.1474L226.355 51.7593Z" fill="black"/>
<path opacity="0.8" d="M98.8159 2.17334C98.8159 2.17334 100.273 2.43501 99.4766 4.35149C99.0556 5.28222 98.7428 6.25827 98.5444 7.26044C98.5444 7.26044 97.0684 7.99345 97.1744 5.4786C97.2803 2.96375 98.8159 2.17334 98.8159 2.17334Z" fill="#DCE0ED"/>
<path opacity="0.8" d="M155.464 48.2915L157.609 56.8382L165.001 50.356" stroke="black" stroke-miterlimit="10"/>
<path opacity="0.8" d="M168.234 58.36L146.38 54.6062L142.694 76.1L164.548 79.8538L168.234 58.36Z" fill="white"/>
<path opacity="0.8" d="M152.717 76.7867L153.128 74.3899C151.846 74.1655 150.651 73.5881 149.679 72.7226L150.521 71.2303C151.524 72.0829 152.735 72.6535 154.031 72.8838C155.714 73.173 157.02 72.3954 157.252 71.0427C157.475 69.7375 156.689 68.7718 155.056 67.7584C152.8 66.3937 151.764 65.092 152.118 63.0273C152.456 61.0576 153.976 59.7797 156.219 59.7984L156.63 57.4016L157.83 57.6076L157.435 59.9095C158.515 60.1039 159.527 60.5722 160.375 61.2697L159.514 62.734C158.755 62.045 157.812 61.5941 156.799 61.4373C154.974 61.1237 154.369 62.1435 154.206 63.0928C153.995 64.3268 154.496 65.0482 156.412 66.2569C158.684 67.673 159.976 69.1653 159.614 71.2775C159.292 73.1522 157.687 74.6844 155.175 74.6683L154.752 77.1363L152.717 76.7867Z" fill="#636780"/>
<path opacity="0.8" d="M152.345 154.674C152.534 154.668 152.713 154.588 152.845 154.452C152.976 154.316 153.05 154.134 153.05 153.944C153.05 153.755 152.976 153.573 152.845 153.436C152.713 153.3 152.534 153.22 152.345 153.214C152.155 153.22 151.976 153.3 151.845 153.436C151.713 153.573 151.64 153.755 151.64 153.944C151.64 154.134 151.713 154.316 151.845 154.452C151.976 154.588 152.155 154.668 152.345 154.674Z" fill="#65617D"/>
</g>
<path opacity="0.1" d="M323.014 221.441C328.033 221.441 332.101 220.752 332.101 219.903C332.101 219.054 328.033 218.366 323.014 218.366C317.996 218.366 313.928 219.054 313.928 219.903C313.928 220.752 317.996 221.441 323.014 221.441Z" fill="#2C3BD1"/>
<path d="M316.912 212.76C316.912 212.76 322.095 212.6 323.658 211.487C325.22 210.374 331.631 209.045 332.018 210.83C332.406 212.615 339.808 219.709 333.956 219.757C328.104 219.804 320.359 218.845 318.8 217.894C317.24 216.944 316.912 212.76 316.912 212.76Z" fill="#A8A8A8"/>
<path opacity="0.2" d="M334.06 219.135C328.208 219.182 320.463 218.223 318.904 217.273C317.717 216.549 317.243 213.952 317.085 212.753C316.976 212.758 316.912 212.76 316.912 212.76C316.912 212.76 317.24 216.944 318.8 217.894C320.359 218.845 328.104 219.804 333.956 219.757C335.645 219.743 336.229 219.142 336.196 218.251C335.962 218.789 335.318 219.125 334.06 219.135Z" fill="black"/>
<path opacity="0.1" d="M375.72 203.174C379.582 203.174 382.712 202.644 382.712 201.991C382.712 201.337 379.582 200.808 375.72 200.808C371.858 200.808 368.728 201.337 368.728 201.991C368.728 202.644 371.858 203.174 375.72 203.174Z" fill="#2C3BD1"/>
<path d="M371.023 196.494C371.023 196.494 375.012 196.371 376.214 195.514C377.416 194.658 382.35 193.635 382.648 195.009C382.946 196.382 388.642 201.841 384.139 201.878C379.636 201.914 373.676 201.176 372.476 200.444C371.276 199.713 371.023 196.494 371.023 196.494Z" fill="#A8A8A8"/>
<path opacity="0.2" d="M384.219 201.4C379.716 201.436 373.756 200.698 372.556 199.966C371.642 199.409 371.278 197.411 371.157 196.489C371.072 196.492 371.023 196.494 371.023 196.494C371.023 196.494 371.276 199.713 372.476 200.444C373.676 201.176 379.636 201.914 384.139 201.878C385.439 201.867 385.888 201.404 385.863 200.719C385.682 201.133 385.187 201.392 384.219 201.4Z" fill="black"/>
<path opacity="0.1" d="M343.993 279.601C353.213 279.601 360.686 278.337 360.686 276.777C360.686 275.217 353.213 273.953 343.993 273.953C334.774 273.953 327.301 275.217 327.301 276.777C327.301 278.337 334.774 279.601 343.993 279.601Z" fill="#2C3BD1"/>
<path d="M332.783 263.655C332.783 263.655 342.305 263.361 345.175 261.316C348.044 259.271 359.822 256.829 360.534 260.109C361.245 263.389 374.843 276.421 364.093 276.508C353.343 276.594 339.115 274.832 336.25 273.086C333.386 271.34 332.783 263.655 332.783 263.655Z" fill="#A8A8A8"/>
<path opacity="0.2" d="M364.285 275.366C353.535 275.453 339.306 273.69 336.442 271.944C334.261 270.615 333.392 265.843 333.101 263.642C332.9 263.651 332.783 263.655 332.783 263.655C332.783 263.655 333.386 271.34 336.25 273.086C339.115 274.832 353.343 276.594 364.093 276.508C367.196 276.483 368.268 275.378 368.209 273.741C367.778 274.73 366.594 275.347 364.285 275.366Z" fill="black"/>
<path d="M520.247 177.368C520.248 188.58 515.921 199.36 508.171 207.457C500.421 215.554 489.845 220.343 478.651 220.825C467.458 221.306 456.511 217.443 448.095 210.042C439.679 202.64 434.444 192.272 433.483 181.101C433.419 180.394 433.372 179.688 433.351 178.971V178.934C433.33 178.412 433.319 177.89 433.319 177.368C433.323 165.834 437.904 154.774 446.055 146.62C454.205 138.466 465.258 133.885 476.783 133.885C488.308 133.885 499.361 138.466 507.512 146.62C515.662 154.774 520.243 165.834 520.247 177.368Z" fill="#65617D"/>
<path opacity="0.2" d="M520.247 177.368C520.248 188.58 515.921 199.36 508.171 207.457C500.421 215.554 489.845 220.343 478.651 220.825C467.458 221.306 456.511 217.443 448.095 210.042C439.679 202.64 434.444 192.272 433.483 181.101C433.419 180.394 433.372 179.688 433.351 178.971V178.934C433.33 178.412 433.319 177.89 433.319 177.368C433.323 165.834 437.904 154.774 446.055 146.62C454.205 138.466 465.258 133.885 476.783 133.885C488.308 133.885 499.361 138.466 507.512 146.62C515.662 154.774 520.243 165.834 520.247 177.368Z" fill="black"/>
<path d="M476.782 201.094C489.875 201.094 500.489 190.471 500.489 177.368C500.489 164.264 489.875 153.642 476.782 153.642C463.688 153.642 453.074 164.264 453.074 177.368C453.074 190.471 463.688 201.094 476.782 201.094Z" fill="#DCE0ED"/>
<path d="M476.781 191.603C484.637 191.603 491.006 185.23 491.006 177.368C491.006 169.506 484.637 163.132 476.781 163.132C468.925 163.132 462.557 169.506 462.557 177.368C462.557 185.23 468.925 191.603 476.781 191.603Z" fill="#65617D"/>
<path d="M288.213 177.368C288.213 188.58 283.887 199.36 276.137 207.457C268.386 215.554 257.811 220.343 246.617 220.825C235.424 221.306 224.477 217.443 216.06 210.042C207.644 202.64 202.41 192.272 201.448 181.101C201.385 180.394 201.338 179.688 201.317 178.971V178.934C201.296 178.412 201.285 177.89 201.285 177.368C201.289 165.834 205.87 154.774 214.021 146.62C222.171 138.466 233.224 133.885 244.749 133.885C256.274 133.885 267.327 138.466 275.478 146.62C283.628 154.774 288.209 165.834 288.213 177.368Z" fill="#65617D"/>
<path opacity="0.2" d="M288.213 177.368C288.213 188.58 283.887 199.36 276.137 207.457C268.386 215.554 257.811 220.343 246.617 220.825C235.424 221.306 224.477 217.443 216.06 210.042C207.644 202.64 202.41 192.272 201.448 181.101C201.385 180.394 201.338 179.688 201.317 178.971V178.934C201.296 178.412 201.285 177.89 201.285 177.368C201.289 165.834 205.87 154.774 214.021 146.62C222.171 138.466 233.224 133.885 244.749 133.885C256.274 133.885 267.327 138.466 275.478 146.62C283.628 154.774 288.209 165.834 288.213 177.368Z" fill="black"/>
<path d="M244.748 201.094C257.841 201.094 268.455 190.471 268.455 177.368C268.455 164.264 257.841 153.642 244.748 153.642C231.654 153.642 221.04 164.264 221.04 177.368C221.04 190.471 231.654 201.094 244.748 201.094Z" fill="#DCE0ED"/>
<path d="M244.747 191.603C252.603 191.603 258.972 185.23 258.972 177.368C258.972 169.506 252.603 163.132 244.747 163.132C236.891 163.132 230.522 169.506 230.522 177.368C230.522 185.23 236.891 191.603 244.747 191.603Z" fill="#65617D"/>
<path d="M533.803 169.217L519.301 168.586L506.06 143.977L459.4 140.191L436.701 169.848L437.962 178.051L434.81 185.623L286.636 186.886V183.099H285.375L284.114 177.42H295.463L287.266 168.586L258.262 143.977C258.262 143.977 208.45 145.239 207.82 143.977C207.189 142.715 210.657 129.779 210.657 129.779L232.095 123.469L305.236 117.79C321.315 92.2338 335.817 80.2446 335.817 80.2446H523.714L532.542 125.677V125.785L533.803 169.217Z" fill="#444053"/>
<path d="M429.136 172.372C429.136 172.372 448.051 137.036 462.553 137.036H497.863C497.863 137.036 506.69 137.036 510.474 143.977L524.976 172.372H513.626C513.626 172.372 504.168 145.87 493.449 145.239C482.73 144.608 464.445 145.239 464.445 145.239C464.445 145.239 458.14 145.239 454.357 152.811C450.573 160.383 437.782 176.877 437.782 176.877C437.782 176.877 424.091 181.206 429.136 172.372Z" fill="#33323D"/>
<path d="M542 166.693H518.282L518.04 185.623L542 179.945V166.693Z" fill="#33323D"/>
<path d="M198.993 155.335C198.993 155.335 200.254 145.87 209.082 142.084L267.09 138.929C267.09 138.929 276.548 139.56 281.592 151.549L297.986 176.158V179.944H279.701C279.701 179.944 270.873 146.501 245.652 147.763H215.387C215.387 147.763 208.451 147.763 205.929 159.121L198.993 155.335Z" fill="#33323D"/>
<path d="M335.187 84.0307H528.759C528.759 82.1898 528.028 80.4243 526.727 79.1226C525.426 77.8209 523.662 77.0896 521.823 77.0896H342.122C341.212 77.0896 340.31 77.2691 339.468 77.618C338.627 77.9668 337.862 78.4781 337.218 79.1226C336.574 79.7672 336.063 80.5323 335.714 81.3745C335.366 82.2166 335.187 83.1192 335.187 84.0307Z" fill="#33323D"/>
<path opacity="0.3" d="M376.67 121.26H323.105C322.502 121.26 321.908 121.11 321.377 120.821C320.847 120.533 320.397 120.117 320.068 119.611C319.74 119.105 319.542 118.524 319.495 117.922C319.447 117.32 319.55 116.716 319.796 116.164L328.272 97.0784C329.579 94.1339 331.712 91.6321 334.412 89.8762C337.112 88.1204 340.263 87.1858 343.482 87.1858H376.027C376.626 87.1858 377.219 87.3038 377.772 87.533C378.325 87.7622 378.827 88.0982 379.25 88.5217C379.673 88.9453 380.009 89.4481 380.238 90.0015C380.467 90.5549 380.585 91.148 380.585 91.747V117.343C380.585 117.857 380.484 118.367 380.287 118.842C380.09 119.317 379.802 119.749 379.438 120.113C379.075 120.477 378.643 120.765 378.168 120.962C377.694 121.159 377.184 121.26 376.67 121.26Z" fill="#2C3BD1"/>
<path opacity="0.3" d="M444.095 87.1858H397.151C395.663 87.1858 394.456 88.3934 394.456 89.883V118.563C394.456 120.053 395.663 121.26 397.151 121.26H444.095C445.583 121.26 446.79 120.053 446.79 118.563V89.883C446.79 88.3934 445.583 87.1858 444.095 87.1858Z" fill="#2C3BD1"/>
<path d="M532.542 125.677V125.785L451.203 126.939L449.085 80.2449H523.714L532.542 125.677Z" fill="#33323D"/>
<path opacity="0.3" d="M515.345 87.1858H460.835C459.346 87.1858 458.14 88.3934 458.14 89.883V118.563C458.14 120.053 459.346 121.26 460.835 121.26H515.345C516.833 121.26 518.04 120.053 518.04 118.563V89.883C518.04 88.3934 516.833 87.1858 515.345 87.1858Z" fill="#2C3BD1"/>
<path d="M383.512 133.25H365.048C364.575 133.25 364.191 133.633 364.191 134.106V136.179C364.191 136.652 364.575 137.036 365.048 137.036H383.512C383.985 137.036 384.368 136.652 384.368 136.179V134.106C384.368 133.633 383.985 133.25 383.512 133.25Z" fill="#33323D"/>
<path d="M441.521 133.25H423.056C422.584 133.25 422.2 133.633 422.2 134.106V136.179C422.2 136.652 422.584 137.036 423.056 137.036H441.521C441.994 137.036 442.377 136.652 442.377 136.179V134.106C442.377 133.633 441.994 133.25 441.521 133.25Z" fill="#33323D"/>
<path d="M486.408 83.4175H463.059V106.381H486.408V83.4175Z" fill="white"/>
<path d="M473.582 105.307V102.747C472.212 102.742 470.87 102.356 469.706 101.631L470.314 99.9323C471.507 100.638 472.866 101.015 474.251 101.023C476.05 101.023 477.266 99.983 477.266 98.5377C477.266 97.1433 476.278 96.2813 474.403 95.5206C471.819 94.5064 470.512 93.3401 470.512 91.1342C470.512 89.0299 471.862 87.4326 474.193 87.0522V84.4915H475.475V86.9508C476.631 86.9599 477.765 87.2655 478.769 87.8383L478.135 89.5115C477.226 88.9316 476.166 88.6319 475.087 88.6496C473.137 88.6496 472.691 89.8158 472.691 90.83C472.691 92.1484 473.339 92.8078 475.543 93.7205C478.153 94.7853 479.759 96.1037 479.759 98.3603C479.759 100.363 478.366 102.24 475.757 102.671V105.307L473.582 105.307Z" fill="#636780"/>
<path d="M206.252 226.424C206.252 233.171 203.649 239.658 198.985 244.53C194.322 249.403 187.958 252.284 181.222 252.574C174.487 252.864 167.899 250.539 162.835 246.085C157.771 241.632 154.621 235.393 154.043 228.67C154.005 228.245 153.976 227.82 153.963 227.389V227.366C153.951 227.052 153.944 226.738 153.944 226.424C153.953 219.488 156.713 212.84 161.617 207.938C166.52 203.037 173.167 200.284 180.098 200.284C187.029 200.284 193.676 203.037 198.579 207.938C203.483 212.84 206.243 219.488 206.252 226.424Z" fill="#65617D"/>
<path d="M180.098 240.701C187.976 240.701 194.363 234.309 194.363 226.424C194.363 218.539 187.976 212.148 180.098 212.148C172.219 212.148 165.832 218.539 165.832 226.424C165.832 234.309 172.219 240.701 180.098 240.701Z" fill="#DCE0ED"/>
<path d="M180.097 234.99C184.825 234.99 188.657 231.155 188.657 226.424C188.657 221.693 184.825 217.858 180.097 217.858C175.37 217.858 171.538 221.693 171.538 226.424C171.538 231.155 175.37 234.99 180.097 234.99Z" fill="#65617D"/>
<path d="M111.414 176.719L48.4355 177.988V168.683C48.9998 161.206 56.6621 158.582 63.6554 157.76C69.108 157.141 74.6285 157.555 79.9277 158.982C93.2899 162.522 101.811 163.207 105.996 163.274C106.916 163.288 107.804 163.62 108.508 164.213C109.213 164.806 109.692 165.624 109.863 166.529C110.063 167.592 110.26 168.75 110.444 169.892C110.583 170.787 110.716 171.669 110.837 172.49C111.182 174.873 111.414 176.719 111.414 176.719Z" fill="#65617D"/>
<path d="M161.658 228.115H30.8294C29.8193 228.125 28.8284 227.838 27.9801 227.29C27.1318 226.741 26.4635 225.954 26.0583 225.028C25.0724 222.671 26.4514 221.167 27.9224 220.285C30.9326 218.5 33.2145 215.706 34.3641 212.398C35.759 208.29 37.1221 201.821 37.6579 191.738C38.2095 181.31 41.982 176.155 46.0588 173.658H46.0619C51.3275 170.435 57.1004 171.643 57.1004 171.643L110.146 172.068C111.091 172.497 111.964 173.067 112.736 173.759C117.463 178.163 110.571 183.912 110.571 183.912C95.7761 199.562 106.976 215.425 106.976 215.425H134.119C139.19 215.451 144.149 213.932 148.337 211.069C152.005 208.534 153.425 206.078 153.974 204.594C154.392 203.458 154.817 202.325 155.324 201.228C162.444 185.774 153.856 160.635 150.15 151.234C149.231 148.896 148.613 147.532 148.613 147.532L157.125 146.888L162.508 146.479L162.561 146.475C174.424 166.951 178.834 187.992 180.317 203.582C180.457 205.05 180.571 206.475 180.663 207.842C180.832 210.443 180.465 213.05 179.586 215.503C178.707 217.956 177.335 220.202 175.553 222.103C173.771 224.003 171.619 225.518 169.229 226.552C166.839 227.586 164.262 228.118 161.658 228.115Z" fill="#2C3BD1"/>
<path opacity="0.1" d="M110.838 172.49H48.4365V169.892H110.444C110.584 170.787 110.717 171.669 110.838 172.49Z" fill="black"/>
<path opacity="0.1" d="M112.736 173.759H46.5624C46.3902 173.76 46.2197 173.726 46.0615 173.658C51.3271 170.435 57.1 171.643 57.1 171.643L110.146 172.068C111.09 172.497 111.964 173.067 112.736 173.759Z" fill="black"/>
<path d="M113.288 170.528H23.4098C22.6932 170.528 22.1123 171.109 22.1123 171.826C22.1123 172.544 22.6932 173.125 23.4098 173.125H113.288C114.004 173.125 114.585 172.544 114.585 171.826C114.585 171.109 114.004 170.528 113.288 170.528Z" fill="#DCE0ED"/>
<path opacity="0.1" d="M180.317 203.582C177.302 206.862 175.083 208.153 175.187 204.692C175.505 194.222 157.124 146.888 157.124 146.888L162.561 146.475C174.423 166.951 178.833 187.992 180.317 203.582Z" fill="black"/>
<path opacity="0.1" d="M206.094 223.556C202.971 224.305 199.11 225.066 194.348 225.764C192.579 226.024 190.682 226.274 188.655 226.513C183.795 227.09 178.174 227.595 171.682 227.982C169.843 228.093 167.934 228.193 165.953 228.283C162.244 228.451 158.274 228.58 154.043 228.67L153.964 227.389V227.366C159.876 224.977 169.177 218.604 170.677 202.002C174.413 200.561 178.43 199.997 182.419 200.355C186.407 200.712 190.26 201.981 193.682 204.063C197.103 206.145 200.001 208.985 202.153 212.365C204.305 215.744 205.653 219.573 206.094 223.556Z" fill="black"/>
<path d="M149.034 228.115C149.034 228.115 179.055 224.861 168.721 179.078C168.721 179.078 183.556 192.686 192.782 200.25C202.009 207.815 218.454 218.242 218.454 218.242C218.454 218.242 208.633 227.428 149.034 228.115Z" fill="#2C3BD1"/>
<path opacity="0.1" d="M149.034 228.115C149.034 228.115 179.055 224.861 168.721 179.078C168.721 179.078 183.556 192.686 192.782 200.25C202.009 207.815 218.454 218.242 218.454 218.242C218.454 218.242 208.633 227.428 149.034 228.115Z" fill="white"/>
<path d="M68.8294 252.598C83.2737 252.598 94.9831 240.879 94.9831 226.424C94.9831 211.969 83.2737 200.25 68.8294 200.25C54.3852 200.25 42.6758 211.969 42.6758 226.424C42.6758 240.879 54.3852 252.598 68.8294 252.598Z" fill="#65617D"/>
<path d="M68.8291 240.701C76.7078 240.701 83.0948 234.309 83.0948 226.424C83.0948 218.539 76.7078 212.148 68.8291 212.148C60.9504 212.148 54.5635 218.539 54.5635 226.424C54.5635 234.309 60.9504 240.701 68.8291 240.701Z" fill="#DCE0ED"/>
<path d="M68.8299 234.99C73.5571 234.99 77.3893 231.155 77.3893 226.424C77.3893 221.693 73.5571 217.858 68.8299 217.858C64.1027 217.858 60.2705 221.693 60.2705 226.424C60.2705 231.155 64.1027 234.99 68.8299 234.99Z" fill="#65617D"/>
<path opacity="0.1" d="M98.153 218.564C98.153 201.661 84.7404 187.959 68.1951 187.959C51.6499 187.959 38.2373 201.661 38.2373 218.564C38.2373 219.277 38.2632 219.984 38.3102 220.685H98.0801C98.1271 219.984 98.153 219.277 98.153 218.564Z" fill="black"/>
<path d="M97.0442 218.036C97.0442 201.76 84.1284 188.565 68.1959 188.565C52.2635 188.565 39.3477 201.76 39.3477 218.036C39.3477 218.723 39.3726 219.404 39.4178 220.079H96.9741C97.0193 219.404 97.0442 218.723 97.0442 218.036Z" fill="#2C3BD1"/>
<path opacity="0.1" d="M97.0442 218.036C97.0442 218.509 97.0316 218.978 97.0093 219.444C96.9998 219.657 96.9871 219.866 96.9745 220.079H39.4174C39.4047 219.866 39.392 219.657 39.3825 219.444C39.3603 218.978 39.3477 218.509 39.3477 218.036C39.3477 201.761 52.2628 188.566 68.1959 188.566C84.1291 188.566 97.0442 201.761 97.0442 218.036Z" fill="white"/>
<path opacity="0.1" d="M97.0086 219.444C96.9991 219.657 96.9865 219.866 96.9738 220.079H39.4167C39.4041 219.866 39.3914 219.657 39.3818 219.444H97.0086Z" fill="black"/>
<path opacity="0.1" d="M175.161 175.928C177.072 175.064 176.857 170.459 174.681 165.644C172.505 160.828 169.192 157.625 167.282 158.49C165.371 159.355 165.586 163.959 167.762 168.775C169.938 173.59 173.251 176.793 175.161 175.928Z" fill="black"/>
<path d="M175.478 175.611C177.388 174.746 177.173 170.142 174.997 165.326C172.821 160.511 169.509 157.308 167.598 158.173C165.687 159.037 165.903 163.642 168.078 168.457C170.254 173.273 173.567 176.476 175.478 175.611Z" fill="#DCE0ED"/>
<path opacity="0.1" d="M162.507 146.478V151.45H152.838C151.938 151.451 151.039 151.379 150.15 151.234C149.23 148.896 148.612 147.532 148.612 147.532L157.124 146.888L162.507 146.478Z" fill="black"/>
<path d="M162.507 150.815H152.838C144.347 150.815 137.463 144.457 137.463 136.614V135.296C137.463 127.453 144.347 121.095 152.838 121.095L162.507 121.973V150.815Z" fill="#2C3BD1"/>
<path d="M146.578 129.502C146.578 129.502 152.363 132.595 149.034 137.83C149.034 137.83 144.953 144.532 138.533 143.898L136.195 129.502C136.195 129.502 143.883 128.788 146.578 129.502Z" fill="#2C3BD1"/>
<path opacity="0.1" d="M144.357 129.222C145.275 129.258 146.174 129.5 146.987 129.929C147.8 130.358 148.506 130.965 149.054 131.703C150.085 133.131 150.699 135.213 149.034 137.83C149.034 137.83 144.953 144.532 138.533 143.898L136.195 129.502C138.908 129.253 141.633 129.16 144.357 129.222Z" fill="black"/>
<path opacity="0.1" d="M162.19 121.973C163.21 121.973 164.22 122.174 165.163 122.565C166.105 122.955 166.961 123.528 167.682 124.25C168.404 124.972 168.976 125.828 169.366 126.771C169.756 127.714 169.957 128.725 169.957 129.746V143.042C169.957 145.104 169.139 147.081 167.682 148.538C166.226 149.996 164.25 150.815 162.19 150.815V121.973Z" fill="black"/>
<path d="M162.507 121.973C164.567 121.973 166.542 122.792 167.999 124.25C169.455 125.707 170.274 127.684 170.274 129.746V143.042C170.274 145.104 169.455 147.081 167.999 148.538C166.542 149.996 164.567 150.815 162.507 150.815V121.973Z" fill="#DCE0ED"/>
<path d="M135.525 144.81C139.073 144.81 141.949 141.308 141.949 136.989C141.949 132.67 139.073 129.168 135.525 129.168C131.978 129.168 129.102 132.67 129.102 136.989C129.102 141.308 131.978 144.81 135.525 144.81Z" fill="#2C3BD1"/>
<path d="M67.1191 173.143L69.926 179.398L74.6166 173.143" stroke="black" stroke-miterlimit="10"/>
<path d="M81.128 179.659H58.2402V202.169H81.128V179.659Z" fill="white"/>
<path d="M68.5565 201.117V198.607C67.2131 198.602 65.8973 198.224 64.7568 197.513L65.3529 195.848C66.5221 196.54 67.8541 196.909 69.2125 196.916C70.9757 196.916 72.1678 195.897 72.1678 194.481C72.1678 193.114 71.1993 192.269 69.3614 191.523C66.8283 190.529 65.5471 189.386 65.5471 187.223C65.5471 185.161 66.8706 183.595 69.1555 183.222V180.712H70.4117V183.123C71.5446 183.132 72.6562 183.431 73.6404 183.993L73.0194 185.633C72.1278 185.064 71.089 184.77 70.0319 184.788C68.1197 184.788 67.6828 185.931 67.6828 186.925C67.6828 188.218 68.3183 188.864 70.479 189.759C73.0369 190.802 74.6116 192.095 74.6116 194.307C74.6116 196.27 73.2458 198.109 70.6879 198.532V201.117L68.5565 201.117Z" fill="#636780"/>
<path d="M28.2192 120.155H24.8135V172.741H28.2192V120.155Z" fill="#DCE0ED"/>
<path d="M24.8133 120.155C24.8133 120.155 12.1634 120.642 9.7307 121.615C7.29803 122.589 0 122.102 0 122.102V135.736C0 135.736 8.2711 133.788 12.6499 135.249C17.0287 136.709 26.2729 133.301 26.2729 133.301L24.8133 120.155Z" fill="#DCE0ED"/>
</g>
<defs>
<clipPath id="clip0">
<rect width="542" height="289" fill="white"/>
</clipPath>
</defs>
</svg>
