<svg width="60" height="50" viewBox="0 0 60 50" fill="none" xmlns="http://www.w3.org/2000/svg">
<path fill-rule="evenodd" clip-rule="evenodd" d="M30 27.7129C36.4689 27.7129 41.7129 22.4689 41.7129 16C41.7129 9.53113 36.4689 4.28708 30 4.28708C23.5311 4.28708 18.2871 9.53113 18.2871 16C18.2871 22.4689 23.5311 27.7129 30 27.7129ZM30 32C38.8366 32 46 24.8366 46 16C46 7.16344 38.8366 0 30 0C21.1634 0 14 7.16344 14 16C14 24.8366 21.1634 32 30 32Z" fill="#242742"/>
<path d="M39.0772 14.4496C40.046 14.6965 41.1719 13.9305 41.5598 13.3372L42.6722 14.4496V18.9451L40.6412 20.9761C40.6412 19.5263 39.0982 19.0517 38.6344 18.8609C35.6661 17.6401 33.2235 22.8795 32.3732 25.5755L32.6824 27.4067L31.0086 28.8612H28.9914L27.0144 27.4067L27.3206 25.5694C26.4785 22.8644 24.0593 17.6077 21.1196 18.8325C20.6603 19.0239 19.2057 19.5215 19.2057 20.9761L17.31 19.0803L17.31 14.4971L18.4402 13.3669C18.8281 13.9697 19.954 14.748 20.9228 14.4971C22.0866 14.1957 25.733 11.4833 28.9914 11.4833H31.0086C34.267 11.4833 37.9134 14.1529 39.0772 14.4496Z" fill="#242742"/>
<path fill-rule="evenodd" clip-rule="evenodd" d="M22.2883 14.0342C21.7379 14.3276 21.2737 14.5644 20.9612 14.6453C20.4261 14.7839 19.8619 14.636 19.3921 14.3875C18.9942 14.1771 18.6465 13.8854 18.4213 13.6023L17.4631 14.5605L17.4631 19.0169L19.0792 20.633C19.1751 20.0314 19.5177 19.6067 19.896 19.3101C20.2861 19.0042 20.7235 18.8277 20.9729 18.727C21.0056 18.7138 21.035 18.7019 21.0607 18.6912C21.8459 18.3641 22.5975 18.4726 23.2846 18.8542C23.966 19.2326 24.586 19.8796 25.131 20.6379C26.2217 22.1554 27.0431 24.1629 27.4668 25.5239L27.4776 25.5586L27.1808 27.3391L29.0417 28.7081H30.9513L32.5171 27.3475L32.2161 25.5646L32.2272 25.5294C32.6551 24.1728 33.4844 22.1719 34.5858 20.6593C35.1362 19.9033 35.7622 19.2586 36.4498 18.8816C37.1431 18.5016 37.9009 18.3937 38.6926 18.7193C38.7265 18.7332 38.7676 18.7492 38.8146 18.7674C39.0732 18.8676 39.5102 19.0369 39.9019 19.3227C40.2994 19.6127 40.6645 20.0322 40.7662 20.6345L42.5191 18.8816V14.513L41.5777 13.5716C41.3524 13.8504 41.0046 14.1373 40.607 14.3443C40.1373 14.5888 39.5737 14.7341 39.0394 14.5979C38.7271 14.5183 38.2631 14.2854 37.7126 13.9965C37.5989 13.9368 37.4808 13.8744 37.3588 13.8099C36.8813 13.5574 36.3426 13.2725 35.762 12.9931C34.3012 12.2903 32.6013 11.6364 31.0086 11.6364H28.9914C27.3992 11.6364 25.6997 12.3006 24.2389 13.0147C23.6583 13.2985 23.1196 13.5879 22.6422 13.8445C22.5201 13.9101 22.4021 13.9735 22.2883 14.0342ZM24.1044 12.7396C25.5722 12.0221 27.3251 11.3301 28.9914 11.3301H31.0086C32.6743 11.3301 34.4269 12.011 35.8948 12.7172C36.4812 12.9993 37.0264 13.2877 37.5042 13.5404C37.6256 13.6046 37.7426 13.6664 37.8549 13.7254C38.4172 14.0205 38.8454 14.2325 39.115 14.3012C39.5495 14.4119 40.0332 14.2977 40.4656 14.0726C40.898 13.8476 41.2547 13.5241 41.4317 13.2534L41.5348 13.0957L42.8253 14.3861V19.0085L40.488 21.3457V20.9761C40.488 20.3157 40.1402 19.8756 39.7214 19.5701C39.3658 19.3106 38.9733 19.1579 38.712 19.0563C38.6614 19.0366 38.6157 19.0188 38.5761 19.0025C37.8837 18.7177 37.2231 18.8069 36.597 19.1502C35.9653 19.4965 35.3709 20.1012 34.8333 20.8395C33.7681 22.3026 32.9559 24.248 32.5303 25.5864L32.8477 27.4659L31.0658 29.0144H28.9412L26.8479 27.4743L27.1636 25.5802C26.7421 24.2372 25.9376 22.2848 24.8824 20.8166C24.3499 20.0758 23.7613 19.4692 23.136 19.1219C22.5164 18.7778 21.8632 18.6886 21.1785 18.9739C21.1503 18.9856 21.1191 18.9983 21.0853 19.012C20.8338 19.1138 20.4382 19.2741 20.0849 19.5511C19.6893 19.8613 19.3589 20.3088 19.3589 20.9761V21.3457L17.1569 19.1437L17.1569 14.4337L18.4662 13.1244L18.5689 13.2841C18.7462 13.5595 19.1031 13.8882 19.5353 14.1168C19.9676 14.3455 20.4507 14.4612 20.8845 14.3489C21.1538 14.2791 21.5818 14.0638 22.1442 13.764C22.2565 13.7041 22.3735 13.6412 22.4949 13.576C22.9727 13.3193 23.5179 13.0263 24.1044 12.7396Z" fill="#242742"/>
<path d="M6.24619 43.978C6.24619 42.934 6.45619 42.022 6.87619 41.242C7.30819 40.462 7.90219 39.862 8.65819 39.442C9.42619 39.022 10.3022 38.812 11.2862 38.812C12.5462 38.812 13.5962 39.142 14.4362 39.802C15.2882 40.462 15.8462 41.392 16.1102 42.592H12.8342C12.5582 41.824 12.0242 41.44 11.2322 41.44C10.6682 41.44 10.2182 41.662 9.88219 42.106C9.54619 42.538 9.37819 43.162 9.37819 43.978C9.37819 44.794 9.54619 45.424 9.88219 45.868C10.2182 46.3 10.6682 46.516 11.2322 46.516C12.0242 46.516 12.5582 46.132 12.8342 45.364H16.1102C15.8462 46.54 15.2882 47.464 14.4362 48.136C13.5842 48.808 12.5342 49.144 11.2862 49.144C10.3022 49.144 9.42619 48.934 8.65819 48.514C7.90219 48.094 7.30819 47.494 6.87619 46.714C6.45619 45.934 6.24619 45.022 6.24619 43.978ZM17.1446 43.96C17.1446 42.928 17.3366 42.022 17.7206 41.242C18.1166 40.462 18.6506 39.862 19.3226 39.442C19.9946 39.022 20.7446 38.812 21.5726 38.812C22.2806 38.812 22.8986 38.956 23.4266 39.244C23.9666 39.532 24.3806 39.91 24.6686 40.378V38.956H27.7466V49H24.6686V47.578C24.3686 48.046 23.9486 48.424 23.4086 48.712C22.8806 49 22.2626 49.144 21.5546 49.144C20.7386 49.144 19.9946 48.934 19.3226 48.514C18.6506 48.082 18.1166 47.476 17.7206 46.696C17.3366 45.904 17.1446 44.992 17.1446 43.96ZM24.6686 43.978C24.6686 43.21 24.4526 42.604 24.0206 42.16C23.6006 41.716 23.0846 41.494 22.4726 41.494C21.8606 41.494 21.3386 41.716 20.9066 42.16C20.4866 42.592 20.2766 43.192 20.2766 43.96C20.2766 44.728 20.4866 45.34 20.9066 45.796C21.3386 46.24 21.8606 46.462 22.4726 46.462C23.0846 46.462 23.6006 46.24 24.0206 45.796C24.4526 45.352 24.6686 44.746 24.6686 43.978ZM33.0514 40.63C33.4114 40.078 33.8614 39.646 34.4014 39.334C34.9414 39.01 35.5414 38.848 36.2014 38.848V42.106H35.3554C34.5874 42.106 34.0114 42.274 33.6274 42.61C33.2434 42.934 33.0514 43.51 33.0514 44.338V49H29.9734V38.956H33.0514V40.63ZM39.1126 49.144C38.5726 49.144 38.1286 48.988 37.7806 48.676C37.4446 48.352 37.2766 47.956 37.2766 47.488C37.2766 47.008 37.4446 46.606 37.7806 46.282C38.1286 45.958 38.5726 45.796 39.1126 45.796C39.6406 45.796 40.0726 45.958 40.4086 46.282C40.7566 46.606 40.9306 47.008 40.9306 47.488C40.9306 47.956 40.7566 48.352 40.4086 48.676C40.0726 48.988 39.6406 49.144 39.1126 49.144ZM44.3007 37.912C43.7607 37.912 43.3167 37.756 42.9687 37.444C42.6327 37.12 42.4647 36.724 42.4647 36.256C42.4647 35.776 42.6327 35.38 42.9687 35.068C43.3167 34.744 43.7607 34.582 44.3007 34.582C44.8287 34.582 45.2607 34.744 45.5967 35.068C45.9447 35.38 46.1187 35.776 46.1187 36.256C46.1187 36.724 45.9447 37.12 45.5967 37.444C45.2607 37.756 44.8287 37.912 44.3007 37.912ZM45.8307 38.956V49H42.7527V38.956H45.8307ZM53.6593 46.39V49H52.0933C50.9773 49 50.1073 48.73 49.4833 48.19C48.8593 47.638 48.5473 46.744 48.5473 45.508V41.512H47.3233V38.956H48.5473V36.508H51.6253V38.956H53.6413V41.512H51.6253V45.544C51.6253 45.844 51.6973 46.06 51.8413 46.192C51.9853 46.324 52.2253 46.39 52.5613 46.39H53.6593Z" fill="#242742"/>
</svg>
