<svg width="402" height="310" viewBox="0 0 402 310" fill="none" xmlns="http://www.w3.org/2000/svg">
  <g clip-path="url(#clip0)">
    <path opacity="0.1" d="M333.384 45.7323C335.535 48.3501 336.363 52.0306 337.289 55.4907C344.748 83.3762 363.127 105.806 384.057 121.827C392.921 128.613 403.712 137.714 401.772 149.882C400.728 156.416 396.147 161.227 392.744 166.549C385.604 177.692 383.288 192.84 386.691 206.18C390.561 221.359 401.38 235.522 398.032 250.87C395.967 260.318 388.956 267.041 382.216 272.82C371.701 281.829 360.851 290.268 349.666 298.139C342.169 303.413 334.192 308.547 325.454 309.216C317.76 309.806 310.223 306.874 302.918 303.98C296.535 301.449 289.992 298.816 284.838 293.746C281.474 290.435 278.793 286.164 275.055 283.456C266.278 277.095 255.004 281.126 244.94 283.849C221.191 290.242 195.773 287.908 173.175 277.26C138.509 260.924 112.087 226.618 78.1792 208.211C63.6001 200.295 47.7413 195.383 34.2417 185.187C26.6363 179.383 20.1004 172.29 14.9286 164.23C4.72247 148.441 -0.79669 128.31 0.797037 108.605C2.39076 88.899 11.3211 69.9098 25.3467 58.7855C40.3615 46.8778 59.3253 44.6538 76.4088 37.5053C94.0418 30.1127 109.736 17.4138 127.2 9.49773C141.341 3.10245 156.73 -0.0363428 172.238 0.311733C187.747 0.659809 202.98 4.48592 216.822 11.5092C235.84 21.1534 255.11 43.6539 276.292 45.3623C291.381 46.5432 321.599 31.396 333.384 45.7323Z" fill="#6C63FF" />
    <path d="M61.2206 136.92C61.2206 136.92 66.936 117.455 60.1489 103.13C57.2624 97.1391 56.3919 90.3709 57.6681 83.8416C58.2985 80.7466 59.2103 77.716 60.3923 74.7878" stroke="#535461" stroke-width="2" stroke-miterlimit="10" />
    <path d="M56.1491 65.7379C56.1491 68.1233 60.4671 75.0396 60.4671 75.0396C60.4671 75.0396 64.7851 68.1233 64.7851 65.7379C64.8289 65.1439 64.7501 64.5473 64.5536 63.9853C64.357 63.4233 64.047 62.908 63.6428 62.4717C63.2387 62.0353 62.7491 61.6872 62.2047 61.4491C61.6603 61.2111 61.0728 61.0883 60.4789 61.0883C59.885 61.0883 59.2975 61.2111 58.7531 61.4491C58.2087 61.6872 57.7191 62.0353 57.3149 62.4717C56.9108 62.908 56.6007 63.4233 56.4042 63.9853C56.2077 64.5473 56.1288 65.1439 56.1727 65.7379H56.1491Z" fill="#6C63FF" />
    <path d="M49.0485 78.9485C50.3399 80.9521 57.7197 84.4122 57.7197 84.4122C57.7197 84.4122 57.5863 76.2599 56.2948 74.2563C55.6379 73.3805 54.6743 72.7871 53.5983 72.5956C52.5223 72.4042 51.414 72.629 50.4967 73.2247C49.5795 73.8205 48.9217 74.7428 48.6558 75.8057C48.3899 76.8686 48.5359 77.9931 49.0642 78.9524L49.0485 78.9485Z" fill="#6C63FF" />
    <path d="M49.3583 101.532C51.482 102.606 59.5645 101.862 59.5645 101.862C59.5645 101.862 55.3446 94.8909 53.2209 93.8163C52.214 93.3971 51.0863 93.3754 50.0641 93.7555C49.0418 94.1356 48.2008 94.8894 47.7099 95.8655C47.2189 96.8417 47.1144 97.9679 47.4173 99.0182C47.7201 100.068 48.4079 100.965 49.3426 101.528L49.3583 101.532Z" fill="#6C63FF" />
    <path d="M53.4286 118.58C55.3402 119.997 63.4502 120.639 63.4502 120.639C63.4502 120.639 60.4669 113.053 58.5513 111.632C57.6294 111.071 56.5313 110.875 55.473 111.085C54.4147 111.294 53.4729 111.893 52.8329 112.764C52.193 113.635 51.9012 114.714 52.0151 115.79C52.129 116.866 52.6402 117.86 53.4482 118.576L53.4286 118.58Z" fill="#6C63FF" />
    <path d="M66.748 84.873C65.0404 86.5341 57.0914 88.2583 57.0914 88.2583C57.0914 88.2583 59.0541 80.3421 60.746 78.677C61.1408 78.2333 61.6225 77.8758 62.1611 77.6269C62.6996 77.3781 63.2836 77.2431 63.8765 77.2305C64.4694 77.2178 65.0585 77.3278 65.6071 77.5535C66.1558 77.7793 66.6522 78.1159 67.0654 78.5425C67.4786 78.969 67.7997 79.4764 68.0088 80.0328C68.2179 80.5893 68.3105 81.1831 68.2807 81.777C68.2509 82.3709 68.0994 82.9523 67.8357 83.485C67.572 84.0176 67.2018 84.4901 66.748 84.873V84.873Z" fill="#6C63FF" />
    <path d="M71.2581 104.854C69.1345 105.929 61.052 105.185 61.052 105.185C61.052 105.185 65.2719 98.2134 67.3955 97.1388C68.4024 96.7196 69.5302 96.6979 70.5524 97.078C71.5746 97.4581 72.4156 98.2119 72.9066 99.1881C73.3975 100.164 73.502 101.29 73.1992 102.341C72.8964 103.391 72.2086 104.287 71.2739 104.85L71.2581 104.854Z" fill="#6C63FF" />
    <path d="M72.986 124.879C71.0743 126.296 62.9643 126.937 62.9643 126.937C62.9643 126.937 65.9476 119.352 67.8633 117.931C68.3123 117.533 68.839 117.232 69.41 117.049C69.981 116.867 70.5837 116.805 71.1798 116.868C71.7759 116.932 72.3523 117.119 72.8722 117.418C73.3922 117.717 73.8444 118.121 74.2 118.605C74.5556 119.089 74.8069 119.642 74.9378 120.229C75.0687 120.815 75.0763 121.423 74.9603 122.012C74.8442 122.602 74.607 123.161 74.2637 123.654C73.9204 124.147 73.4786 124.562 72.9663 124.875L72.986 124.879Z" fill="#6C63FF" />
    <path opacity="0.1" d="M56.1491 65.7379C56.1491 68.1233 60.4671 75.0396 60.4671 75.0396C60.4671 75.0396 64.7851 68.1233 64.7851 65.7379C64.8289 65.1439 64.7501 64.5473 64.5536 63.9853C64.357 63.4233 64.047 62.908 63.6428 62.4717C63.2387 62.0353 62.7491 61.6872 62.2047 61.4491C61.6603 61.2111 61.0728 61.0883 60.4789 61.0883C59.885 61.0883 59.2975 61.2111 58.7531 61.4491C58.2087 61.6872 57.7191 62.0353 57.3149 62.4717C56.9108 62.908 56.6007 63.4233 56.4042 63.9853C56.2077 64.5473 56.1288 65.1439 56.1727 65.7379H56.1491Z" fill="#6C63FF" />
    <path opacity="0.1" d="M49.0485 78.9485C50.3399 80.9521 57.7197 84.4122 57.7197 84.4122C57.7197 84.4122 57.5863 76.2599 56.2948 74.2563C55.6379 73.3805 54.6743 72.7871 53.5983 72.5956C52.5223 72.4042 51.414 72.629 50.4967 73.2247C49.5795 73.8205 48.9217 74.7428 48.6558 75.8057C48.3899 76.8686 48.5359 77.9931 49.0642 78.9524L49.0485 78.9485Z" fill="#6C63FF" />
    <path opacity="0.1" d="M49.3583 101.532C51.482 102.606 59.5645 101.862 59.5645 101.862C59.5645 101.862 55.3446 94.8909 53.2209 93.8163C52.214 93.3971 51.0863 93.3754 50.0641 93.7555C49.0418 94.1356 48.2008 94.8894 47.7099 95.8655C47.2189 96.8417 47.1144 97.9679 47.4173 99.0182C47.7201 100.068 48.4079 100.965 49.3426 101.528L49.3583 101.532Z" fill="#6C63FF" />
    <path opacity="0.1" d="M53.4286 118.58C55.3402 119.997 63.4502 120.639 63.4502 120.639C63.4502 120.639 60.4669 113.053 58.5513 111.632C57.6294 111.071 56.5313 110.875 55.473 111.085C54.4147 111.294 53.4729 111.893 52.8329 112.764C52.193 113.635 51.9012 114.714 52.0151 115.79C52.129 116.866 52.6402 117.86 53.4482 118.576L53.4286 118.58Z" fill="#6C63FF" />
    <path opacity="0.1" d="M66.748 84.873C65.0404 86.5341 57.0914 88.2583 57.0914 88.2583C57.0914 88.2583 59.0541 80.3421 60.746 78.677C61.1408 78.2333 61.6225 77.8758 62.1611 77.6269C62.6996 77.3781 63.2836 77.2431 63.8765 77.2305C64.4694 77.2178 65.0585 77.3278 65.6071 77.5535C66.1558 77.7793 66.6522 78.1159 67.0654 78.5425C67.4786 78.969 67.7997 79.4764 68.0088 80.0328C68.2179 80.5893 68.3105 81.1831 68.2807 81.777C68.2509 82.3709 68.0994 82.9523 67.8357 83.485C67.572 84.0176 67.2018 84.4901 66.748 84.873V84.873Z" fill="#6C63FF" />
    <path opacity="0.1" d="M71.2581 104.854C69.1345 105.929 61.052 105.185 61.052 105.185C61.052 105.185 65.2719 98.2134 67.3955 97.1388C68.4024 96.7196 69.5302 96.6979 70.5524 97.078C71.5746 97.4581 72.4156 98.2119 72.9066 99.1881C73.3975 100.164 73.502 101.29 73.1992 102.341C72.8964 103.391 72.2086 104.287 71.2739 104.85L71.2581 104.854Z" fill="#6C63FF" />
    <path opacity="0.1" d="M72.986 124.879C71.0743 126.296 62.9643 126.937 62.9643 126.937C62.9643 126.937 65.9476 119.352 67.8633 117.931C68.3123 117.533 68.839 117.232 69.41 117.049C69.981 116.867 70.5837 116.805 71.1798 116.868C71.7759 116.932 72.3523 117.119 72.8722 117.418C73.3922 117.717 73.8444 118.121 74.2 118.605C74.5556 119.089 74.8069 119.642 74.9378 120.229C75.0687 120.815 75.0763 121.423 74.9603 122.012C74.8442 122.602 74.607 123.161 74.2637 123.654C73.9204 124.147 73.4786 124.562 72.9663 124.875L72.986 124.879Z" fill="#6C63FF" />
    <path d="M37.2762 168.017C37.2762 168.017 42.9917 148.552 36.2046 134.227C33.318 128.237 32.4475 121.468 33.7237 114.939C34.3541 111.844 35.266 108.813 36.448 105.885" stroke="#535461" stroke-width="2" stroke-miterlimit="10" />
    <path d="M32.2039 96.8355C32.2039 99.221 36.5218 106.137 36.5218 106.137C36.5218 106.137 40.8398 99.221 40.8398 96.8355C40.8836 96.2416 40.8048 95.645 40.6082 95.083C40.4117 94.521 40.1017 94.0057 39.6975 93.5693C39.2934 93.1329 38.8038 92.7848 38.2594 92.5468C37.715 92.3088 37.1275 92.1859 36.5336 92.1859C35.9397 92.1859 35.3522 92.3088 34.8078 92.5468C34.2634 92.7848 33.7738 93.1329 33.3696 93.5693C32.9655 94.0057 32.6555 94.521 32.4589 95.083C32.2624 95.645 32.1836 96.2416 32.2274 96.8355H32.2039Z" fill="#6C63FF" />
    <path d="M25.1032 110.046C26.3947 112.05 33.7588 115.506 33.7588 115.506C33.7588 115.506 33.6253 107.354 32.3339 105.35C32.0474 104.83 31.6573 104.374 31.1877 104.012C30.7181 103.649 30.1792 103.388 29.6044 103.243C29.0297 103.099 28.4315 103.074 27.8469 103.172C27.2623 103.269 26.704 103.486 26.2067 103.809C25.7093 104.132 25.2836 104.554 24.956 105.049C24.6283 105.544 24.4059 106.102 24.3024 106.687C24.1988 107.272 24.2165 107.872 24.3543 108.45C24.4921 109.028 24.747 109.571 25.1032 110.046V110.046Z" fill="#6C63FF" />
    <path d="M25.413 132.629C27.5366 133.704 35.6191 132.96 35.6191 132.96C35.6191 132.96 31.3993 125.989 29.2757 124.914C28.7666 124.607 28.1999 124.409 27.6111 124.332C27.0223 124.255 26.4239 124.301 25.8535 124.467C25.2831 124.632 24.7528 124.914 24.2958 125.294C23.8388 125.674 23.4649 126.145 23.1976 126.676C22.9302 127.208 22.775 127.789 22.7418 128.384C22.7085 128.978 22.7979 129.573 23.0043 130.132C23.2108 130.69 23.5298 131.2 23.9416 131.629C24.3533 132.058 24.8489 132.397 25.3973 132.625L25.413 132.629Z" fill="#6C63FF" />
    <path d="M29.4842 149.678C31.3959 151.095 39.5059 151.737 39.5059 151.737C39.5059 151.737 36.5225 144.151 34.6069 142.73C33.6851 142.168 32.5869 141.973 31.5286 142.182C30.4703 142.392 29.5285 142.991 28.8886 143.862C28.2486 144.732 27.9569 145.812 28.0707 146.888C28.1846 147.963 28.6958 148.957 29.5038 149.674L29.4842 149.678Z" fill="#6C63FF" />
    <path d="M42.8026 115.97C41.0951 117.632 33.1461 119.356 33.1461 119.356C33.1461 119.356 35.1088 111.44 36.8006 109.774C37.6361 109.07 38.7068 108.708 39.7973 108.763C40.8877 108.818 41.9169 109.285 42.6777 110.071C43.4384 110.856 43.8743 111.901 43.8975 112.996C43.9206 114.091 43.5295 115.153 42.8026 115.97V115.97Z" fill="#6C63FF" />
    <path d="M47.3128 135.952C45.1892 137.026 37.1067 136.282 37.1067 136.282C37.1067 136.282 41.3265 129.311 43.4502 128.236C44.4571 127.817 45.5849 127.795 46.6071 128.176C47.6293 128.556 48.4703 129.309 48.9613 130.286C49.4522 131.262 49.5567 132.388 49.2539 133.438C48.951 134.488 48.2632 135.385 47.3285 135.948L47.3128 135.952Z" fill="#6C63FF" />
    <path d="M49.0406 155.976C47.129 157.393 39.019 158.035 39.019 158.035C39.019 158.035 42.0023 150.449 43.9179 149.028C44.3669 148.63 44.8937 148.33 45.4647 148.147C46.0357 147.964 46.6384 147.903 47.2345 147.966C47.8306 148.029 48.407 148.217 48.9269 148.516C49.4469 148.815 49.8991 149.219 50.2547 149.703C50.6103 150.187 50.8616 150.74 50.9925 151.326C51.1234 151.913 51.131 152.52 51.015 153.11C50.8989 153.7 50.6617 154.259 50.3184 154.752C49.9751 155.244 49.5333 155.66 49.021 155.972L49.0406 155.976Z" fill="#6C63FF" />
    <path opacity="0.1" d="M32.2039 96.8355C32.2039 99.221 36.5218 106.137 36.5218 106.137C36.5218 106.137 40.8398 99.221 40.8398 96.8355C40.8836 96.2416 40.8048 95.645 40.6082 95.083C40.4117 94.521 40.1017 94.0057 39.6975 93.5693C39.2934 93.1329 38.8038 92.7848 38.2594 92.5468C37.715 92.3088 37.1275 92.1859 36.5336 92.1859C35.9397 92.1859 35.3522 92.3088 34.8078 92.5468C34.2634 92.7848 33.7738 93.1329 33.3696 93.5693C32.9655 94.0057 32.6555 94.521 32.4589 95.083C32.2624 95.645 32.1836 96.2416 32.2274 96.8355H32.2039Z" fill="#6C63FF" />
    <path opacity="0.1" d="M25.1032 110.046C26.3947 112.05 33.7588 115.506 33.7588 115.506C33.7588 115.506 33.6253 107.354 32.3339 105.35C32.0474 104.83 31.6573 104.374 31.1877 104.012C30.7181 103.649 30.1792 103.388 29.6044 103.243C29.0297 103.099 28.4315 103.074 27.8469 103.172C27.2623 103.269 26.704 103.486 26.2067 103.809C25.7093 104.132 25.2836 104.554 24.956 105.049C24.6283 105.544 24.4059 106.102 24.3024 106.687C24.1988 107.272 24.2165 107.872 24.3543 108.45C24.4921 109.028 24.747 109.571 25.1032 110.046V110.046Z" fill="#6C63FF" />
    <path opacity="0.1" d="M25.413 132.629C27.5366 133.704 35.6191 132.96 35.6191 132.96C35.6191 132.96 31.3993 125.989 29.2757 124.914C28.7666 124.607 28.1999 124.409 27.6111 124.332C27.0223 124.255 26.4239 124.301 25.8535 124.467C25.2831 124.632 24.7528 124.914 24.2958 125.294C23.8388 125.674 23.4649 126.145 23.1976 126.676C22.9302 127.208 22.775 127.789 22.7418 128.384C22.7085 128.978 22.7979 129.573 23.0043 130.132C23.2108 130.69 23.5298 131.2 23.9416 131.629C24.3533 132.058 24.8489 132.397 25.3973 132.625L25.413 132.629Z" fill="#6C63FF" />
    <path opacity="0.1" d="M29.4842 149.678C31.3959 151.095 39.5059 151.737 39.5059 151.737C39.5059 151.737 36.5225 144.151 34.6069 142.73C33.6851 142.168 32.5869 141.973 31.5286 142.182C30.4703 142.392 29.5285 142.991 28.8886 143.862C28.2486 144.732 27.9569 145.812 28.0707 146.888C28.1846 147.963 28.6958 148.957 29.5038 149.674L29.4842 149.678Z" fill="#6C63FF" />
    <path opacity="0.1" d="M42.8026 115.97C41.0951 117.632 33.1461 119.356 33.1461 119.356C33.1461 119.356 35.1088 111.44 36.8006 109.774C37.6361 109.07 38.7068 108.708 39.7973 108.763C40.8877 108.818 41.9169 109.285 42.6777 110.071C43.4384 110.856 43.8743 111.901 43.8975 112.996C43.9206 114.091 43.5295 115.153 42.8026 115.97V115.97Z" fill="#6C63FF" />
    <path opacity="0.1" d="M47.3128 135.952C45.1892 137.026 37.1067 136.282 37.1067 136.282C37.1067 136.282 41.3265 129.311 43.4502 128.236C44.4571 127.817 45.5849 127.795 46.6071 128.176C47.6293 128.556 48.4703 129.309 48.9613 130.286C49.4522 131.262 49.5567 132.388 49.2539 133.438C48.951 134.488 48.2632 135.385 47.3285 135.948L47.3128 135.952Z" fill="#6C63FF" />
    <path opacity="0.1" d="M49.0406 155.976C47.129 157.393 39.019 158.035 39.019 158.035C39.019 158.035 42.0023 150.449 43.9179 149.028C44.3669 148.63 44.8937 148.33 45.4647 148.147C46.0357 147.964 46.6384 147.903 47.2345 147.966C47.8306 148.029 48.407 148.217 48.9269 148.516C49.4469 148.815 49.8991 149.219 50.2547 149.703C50.6103 150.187 50.8616 150.74 50.9925 151.326C51.1234 151.913 51.131 152.52 51.015 153.11C50.8989 153.7 50.6617 154.259 50.3184 154.752C49.9751 155.244 49.5333 155.66 49.021 155.972L49.0406 155.976Z" fill="#6C63FF" />
    <path opacity="0.1" d="M190.048 233.098C83.4266 222.671 -1.65052 200.267 0.0232129 183.056C1.69694 165.846 89.4877 160.347 196.109 170.774C302.731 181.201 387.808 203.605 386.134 220.816C384.461 238.026 296.67 243.525 190.048 233.098Z" fill="#6C63FF" />
    <path d="M16.8245 185.798C9.56641 170.879 11.0659 146.596 11.8393 138.353C12.0081 136.55 12.1415 135.515 12.1415 135.515C12.1415 135.515 18.54 134.503 16.1808 126.737C15.0267 122.934 19.1249 120.832 23.5998 119.679C26.7995 118.911 30.0643 118.449 33.3507 118.297L95.3294 114.459C103.828 100.933 120.55 103.106 120.55 103.106C120.55 103.106 135.467 101.551 146.042 101.39C147.647 99.9721 149.406 98.7401 151.286 97.7174C152.407 97.0423 153.6 96.4968 154.843 96.0916C156.354 95.6544 157.946 95.5779 159.492 95.8684C161.038 96.1589 162.495 96.8083 163.746 97.7646C164.355 98.2043 164.852 98.7832 165.194 99.4533C165.326 99.758 165.425 100.076 165.489 100.402C165.648 100.958 165.779 101.521 165.881 102.091C165.973 102.365 166.106 102.623 166.274 102.858C166.698 103.461 167.428 103.913 167.522 104.641C167.524 104.683 167.524 104.726 167.522 104.767C167.6 104.907 167.651 105.059 167.675 105.216C167.703 105.54 167.634 105.865 167.475 106.149C167.451 106.196 167.424 106.24 167.396 106.283C167.918 107.041 168.344 107.86 168.664 108.724C168.81 108.803 168.95 108.891 169.084 108.987L169.202 109.074V109.314L169.269 109.365L169.414 113.243L169.332 113.306C169.213 115.114 168.669 116.869 167.743 118.426C166.818 119.984 165.538 121.299 164.009 122.265C163.958 122.513 163.911 122.765 163.864 123.028C163.648 124.3 163.551 125.589 163.573 126.878H163.64C165.485 126.091 168.641 127.248 171.353 128.598H206.494C199.64 119.757 191.255 112.9 191.255 112.9V105.13C197.245 104.83 249.87 130.181 261.407 135.778L261.917 136.026L321.211 137.869C331.951 137.802 341.34 139.384 349.474 141.963C363.065 146.244 375.279 154.069 384.866 164.636C391.869 172.344 394.938 178.713 394.938 178.713L394.872 179.248L394.938 179.386L394.844 179.469L393.246 192.112L392.147 200.812C399.786 205.764 389.89 207.748 389.89 207.748C380.469 215.849 365.313 215.514 365.313 215.514C361.611 220.58 350.836 219.903 350.836 219.903H294.274C293.393 214.696 292.214 209.544 290.742 204.473C288.327 221.907 274.608 235.263 258.05 235.263C256.822 235.263 255.595 235.188 254.376 235.039C253.157 235.188 251.93 235.263 250.702 235.263C233.952 235.263 220.111 221.592 217.933 203.866H215.165C215.682 207.827 216.58 211.728 217.846 215.514C167.008 200.658 72.4009 193.569 72.4009 193.569C72.0084 189.829 71.5765 186.216 71.1094 182.748C67.2115 192.451 58.3753 199.225 48.0907 199.225C47.1564 199.224 46.2231 199.166 45.2957 199.052C44.3684 199.166 43.4351 199.224 42.5008 199.225C30.2888 199.225 20.1259 189.672 17.8334 177.004C17.5298 179.24 17.3568 181.492 17.3152 183.748C17.7509 185.897 18.1317 187.271 18.1828 187.463C17.8766 186.902 17.5861 186.327 17.3113 185.739C17.3113 185.968 17.3113 186.204 17.3113 186.44C17.4056 186.834 17.4723 187.054 17.4919 187.129L17.3192 186.806C17.3192 186.979 17.3192 187.149 17.3192 187.322C17.3584 187.338 17.1504 186.771 16.8245 185.798Z" fill="url(#paint0_linear)" />
    <path d="M22.7556 132.192H139.302V179.339H22.7556V132.192Z" fill="#6F7D95" />
    <path d="M168.936 110.113L152.382 147.3L119.601 145.308L118.278 130.035L117.285 112.105L163.636 108.782L168.936 110.113Z" fill="#4B5C7A" />
    <path d="M168.936 110.113C168.936 110.113 162.655 104.137 155.028 102.807C147.401 101.476 121.917 104.133 121.917 104.133L118.274 110.432L118.957 113.431L168.936 110.113Z" fill="#FF4D52" />
    <path d="M106.524 129.205H224.063V163.735H106.524V129.205Z" fill="#4B5C7A" />
    <path d="M135.443 152.697C132.338 142.285 138.528 135.444 138.528 135.444L148.789 128.264C148.798 128.288 148.808 128.312 148.821 128.335C150.155 126.766 151.111 124.91 151.612 122.91C151.643 122.784 151.671 122.654 151.702 122.517C150.764 121.818 149.943 120.974 149.268 120.017C147.596 118.99 146.85 117.336 146.568 115.687C145.492 114.086 144.635 112.348 144.02 110.519C143.918 110.223 143.832 109.922 143.761 109.617C143.563 109.05 143.475 108.45 143.502 107.85C143.585 107.181 143.807 106.538 144.153 105.96C145.881 102.811 148.99 100.618 152.142 98.8313C153.244 98.1677 154.417 97.6315 155.639 97.2331C157.125 96.8036 158.691 96.7287 160.211 97.0144C161.731 97.3001 163.163 97.9385 164.393 98.8786C164.993 99.3111 165.481 99.8805 165.818 100.54C165.948 100.839 166.045 101.152 166.108 101.473C166.261 102.02 166.385 102.574 166.481 103.134C166.567 103.401 166.691 103.655 166.85 103.886C167.27 104.476 167.985 104.921 168.079 105.641C168.081 105.683 168.081 105.725 168.079 105.767C168.155 105.904 168.205 106.053 168.228 106.208C168.257 106.527 168.189 106.847 168.032 107.125C168.008 107.173 167.981 107.216 167.953 107.259C168.467 108.005 168.886 108.811 169.202 109.66C169.346 109.738 169.484 109.825 169.618 109.92L169.732 110.003V110.239L169.798 110.29L169.944 114.105L169.865 114.168C169.749 115.947 169.214 117.673 168.305 119.205C167.395 120.737 166.137 122.031 164.632 122.981C164.581 123.225 164.534 123.473 164.491 123.733C164.254 125.106 164.159 126.501 164.208 127.894C164.224 127.774 164.224 127.652 164.208 127.532C167.047 126.244 173.237 129.803 175.73 131.378C176.107 131.557 176.46 131.786 176.778 132.059L176.821 132.09C178.536 133.484 181.924 137.357 184.613 147.312C188.342 161.204 187.953 164.353 190.67 167.573C193.386 170.793 196.083 193.478 196.083 193.478L190.615 194.954L189.916 192.703C183.416 198.647 165.213 201.509 165.213 201.509L164.656 199.773C161.865 200.78 157.198 199.249 157.198 199.249C150.375 196.832 147.82 190.699 142.87 182.61C137.92 174.521 135.443 152.697 135.443 152.697ZM162.96 194.553L150.36 155.358C149.217 161.444 154.258 171.029 154.705 177.296C154.984 181.327 159.663 189.337 162.96 194.553Z" fill="url(#paint1_linear)" />
    <path d="M147.197 111.455C147.197 111.455 145.002 119.836 151.514 121.296C158.027 122.757 153.736 117.529 153.736 117.529L147.456 111.392L147.197 111.455Z" fill="#472727" />
    <path d="M174.423 131.429C174.423 131.429 179.267 133.397 182.827 146.655C186.388 159.913 186.034 162.904 188.598 165.986C191.161 169.069 193.787 190.695 193.787 190.695L188.66 192.081L184.197 177.626L171.922 139.443L174.423 131.429Z" fill="#DDE0E4" />
    <path opacity="0.05" d="M174.423 131.429C174.423 131.429 179.267 133.397 182.827 146.655C186.388 159.913 186.034 162.904 188.598 165.986C191.161 169.069 193.787 190.695 193.787 190.695L188.66 192.081L184.197 177.626L171.922 139.443L174.423 131.429Z" fill="black" />
    <path d="M147.526 129.933C147.526 129.933 167.805 140.27 164.837 133.527C163.369 130.196 163.424 126.744 163.852 124.079C164.096 122.509 164.524 120.974 165.128 119.505C165.128 119.505 151.342 108.57 152.15 117.498C152.344 119.419 152.211 121.36 151.758 123.237C150.564 127.972 147.526 129.933 147.526 129.933Z" fill="#DB8B8B" />
    <path opacity="0.1" d="M151.758 123.253C153.062 124.303 154.595 125.029 156.233 125.371C157.87 125.713 159.565 125.661 161.179 125.221C162.123 124.966 163.027 124.584 163.868 124.083C164.112 122.513 164.54 120.978 165.144 119.509C165.144 119.509 151.357 108.574 152.166 117.502C152.356 119.428 152.218 121.373 151.758 123.253Z" fill="black" />
    <path d="M148.007 117.182C146.483 111.506 149.836 105.665 155.497 104.137C161.157 102.608 166.982 105.971 168.506 111.647C170.03 117.324 166.677 123.164 161.016 124.693C155.356 126.221 149.531 122.858 148.007 117.182Z" fill="#DB8B8B" />
    <path opacity="0.1" d="M163.589 109.224C163.88 109.402 164.204 109.519 164.542 109.569C164.879 109.619 165.223 109.599 165.553 109.512C165.883 109.425 166.192 109.272 166.462 109.062C166.731 108.852 166.956 108.59 167.122 108.291C167.267 108.024 167.33 107.72 167.302 107.417C167.212 106.732 166.537 106.307 166.124 105.74C165.485 104.823 165.606 103.567 165.143 102.547C164.824 101.925 164.364 101.386 163.801 100.973C162.653 100.074 161.31 99.4592 159.881 99.1801C158.452 98.9009 156.977 98.9649 155.577 99.3668C154.431 99.7415 153.333 100.247 152.303 100.874C149.351 102.563 146.442 104.63 144.845 107.633C144.521 108.184 144.315 108.797 144.24 109.432C144.222 110.118 144.343 110.801 144.593 111.44C145.184 113.204 146.006 114.881 147.039 116.427C147.384 115.997 147.818 115.647 148.311 115.4C148.56 115.282 148.839 115.245 149.11 115.296C149.38 115.346 149.628 115.48 149.818 115.679C150.16 116.116 150.368 116.951 150.886 116.754C151.224 116.628 151.22 116.159 151.204 115.797C151.133 114.223 151.989 112.739 153.139 111.676C154.289 110.613 155.714 109.912 157.12 109.224C158.128 108.728 159.475 107.59 160.582 107.389C161.956 107.133 162.603 108.613 163.589 109.224Z" fill="black" />
    <path d="M163.443 108.684C163.734 108.862 164.059 108.98 164.396 109.03C164.734 109.079 165.078 109.06 165.408 108.973C165.738 108.886 166.047 108.732 166.316 108.522C166.586 108.313 166.81 108.05 166.976 107.751C167.122 107.484 167.185 107.18 167.157 106.877C167.066 106.192 166.391 105.767 165.979 105.2C165.339 104.283 165.461 103.027 164.998 102.008C164.679 101.385 164.219 100.846 163.655 100.433C162.508 99.534 161.165 98.9196 159.735 98.6405C158.306 98.3614 156.831 98.4254 155.431 98.8273C154.286 99.202 153.187 99.7079 152.158 100.335C149.206 102.024 146.297 104.09 144.699 107.094C144.376 107.645 144.17 108.257 144.095 108.893C144.077 109.579 144.197 110.262 144.448 110.9C145.038 112.664 145.861 114.342 146.894 115.888C147.239 115.457 147.673 115.107 148.165 114.86C148.414 114.742 148.694 114.706 148.964 114.756C149.235 114.806 149.482 114.94 149.673 115.14C150.014 115.577 150.222 116.411 150.74 116.214C151.078 116.088 151.074 115.62 151.058 115.258C150.988 113.683 151.844 112.199 152.994 111.136C154.144 110.074 155.569 109.373 156.974 108.684C157.983 108.188 159.329 107.05 160.436 106.85C161.81 106.59 162.458 108.074 163.443 108.684Z" fill="#472727" />
    <path d="M157.885 131.342C157.885 131.342 149.489 129.693 149.124 128.343L139.522 135.141C139.522 135.141 133.744 141.632 136.7 151.567C136.7 151.567 139.106 172.387 143.785 180.114C148.464 187.841 151.153 197.852 157.564 200.19C157.564 200.19 163.726 196.206 165.76 196.254C165.76 196.254 155.322 181.087 154.875 175.115C154.427 169.144 149.658 159.987 150.702 154.193L164.833 198.241C164.833 198.241 187.601 194.699 189.909 187.121C189.909 187.121 187.946 184.165 188.312 181.169C188.677 178.174 179.723 155.638 179.723 155.638L175.436 132.137C175.436 132.137 166.957 126.197 163.581 127.74C163.597 127.717 164.209 130.649 157.885 131.342Z" fill="#DDE0E4" />
    <g opacity="0.1">
      <path opacity="0.1" d="M154.827 113.069C156.9 110.235 160.853 112.561 161.501 112.967L162.517 112.864C163.405 111.896 166.125 109.322 168.68 111.215L168.79 111.298L168.943 114.931L168.833 115.018C168.095 115.589 167.258 116.019 166.364 116.285C165.798 116.452 165.201 116.482 164.621 116.372C164.193 116.273 163.791 116.08 163.444 115.808C163.097 115.536 162.815 115.191 162.616 114.797L162.086 114.833L161.693 114.758C161.614 115.177 161.448 115.574 161.204 115.922C160.96 116.271 160.645 116.564 160.28 116.781C158.525 117.777 155.962 116.781 155.856 116.762L155.722 116.71L154.78 113.195L154.827 113.069ZM156.158 116.266C156.68 116.443 158.651 117.025 159.974 116.266C160.303 116.059 160.581 115.778 160.785 115.447C160.989 115.115 161.114 114.741 161.151 114.352L161.198 114.065L162.058 114.242L162.922 114.211L163.004 114.376C163.162 114.734 163.399 115.05 163.698 115.301C163.997 115.552 164.349 115.732 164.727 115.825C166.207 116.144 167.919 114.994 168.366 114.667L168.237 111.597C166.015 110.097 163.566 112.53 162.859 113.325L162.784 113.408L161.352 113.549L161.265 113.49C161.226 113.467 157.666 111.069 155.636 112.998C155.535 113.092 155.442 113.193 155.357 113.301L156.158 116.266Z" fill="black" />
      <path opacity="0.1" d="M148.398 114.896L155.071 114.341L155.621 114.234L155.374 113.305C155.459 113.197 155.552 113.096 155.652 113.002L154.844 113.081L149.383 113.616L148.398 114.896Z" fill="black" />
    </g>
    <path d="M154.756 112.817C156.829 109.983 160.782 112.31 161.429 112.715L162.446 112.613C163.333 111.644 166.054 109.07 168.609 110.963L168.719 111.046L168.872 114.679L168.762 114.766C168.024 115.337 167.187 115.767 166.293 116.034C165.727 116.2 165.13 116.23 164.55 116.12C164.121 116.021 163.719 115.828 163.373 115.556C163.026 115.284 162.743 114.939 162.544 114.546L162.014 114.581L161.622 114.506C161.543 114.925 161.377 115.322 161.133 115.671C160.889 116.02 160.574 116.312 160.209 116.529C158.454 117.525 155.891 116.529 155.785 116.51L155.651 116.459L154.709 112.943L154.756 112.817ZM156.087 116.014C156.609 116.191 158.58 116.774 159.902 116.014C160.232 115.807 160.509 115.527 160.714 115.195C160.918 114.863 161.043 114.489 161.08 114.101L161.127 113.813L161.987 113.991L162.839 113.935L162.921 114.101C163.076 114.46 163.311 114.779 163.609 115.033C163.906 115.287 164.258 115.469 164.637 115.565C166.116 115.884 167.828 114.734 168.275 114.408L168.146 111.337C165.924 109.838 163.475 112.27 162.768 113.065L162.693 113.148L161.261 113.29L161.174 113.231C161.135 113.207 157.575 110.81 155.545 112.739C155.445 112.832 155.351 112.934 155.267 113.042L156.087 116.014Z" fill="#472727" />
    <path d="M148.335 114.644L154.984 114.089L155.534 113.983L155.287 113.054C155.372 112.945 155.465 112.844 155.565 112.75L154.757 112.829L149.297 113.365L148.335 114.644Z" fill="#472727" />
    <path d="M193.936 156.098H310.482V203.245H193.936V156.098Z" fill="#6F7D95" />
    <path d="M257.144 234.122C239.182 234.122 224.622 218.142 224.622 198.43C224.622 178.718 239.182 162.739 257.144 162.739C275.105 162.739 289.666 178.718 289.666 198.43C289.666 218.142 275.105 234.122 257.144 234.122Z" fill="#4B5C7A" />
    <path opacity="0.05" d="M257.144 234.122C239.182 234.122 224.622 218.142 224.622 198.43C224.622 178.718 239.182 162.739 257.144 162.739C275.105 162.739 289.666 178.718 289.666 198.43C289.666 218.142 275.105 234.122 257.144 234.122Z" fill="black" />
    <path d="M249.917 234.122C231.956 234.122 217.395 218.142 217.395 198.43C217.395 178.718 231.956 162.739 249.917 162.739C267.879 162.739 282.439 178.718 282.439 198.43C282.439 218.142 267.879 234.122 249.917 234.122Z" fill="#4B5C7A" />
    <path opacity="0.05" d="M250.639 213.105C242.657 213.105 236.186 206.616 236.186 198.611C236.186 190.607 242.657 184.117 250.639 184.117C258.622 184.117 265.093 190.607 265.093 198.611C265.093 206.616 258.622 213.105 250.639 213.105Z" fill="black" />
    <path d="M250.639 202.961C248.243 202.961 246.301 201.014 246.301 198.611C246.301 196.209 248.243 194.261 250.639 194.261C253.035 194.261 254.977 196.209 254.977 198.611C254.977 201.014 253.035 202.961 250.639 202.961Z" stroke="#6F7D95" stroke-width="2" stroke-miterlimit="10" />
    <path d="M250.639 192.089C250.041 192.089 249.556 191.602 249.556 191.002C249.556 190.402 250.041 189.916 250.639 189.916C251.238 189.916 251.723 190.402 251.723 191.002C251.723 191.602 251.238 192.089 250.639 192.089Z" fill="#6F7D95" />
    <path d="M244.015 193.933C243.556 193.547 243.496 192.862 243.881 192.402C244.266 191.942 244.949 191.882 245.407 192.268C245.866 192.654 245.926 193.339 245.541 193.799C245.156 194.258 244.473 194.318 244.015 193.933Z" fill="#6F7D95" />
    <path d="M241.427 199.194C241.323 198.603 241.717 198.039 242.306 197.935C242.895 197.831 243.457 198.225 243.561 198.816C243.665 199.407 243.271 199.971 242.682 200.075C242.093 200.179 241.531 199.785 241.427 199.194Z" fill="#6F7D95" />
    <path d="M245.05 205.442C244.531 205.142 244.354 204.478 244.653 203.958C244.952 203.439 245.615 203.261 246.133 203.561C246.651 203.861 246.829 204.525 246.53 205.045C246.23 205.564 245.568 205.742 245.05 205.442Z" fill="#6F7D95" />
    <path d="M250.754 206.031C250.55 205.467 250.84 204.843 251.402 204.638C251.964 204.433 252.586 204.724 252.791 205.287C252.995 205.851 252.705 206.475 252.143 206.68C251.581 206.885 250.959 206.594 250.754 206.031Z" fill="#6F7D95" />
    <path d="M256.261 202.675C255.699 202.47 255.409 201.847 255.614 201.283C255.818 200.719 256.44 200.428 257.002 200.634C257.565 200.839 257.855 201.462 257.65 202.026C257.445 202.59 256.824 202.881 256.261 202.675Z" fill="#6F7D95" />
    <path d="M255.756 195.888C255.456 195.368 255.634 194.704 256.152 194.404C256.67 194.104 257.333 194.282 257.632 194.801C257.931 195.321 257.754 195.986 257.236 196.286C256.717 196.586 256.055 196.408 255.756 195.888Z" fill="#6F7D95" />
    <path d="M16.2317 170.848C17.3426 178.539 20.4319 186.959 20.4319 186.959C20.411 186.435 20.3979 185.916 20.3927 185.405C20.3927 184.743 20.3927 184.09 20.3927 183.436C20.7852 162.235 32.3064 149.154 39.7372 142.891C41.6686 141.241 43.7459 139.771 45.9434 138.498H25.747C25.747 138.498 17.8019 154.767 16.1453 162.735C15.6664 164.971 15.7999 167.856 16.2317 170.848Z" fill="#FF4D52" />
    <path opacity="0.05" d="M16.2317 170.848C17.3426 178.539 20.4319 186.959 20.4319 186.959C20.411 186.435 20.3979 185.916 20.3927 185.405C20.3927 184.743 20.3927 184.09 20.3927 183.436C20.7852 162.235 32.3064 149.154 39.7372 142.891C41.6686 141.241 43.7459 139.771 45.9434 138.498H25.747C25.747 138.498 17.8019 154.767 16.1453 162.735C15.6664 164.971 15.7999 167.856 16.2317 170.848Z" fill="black" />
    <path d="M50.6652 198.682C37.0049 198.682 25.9311 186.529 25.9311 171.537C25.9311 156.545 37.0049 144.391 50.6652 144.391C64.3255 144.391 75.3994 156.545 75.3994 171.537C75.3994 186.529 64.3255 198.682 50.6652 198.682Z" fill="#4B5C7A" />
    <path opacity="0.05" d="M50.6652 198.682C37.0049 198.682 25.9311 186.529 25.9311 171.537C25.9311 156.545 37.0049 144.391 50.6652 144.391C64.3255 144.391 75.3994 156.545 75.3994 171.537C75.3994 186.529 64.3255 198.682 50.6652 198.682Z" fill="black" />
    <path d="M45.1701 198.682C31.5098 198.682 20.4359 186.529 20.4359 171.537C20.4359 156.545 31.5098 144.391 45.1701 144.391C58.8304 144.391 69.9043 156.545 69.9043 171.537C69.9043 186.529 58.8304 198.682 45.1701 198.682Z" fill="#4B5C7A" />
    <path opacity="0.05" d="M45.7197 182.696C39.6494 182.696 34.7285 177.762 34.7285 171.674C34.7285 165.587 39.6494 160.652 45.7197 160.652C51.79 160.652 56.7109 165.587 56.7109 171.674C56.7109 177.762 51.79 182.696 45.7197 182.696Z" fill="black" />
    <path d="M45.7192 174.981C43.8982 174.981 42.4219 173.501 42.4219 171.675C42.4219 169.848 43.8982 168.368 45.7192 168.368C47.5403 168.368 49.0166 169.848 49.0166 171.675C49.0166 173.501 47.5403 174.981 45.7192 174.981Z" stroke="#6F7D95" stroke-width="2" stroke-miterlimit="10" />
    <path d="M45.7196 166.715C45.2644 166.715 44.8953 166.344 44.8953 165.888C44.8953 165.431 45.2644 165.061 45.7196 165.061C46.1749 165.061 46.5439 165.431 46.5439 165.888C46.5439 166.344 46.1749 166.715 45.7196 166.715Z" fill="#6F7D95" />
    <path d="M40.6778 168.116C40.3291 167.823 40.2836 167.301 40.5762 166.952C40.8689 166.602 41.3889 166.556 41.7376 166.85C42.0864 167.143 42.1319 167.664 41.8392 168.014C41.5466 168.364 41.0266 168.41 40.6778 168.116Z" fill="#6F7D95" />
    <path d="M38.7138 172.121C38.6347 171.671 38.9341 171.242 39.3824 171.163C39.8307 171.084 40.2583 171.384 40.3373 171.834C40.4164 172.283 40.117 172.712 39.6687 172.791C39.2203 172.871 38.7928 172.57 38.7138 172.121Z" fill="#6F7D95" />
    <path d="M41.4657 176.873C41.0714 176.644 40.9363 176.139 41.164 175.743C41.3916 175.348 41.8958 175.213 42.29 175.441C42.6843 175.669 42.8194 176.175 42.5917 176.57C42.3641 176.965 41.86 177.101 41.4657 176.873Z" fill="#6F7D95" />
    <path d="M45.8046 177.318C45.6489 176.889 45.8694 176.415 46.2973 176.259C46.7251 176.103 47.1981 176.324 47.3538 176.753C47.5095 177.182 47.2889 177.656 46.8611 177.812C46.4333 177.968 45.9603 177.747 45.8046 177.318Z" fill="#6F7D95" />
    <path d="M49.9955 174.763C49.5677 174.607 49.3471 174.133 49.5028 173.704C49.6585 173.275 50.1316 173.053 50.5594 173.21C50.9872 173.366 51.2078 173.84 51.052 174.269C50.8963 174.698 50.4233 174.919 49.9955 174.763Z" fill="#6F7D95" />
    <path d="M49.6064 169.602C49.3788 169.207 49.5139 168.702 49.9081 168.473C50.3024 168.245 50.8065 168.38 51.0341 168.776C51.2618 169.171 51.1267 169.677 50.7324 169.905C50.3382 170.133 49.834 169.998 49.6064 169.602Z" fill="#6F7D95" />
    <path d="M388.783 202.083L391.774 178.508H356.347L338.137 194.777L347.075 215.695C347.075 215.695 383.138 209.72 388.783 202.083Z" fill="#FF4D52" />
    <path opacity="0.05" d="M338.126 194.777L347.064 215.695C347.064 215.695 383.139 209.72 388.783 202.083L388.913 201.056L391.661 179.256L391.688 179.039L391.755 178.512H356.328L338.126 194.777Z" fill="black" />
    <path d="M191.448 106.129V113.766C191.448 113.766 209.756 128.724 214.113 142.836C214.874 145.128 215.161 147.551 214.957 149.957C213.301 165.561 262.628 137.337 262.628 137.337L260.434 136.266C249.093 130.783 197.34 105.83 191.448 106.129Z" fill="#7597CE" />
    <path d="M149.728 142.986C149.728 142.986 132.582 134.539 129.83 128.287C129.461 127.449 129.111 126.603 128.703 125.78C127.004 122.351 123.431 114.309 125.229 110.448C127.545 105.468 119.6 111.113 119.6 111.113L124.236 134.68L135.494 140.978L150.062 142.986" fill="#FF4D52" />
    <path opacity="0.05" d="M149.728 142.986C149.728 142.986 132.582 134.539 129.83 128.287C129.461 127.449 129.111 126.603 128.703 125.78C127.004 122.351 123.431 114.309 125.229 110.448C127.545 105.468 119.6 111.113 119.6 111.113L124.236 134.68L135.494 140.978L150.062 142.986" fill="black" />
    <path opacity="0.05" d="M338.126 194.777L347.064 215.695C347.064 215.695 383.138 209.72 388.783 202.083L388.913 201.056C388.768 200.957 388.614 200.855 388.454 200.757C388.454 200.757 377.529 209.389 352.693 211.385C352.693 211.385 337.776 199.43 361.965 186.153C361.965 186.153 383.005 186.814 391.672 179.26L391.767 179.181L391.7 179.043C391.642 178.931 391.549 178.755 391.421 178.516H356.34L338.126 194.777Z" fill="black" />
    <path opacity="0.05" d="M214.957 149.953C213.301 165.561 262.628 137.337 262.628 137.337L260.434 136.267C258.981 137.818 253.183 143.049 241.592 142.482C234.133 142.116 222.808 142.451 214.094 142.833C214.861 145.123 215.155 147.546 214.957 149.953V149.953Z" fill="black" />
    <path opacity="0.05" d="M193.932 156.098V203.245H215.585C214.156 192.278 214.981 176.292 228.869 167.128C234.049 163.733 240.063 161.838 246.249 161.653C252.434 161.469 258.551 163.001 263.923 166.081C273.026 171.293 283.205 181.889 289.674 203.245H310.479V156.098H193.932Z" fill="black" />
    <path opacity="0.05" d="M16.2317 170.848C17.0482 176.052 18.3593 181.106 20.3888 185.412C20.6504 185.992 20.9357 186.558 21.2445 187.109C21.1934 186.916 20.8205 185.57 20.3888 183.452C18.2847 173.139 14.6851 144.6 38.803 142.97C39.117 142.95 39.4271 142.931 39.7372 142.919C41.6674 141.259 43.7448 139.779 45.9434 138.498H25.747C25.747 138.498 17.8019 154.767 16.1453 162.735C15.6664 164.971 15.7999 167.856 16.2317 170.848Z" fill="black" />
    <path d="M20.5884 186.786C20.2743 185.649 9.08683 144.616 38.1468 142.651C67.6151 140.66 71.2579 162.904 74.567 193.12C74.567 193.12 167.6 200.091 217.602 214.703C217.602 214.703 205.598 181.716 228.201 166.797C233.381 163.402 239.395 161.507 245.581 161.323C251.766 161.138 257.883 162.67 263.255 165.75C274.403 172.135 287.173 186.613 292.759 219.018H348.39C348.39 219.018 358.988 219.683 362.627 214.688C362.627 214.688 377.544 215.018 386.796 207.051C386.796 207.051 396.728 205.059 388.783 200.08C388.783 200.08 377.524 208.712 352.692 210.708C352.692 210.708 337.775 198.753 361.964 185.476C361.964 185.476 383.161 186.141 391.762 178.504C391.762 178.504 388.743 172.241 381.854 164.664C372.431 154.27 360.425 146.572 347.063 142.356C338.059 139.565 328.675 138.207 319.251 138.333L260.813 136.507C260.813 136.507 255.169 143.813 241.61 143.147C228.052 142.482 201.547 144.143 201.547 144.143H201.284L146.752 141.667C145.186 141.446 143.637 141.117 142.116 140.683C134.21 138.53 119.215 131.999 121.92 113.762L36.1645 119.076C32.9324 119.225 29.7215 119.68 26.5747 120.434C22.1703 121.568 18.1428 123.639 19.2772 127.378C21.5932 135.015 15.3047 136.011 15.3047 136.011C15.3047 136.011 15.1712 137.03 15.0064 138.802C14.2213 147.155 12.6786 172.269 20.5884 186.786Z" fill="#FF4D52" />
    <path opacity="0.05" d="M282.831 150.288C282.831 150.288 318.592 150.619 342.105 171.544H328.861C328.861 171.544 291.777 161.916 282.839 154.279L282.831 150.288Z" fill="black" />
    <path d="M283.165 149.953C283.165 149.953 318.926 150.284 342.439 171.21H329.195C329.195 171.21 292.111 161.582 283.173 153.945L283.165 149.953Z" fill="#FFEC9F" />
    <path opacity="0.05" d="M346.733 142.691V151.615L376.857 165.561L381.521 164.998C372.099 154.605 360.094 146.907 346.733 142.691V142.691Z" fill="black" />
    <path d="M347.067 142.36V151.284L377.195 165.227L381.858 164.664C372.435 154.271 360.429 146.575 347.067 142.36V142.36Z" fill="#FFEC9F" />
    <path opacity="0.05" d="M304.355 182.826C304.355 182.826 320.579 192.786 322.235 214.711H312.963C312.963 214.711 309.321 190.806 298.726 182.826H304.355Z" fill="black" />
    <path opacity="0.05" d="M112.644 183.492L196.746 193.451C196.746 193.451 202.309 157.944 201.28 144.132L146.748 141.656C145.184 141.438 143.636 141.113 142.116 140.683V143.978L101.06 134.019C101.06 134.019 94.1042 144.309 112.644 183.492Z" fill="black" />
    <path d="M121.916 104.133C121.916 104.133 104.036 101.811 96.0906 117.084L121.661 116.096L121.916 104.133Z" fill="#FF4D52" />
    <path opacity="0.05" d="M97.3316 122.438C98.0342 124.646 97.5043 127.075 93.4336 128.756C90.046 130.157 86.0735 128.535 84.9155 125.052C84.2403 123.021 84.7035 120.722 88.3541 118.852C92.0048 116.982 96.1029 118.58 97.3316 122.438Z" fill="black" />
    <path d="M391.135 183.484C391.135 183.484 369.914 194.505 354.683 190.333" stroke="#FF4D52" stroke-miterlimit="10" />
    <path d="M390.385 189.436C390.385 189.436 376.673 200.04 348.96 197.576" stroke="#FF4D52" stroke-miterlimit="10" />
    <path d="M389.753 194.431C389.753 194.431 376.151 206.268 348.202 202.516" stroke="#FF4D52" stroke-miterlimit="10" />
    <path opacity="0.05" d="M97.1153 115.301C97.1153 115.301 108.177 124.879 118.273 129.209C118.273 129.209 102.941 131.944 97.1153 115.301Z" fill="black" />
    <path opacity="0.1" d="M214.306 143.49C214.306 143.49 161.815 148.462 141.952 143.813C141.952 143.813 140.892 144.517 147.216 141.675L214.306 143.49Z" fill="black" />
    <path opacity="0.05" d="M15.0031 138.802C18.2729 136.648 23.4584 132.181 22.7519 127.209C22.3986 124.717 24.1571 122.387 26.5713 120.43C22.167 121.564 18.1395 123.635 19.2739 127.374C21.5899 135.011 15.3013 136.007 15.3013 136.007C15.3013 136.007 15.1718 137.03 15.0031 138.802Z" fill="black" />
    <path d="M278.828 173.458C278.797 172.143 278.828 170.777 278.926 169.521C278.926 169.281 278.965 169.049 278.989 168.821C278.251 169.38 277.811 169.805 277.811 169.805L278.459 135.621L282.031 117.714C282.031 105.015 288.85 101.437 288.85 101.437C288.85 101.437 292.422 99.8076 293.395 97.5323C294.369 95.2571 302.997 90.4468 303.001 90.4468C303.069 89.6181 303.095 88.7864 303.079 87.955C303.079 87.7385 303.079 87.5142 303.06 87.2898C300.897 85.8515 299.328 83.675 298.644 81.1643C297.96 78.6536 298.208 75.9794 299.342 73.6383C298.863 73.6383 298.475 73.4376 298.294 72.7251C297.721 70.4695 298.275 67.0724 299.578 65.2695C299.856 64.8925 300.171 64.5431 300.516 64.2264C300.92 63.8194 301.346 63.4344 301.792 63.073C302.907 62.144 304.147 61.1678 305.529 61.2465C306.313 61.3494 307.066 61.6177 307.739 62.0338C311.191 63.8551 314.633 65.692 318.067 67.5448C319.335 68.2337 320.642 68.9579 321.529 70.194C322.416 71.43 322.773 73.0124 323.02 74.5673C323.228 75.6208 323.277 76.6996 323.166 77.7676C323.062 78.7395 322.618 79.6432 321.914 80.3184C321.771 80.4906 321.609 80.6453 321.431 80.779C320.732 81.2907 319.833 81.4167 319.103 81.83C318.551 83.4372 317.627 84.8901 316.406 86.0695C316.406 86.2703 316.434 86.4631 316.449 86.6836C316.492 87.2465 316.559 87.8645 316.646 88.4904C316.646 88.4904 319.044 88.4274 322.616 93.3085C326.188 98.1897 333.98 98.8431 333.98 98.8431C333.98 98.8431 336.901 97.5402 340.147 112.191C343.393 126.843 344.367 136.597 342.746 138.235C342.057 138.831 341.281 139.317 340.446 139.675C337.694 141.068 334.732 141.999 331.68 142.431C331.641 142.548 331.575 142.655 331.488 142.742L331.256 145.58C331.06 151.571 330.832 163.589 332.041 166.254C333.666 169.836 331.715 172.115 331.715 172.115L331.323 172.088C331.25 172.212 331.169 172.33 331.079 172.442L329.509 172.336C329.623 179.028 329.929 188.31 330.738 190.349C332.037 193.604 330.738 211.511 330.738 211.511L333.011 243.742C333.011 243.742 334.255 260.566 333.089 262.515C333.725 266.014 334.867 272.683 334.632 274.344C334.306 276.623 326.84 279.878 326.84 279.878C326.84 279.878 318.074 281.847 313.855 281.181C311.649 280.839 310.773 279.343 310.765 278.032C307.904 278.493 304.178 278.934 301.843 278.572C297.623 277.922 298.271 273.037 300.543 273.364C302.816 273.69 305.415 269.108 307.346 266.829C308.328 265.68 309.144 263.625 309.702 261.865C309.291 261.803 308.914 261.602 308.634 261.295C307.66 259.665 306.035 244.691 306.035 244.691L301.815 218.648C301.815 218.648 299.542 205.949 297.595 203.02C296.123 200.808 294.282 184.299 293.47 176.347H293.399H293.376L293.289 176.068L292.068 172.115C291.417 173.269 289.776 173.84 287.864 174.084C288.068 174.918 288.237 175.599 288.335 175.989C288.822 177.957 281.725 181.197 280.013 179.571C279.295 178.89 278.922 176.422 278.836 173.721H278.777L278.828 173.458ZM321.482 262.239C321.592 262.873 321.702 263.534 321.811 264.208C322.059 263.42 322.255 262.712 322.388 262.188C322.067 262.2 321.764 262.216 321.482 262.239Z" fill="url(#paint2_linear)" />
    <path d="M310.596 255.453C310.596 255.453 309.344 261.098 307.456 263.29C305.568 265.483 303.079 269.872 300.892 269.561C298.706 269.25 298.078 273.95 302.145 274.576C306.211 275.202 314.651 273.32 314.651 273.32C314.651 273.32 321.842 270.171 322.152 267.991C322.463 265.81 320.276 254.508 320.276 254.508L310.596 255.453Z" fill="#53526B" />
    <path opacity="0.05" d="M310.596 255.453C310.596 255.453 309.344 261.098 307.456 263.29C305.568 265.483 303.079 269.872 300.892 269.561C298.706 269.25 298.078 273.95 302.145 274.576C306.211 275.202 314.651 273.32 314.651 273.32C314.651 273.32 321.842 270.171 322.152 267.991C322.463 265.81 320.276 254.508 320.276 254.508L310.596 255.453Z" fill="black" />
    <path d="M322.164 257.961C322.164 257.961 320.912 263.605 319.024 265.798C317.136 267.991 314.647 272.38 312.461 272.069C310.274 271.758 309.646 276.458 313.713 277.084C317.78 277.709 326.219 275.832 326.219 275.832C326.219 275.832 333.411 272.683 333.721 270.502C334.031 268.321 331.844 257.02 331.844 257.02L322.164 257.961Z" fill="#53526B" />
    <path d="M293.713 172.06C293.713 172.06 296.214 199.021 298.09 201.843C299.966 204.665 302.153 216.892 302.153 216.892L306.216 241.971C306.216 241.971 307.786 256.394 308.716 257.96C309.646 259.527 321.25 258.854 321.25 258.854L314.051 175.823L293.713 172.06Z" fill="#5F5D7E" />
    <path opacity="0.05" d="M293.713 172.06C293.713 172.06 296.214 199.021 298.09 201.843C299.966 204.665 302.153 216.892 302.153 216.892L306.216 241.971C306.216 241.971 307.786 256.394 308.716 257.96C309.646 259.527 321.25 258.854 321.25 258.854L314.051 175.823L293.713 172.06Z" fill="black" />
    <path d="M288.711 159.208L289.528 161.81L293.944 175.867L294.03 176.134H294.054C294.647 176.268 307.161 179.154 309.862 180.039C310.007 180.085 310.15 180.138 310.29 180.201C311.542 180.827 313.104 203.398 313.104 203.398C313.104 203.398 314.042 224.718 314.674 226.284C315.306 227.851 317.815 260.137 319.365 259.2C320.916 258.264 332.182 259.2 332.182 259.2C333.434 257.945 332.182 241.018 332.182 241.018L329.995 209.98C329.995 209.98 331.247 192.738 329.995 189.601C328.743 186.464 328.743 165.463 328.743 165.463L303.137 161.487L300.664 161.093L288.711 159.208Z" fill="#5F5D7E" />
    <path opacity="0.02" d="M289.528 161.81L293.944 175.867L294.05 176.143C294.643 176.276 307.157 179.162 309.858 180.047H310.129L303.138 161.487L302.938 160.952L300.665 161.098L289.528 161.81Z" fill="black" />
    <path opacity="0.1" d="M318.725 96.5089C318.725 96.5089 307.157 109.05 299.966 98.7015L293.088 103.406L294.341 110.617L290.278 165.168C290.278 165.168 300.908 164.853 308.409 167.36C310.499 168.103 312.756 168.233 314.916 167.733C317.076 167.233 319.049 166.124 320.602 164.538L319.35 116.573L322.164 101.839L318.725 96.5089Z" fill="black" />
    <path d="M318.725 95.568C318.725 95.568 307.157 108.109 299.966 97.7606L293.088 102.465L294.341 109.676L290.274 164.243C290.274 164.243 300.904 163.928 308.405 166.435C310.495 167.178 312.752 167.308 314.912 166.808C317.072 166.307 319.045 165.199 320.598 163.613L319.346 115.648L322.16 100.914L318.725 95.568Z" fill="#53526B" />
    <path d="M294.651 160.46C294.651 160.46 294.651 168.612 292.775 172.06C290.899 175.509 279.958 173.635 279.958 173.635L282.145 162.034L294.651 160.46Z" fill="#D39999" />
    <path d="M281.148 179.272C282.796 180.846 289.63 177.697 289.159 175.824C288.83 174.497 287.676 169.75 287.02 167.057L286.565 165.164C286.565 165.164 282.561 163.908 281.148 165.164C280.633 165.62 280.272 167.419 280.103 169.592C279.813 173.367 280.099 178.276 281.148 179.272Z" fill="#FDC2CC" />
    <path d="M296.217 101.209L307.158 109.672C307.158 109.672 323.413 108.731 319.35 100.894C317.581 97.447 316.513 93.6816 316.21 89.8169C316.078 88.391 316.078 86.956 316.21 85.5301C316.21 85.5301 301.203 71.7527 303.079 87.4117C303.227 88.6137 303.313 89.8224 303.338 91.0332C303.546 102.787 296.217 101.209 296.217 101.209Z" fill="#FDC2CC" />
    <path opacity="0.1" d="M303.095 87.4158C303.243 88.6177 303.329 89.8265 303.354 91.0373C305.038 92.1558 307.014 92.7502 309.034 92.7457C311.833 92.7457 313.894 90.0138 315.755 88.1991C315.547 85.5972 316.222 85.5342 316.222 85.5342C316.222 85.5342 301.219 71.7371 303.095 87.4158Z" fill="black" />
    <path d="M309.034 92.1159C303.336 92.1159 298.718 87.4843 298.718 81.771C298.718 76.0577 303.336 71.4261 309.034 71.4261C314.731 71.4261 319.35 76.0577 319.35 81.771C319.35 87.4843 314.731 92.1159 309.034 92.1159Z" fill="#FDC2CC" />
    <path opacity="0.1" d="M316.378 91.6472C316.378 91.6472 318.098 91.8047 321.536 96.5048C324.975 101.205 332.5 101.835 332.5 101.835C332.5 101.835 335.315 100.579 338.439 114.687C341.564 128.795 342.502 138.199 340.94 139.766C339.377 141.333 333.124 143.529 329.999 143.529C329.999 143.529 329.061 163.278 330.624 166.726C332.186 170.175 330.31 172.371 330.31 172.371L316.571 171.43C316.571 171.43 311.88 165.475 310.941 155.13C310.003 144.785 306.879 115.313 308.441 111.865C310.003 108.416 316.881 99.6381 316.571 98.6973C316.26 97.7565 316.378 91.6472 316.378 91.6472Z" fill="black" />
    <path d="M316.406 91.5529C316.406 91.5529 318.718 91.4899 322.157 96.1939C325.596 100.898 333.097 101.524 333.097 101.524C333.097 101.524 335.912 100.268 339.036 114.376C342.161 128.484 343.099 137.888 341.529 139.443C339.959 140.998 333.713 143.206 330.589 143.206C330.589 143.206 329.651 162.955 331.213 166.404C332.775 169.852 330.899 172.048 330.899 172.048L317.16 171.108C317.16 171.108 312.469 165.152 311.531 154.807C310.593 144.462 307.468 114.99 309.03 111.542C310.593 108.094 317.47 99.3155 317.16 98.3747C316.85 97.4339 316.406 91.5529 316.406 91.5529Z" fill="#D39999" />
    <path d="M324.649 131.933C324.649 131.933 309.007 113.943 311.205 126.288C312.775 135.066 318.706 139.77 321.521 140.711C324.335 141.652 324.649 131.933 324.649 131.933Z" fill="#FDC2CC" />
    <path opacity="0.1" d="M280.103 169.592C281.599 168.447 284.421 166.664 287.02 167.057L286.564 165.164C286.564 165.164 282.56 163.908 281.147 165.164C280.629 165.62 280.272 167.419 280.103 169.592Z" fill="black" />
    <path opacity="0.1" d="M303.252 93.5288C303.252 93.5288 295.279 98.7012 294.341 100.898C293.403 103.094 289.964 104.661 289.964 104.661C289.964 104.661 283.401 108.109 283.401 120.336L279.962 137.577L295.601 159.519C295.601 159.519 297.477 137.573 298.415 132.243C299.354 126.913 300.602 116.891 300.602 116.891C300.602 116.891 305.293 110.936 304.665 109.369C304.037 107.802 303.252 93.5288 303.252 93.5288Z" fill="black" />
    <path d="M303.279 93.4343C303.279 93.4343 294.965 98.0754 294.03 100.268C293.096 102.461 289.65 104.015 289.65 104.015C289.65 104.015 283.086 107.464 283.086 119.69L279.648 136.932L279.023 169.848C279.023 169.848 284.653 164.518 288.715 167.025C292.778 169.533 295.279 158.873 295.279 158.873C295.279 158.873 297.155 136.928 298.093 131.598C299.031 126.268 300.28 116.246 300.28 116.246C300.28 116.246 304.971 110.314 304.343 108.739C303.714 107.165 303.279 93.4343 303.279 93.4343Z" fill="#D39999" />
    <path opacity="0.1" d="M299.978 69.1901C300.507 68.5149 301.119 67.9092 301.799 67.3872C302.875 66.4897 304.064 65.5529 305.399 65.6316C306.154 65.7324 306.879 65.9927 307.526 66.3953C310.85 68.1509 314.164 69.9249 317.469 71.7173C318.69 72.3786 319.95 73.0793 320.802 74.2681C321.654 75.4569 321.999 76.9842 322.239 78.48C322.439 79.4932 322.487 80.5309 322.38 81.5583C322.283 82.5655 321.795 83.4942 321.022 84.1445C320.131 84.794 318.91 84.798 318.164 85.6482C317.732 86.1403 317.544 86.8291 317.238 87.4275C316.932 88.0258 316.402 88.6084 315.797 88.5021C315.193 88.3958 314.828 87.7542 314.741 87.1047C314.703 86.4464 314.741 85.7859 314.855 85.1365C314.973 83.9556 314.824 82.7038 314.141 81.826C313.67 81.2276 312.994 80.8655 312.539 80.2514C311.448 78.7713 311.946 76.315 310.749 74.9255C310.401 74.5622 309.964 74.298 309.481 74.1597C308.998 74.0214 308.488 74.014 308.001 74.1382C307.032 74.3429 306.145 74.8703 305.253 75.3191C304.05 75.9281 302.789 76.4159 301.489 76.7756C300.398 77.0747 299.134 77.7911 298.761 76.3347C298.192 74.1972 298.741 70.9261 299.978 69.1901Z" fill="black" />
    <path d="M300.292 68.8753C300.821 68.2001 301.433 67.5943 302.114 67.0724C303.189 66.1749 304.379 65.238 305.713 65.3168C306.468 65.4176 307.193 65.6779 307.841 66.0804C311.162 67.8361 313.921 66.1749 317.784 71.4025C318.608 72.5204 320.265 72.7645 321.117 73.9532C321.968 75.142 322.314 76.6694 322.553 78.1652C322.754 79.1784 322.801 80.2161 322.695 81.2435C322.597 82.2507 322.11 83.1794 321.336 83.8297C320.445 84.4792 319.225 84.4831 318.479 85.3334C318.047 85.8255 317.858 86.5143 317.552 87.1127C317.246 87.711 316.716 88.2936 316.112 88.1873C315.507 88.081 315.142 87.4394 315.056 86.7899C315.017 86.1316 315.055 85.4711 315.17 84.8217C315.287 83.6407 315.138 82.389 314.455 81.5111C313.984 80.9128 313.309 80.5507 312.854 79.9366C311.762 78.4565 312.261 76.0002 311.064 74.6106C310.716 74.2474 310.278 73.9832 309.796 73.8449C309.313 73.7066 308.802 73.6991 308.316 73.8233C307.346 74.028 306.459 74.5555 305.568 75.0043C304.364 75.6132 303.103 76.1011 301.803 76.4607C300.712 76.7599 299.448 77.4763 299.075 76.0199C298.502 73.8824 299.036 70.6112 300.292 68.8753Z" fill="#865A61" />
    <path d="M328.418 115.317C328.418 115.317 328.732 126.918 330.294 128.484C331.856 130.051 329.356 131.933 329.356 131.933L323.103 130.358C323.103 130.358 324.673 140.703 318.102 139.451C318.102 139.451 322.478 143.525 326.855 144.155C331.232 144.785 330.93 143.218 330.93 143.218L337.493 135.381L328.418 115.317Z" fill="#D39999" />
    <path opacity="0.1" d="M328.469 116.726C328.469 116.726 332.637 127.386 329.509 131.775L322.631 130.201C322.631 130.201 328.885 132.082 327.947 128.319C327.008 124.556 328.469 116.726 328.469 116.726Z" fill="black" />
    <path opacity="0.1" d="M330.761 143.061C330.761 143.061 321.693 143.687 319.192 141.805C322.483 144.333 326.372 145.96 330.478 146.529L330.761 143.061Z" fill="black" />
    <path opacity="0.1" d="M291.676 122.997C291.676 122.997 286.985 137.42 287.299 139.613C287.613 141.805 288.237 165.947 288.237 165.947L289.175 165.632L288.861 139.298L291.676 122.997Z" fill="black" />
    <path d="M94.1792 163.782C94.1792 163.782 87.3096 177.303 92.9074 184.7C98.5051 192.096 92.3971 212.255 92.3971 212.255" stroke="#6C63FF" stroke-miterlimit="10" />
    <path d="M92.1454 159.574C92.1454 162.18 94.0532 164.298 94.0532 164.298C94.0532 164.298 95.9609 162.184 95.9609 159.574C95.9609 156.964 94.0532 154.85 94.0532 154.85C94.0532 154.85 92.1454 156.968 92.1454 159.574Z" fill="#6C63FF" />
    <path d="M90.619 163.782C90.619 163.782 97.4884 177.303 91.8908 184.7C86.2932 192.096 92.4011 212.255 92.4011 212.255" stroke="#6C63FF" stroke-miterlimit="10" />
    <path d="M92.6562 159.574C92.6562 162.18 90.7485 164.298 90.7485 164.298C90.7485 164.298 88.8408 162.184 88.8408 159.574C88.8408 156.964 90.7485 154.85 90.7485 154.85C90.7485 154.85 92.6562 156.968 92.6562 159.574Z" fill="#6C63FF" />
    <path opacity="0.1" d="M92.6562 159.574C92.6562 162.18 90.7485 164.298 90.7485 164.298C90.7485 164.298 88.8408 162.184 88.8408 159.574C88.8408 156.964 90.7485 154.85 90.7485 154.85C90.7485 154.85 92.6562 156.968 92.6562 159.574Z" fill="black" />
    <path d="M87.8199 163.782C87.8199 163.782 80.9505 177.303 86.5481 184.7C92.1457 192.096 86.0378 212.255 86.0378 212.255" stroke="#6C63FF" stroke-miterlimit="10" />
    <path d="M85.786 159.574C85.786 162.18 87.6938 164.298 87.6938 164.298C87.6938 164.298 89.6016 162.184 89.6016 159.574C89.6016 156.964 87.6938 154.85 87.6938 154.85C87.6938 154.85 85.786 156.968 85.786 159.574Z" fill="#6C63FF" />
    <path d="M86.8543 170.407C88.656 172.285 91.4941 172.482 91.4941 172.482C91.4941 172.482 91.4078 169.632 89.606 167.758C87.8042 165.884 84.9661 165.683 84.9661 165.683C84.9661 165.683 85.0525 168.529 86.8543 170.407Z" fill="#6C63FF" />
    <path d="M86.6775 179.736C88.4793 181.614 91.3174 181.811 91.3174 181.811C91.3174 181.811 91.231 178.961 89.4293 177.087C87.6275 175.213 84.8051 175.009 84.8051 175.009C84.8051 175.009 84.8757 177.855 86.6775 179.736Z" fill="#6C63FF" />
    <path d="M96.4483 184.865C94.7446 186.834 94.8035 189.684 94.8035 189.684C94.8035 189.684 97.6259 189.341 99.3296 187.373C101.033 185.405 100.974 182.555 100.974 182.555C100.974 182.555 98.1519 182.897 96.4483 184.865Z" fill="#6C63FF" />
    <path d="M94.8663 164.975C92.6995 166.416 91.9968 169.179 91.9968 169.179C91.9968 169.179 94.8114 169.604 96.9743 168.179C99.1372 166.754 99.8438 163.975 99.8438 163.975C99.8438 163.975 97.0331 163.534 94.8663 164.975Z" fill="#6C63FF" />
    <path opacity="0.1" d="M94.8663 164.975C92.6995 166.416 91.9968 169.179 91.9968 169.179C91.9968 169.179 94.8114 169.604 96.9743 168.179C99.1372 166.754 99.8438 163.975 99.8438 163.975C99.8438 163.975 97.0331 163.534 94.8663 164.975Z" fill="black" />
    <path d="M84.2596 163.782C84.2596 163.782 91.1291 177.303 85.5314 184.7C79.9337 192.096 86.0417 212.255 86.0417 212.255" stroke="#6C63FF" stroke-miterlimit="10" />
    <path d="M86.293 159.574C86.293 162.18 84.3852 164.298 84.3852 164.298C84.3852 164.298 82.4775 162.184 82.4775 159.574C82.4775 156.964 84.3852 154.85 84.3852 154.85C84.3852 154.85 86.293 156.968 86.293 159.574Z" fill="#6C63FF" />
    <path opacity="0.1" d="M86.293 159.574C86.293 162.18 84.3852 164.298 84.3852 164.298C84.3852 164.298 82.4775 162.184 82.4775 159.574C82.4775 156.964 84.3852 154.85 84.3852 154.85C84.3852 154.85 86.293 156.968 86.293 159.574Z" fill="black" />
    <path d="M85.7433 170.608C87.5687 172.466 87.7061 175.331 87.7061 175.331C87.7061 175.331 84.868 175.17 83.0426 173.312C81.2173 171.454 81.0799 168.588 81.0799 168.588C81.0799 168.588 83.9219 168.75 85.7433 170.608Z" fill="#6C63FF" />
    <path opacity="0.1" d="M85.7433 170.608C87.5687 172.466 87.7061 175.331 87.7061 175.331C87.7061 175.331 84.868 175.17 83.0426 173.312C81.2173 171.454 81.0799 168.588 81.0799 168.588C81.0799 168.588 83.9219 168.75 85.7433 170.608Z" fill="black" />
    <path d="M82.1672 183.531C83.9925 185.389 84.1299 188.255 84.1299 188.255C84.1299 188.255 81.2918 188.093 79.4664 186.235C77.6411 184.377 77.5037 181.512 77.5037 181.512C77.5037 181.512 80.3418 181.665 82.1672 183.531Z" fill="#6C63FF" />
    <path d="M87.4316 180.685C87.4316 180.685 83.2982 174.15 77.4924 173.993" stroke="#6C63FF" stroke-miterlimit="10" />
    <path d="M90.6497 176.737C90.6497 176.737 94.7831 170.202 100.589 170.045" stroke="#6C63FF" stroke-miterlimit="10" />
    <path d="M91.1875 186.066C91.1875 186.066 87.054 179.532 81.2483 179.374" stroke="#6C63FF" stroke-miterlimit="10" />
    <path d="M77.6842 175.032C77.0923 175.032 76.6125 174.551 76.6125 173.958C76.6125 173.364 77.0923 172.883 77.6842 172.883C78.2761 172.883 78.7559 173.364 78.7559 173.958C78.7559 174.551 78.2761 175.032 77.6842 175.032Z" fill="#6C63FF" />
    <path d="M100.491 171.174C99.899 171.174 99.4192 170.693 99.4192 170.1C99.4192 169.506 99.899 169.025 100.491 169.025C101.083 169.025 101.562 169.506 101.562 170.1C101.562 170.693 101.083 171.174 100.491 171.174Z" fill="#6C63FF" />
    <path d="M88.1458 188.219C88.1458 188.219 92.2792 181.685 98.085 181.527" stroke="#6C63FF" stroke-miterlimit="10" />
    <path d="M97.987 182.657C97.3951 182.657 96.9153 182.176 96.9153 181.582C96.9153 180.989 97.3951 180.508 97.987 180.508C98.5788 180.508 99.0586 180.989 99.0586 181.582C99.0586 182.176 98.5788 182.657 97.987 182.657Z" fill="#6C63FF" />
    <path d="M81.1706 180.504C80.5787 180.504 80.0989 180.023 80.0989 179.429C80.0989 178.836 80.5787 178.354 81.1706 178.354C81.7624 178.354 82.2422 178.836 82.2422 179.429C82.2422 180.023 81.7624 180.504 81.1706 180.504Z" fill="#6C63FF" />
    <path d="M65.2916 204.394C65.2916 204.394 75.2543 202.394 77.9118 199.729C80.5694 197.064 92.5262 192.415 93.853 195.734C95.1798 199.052 111.788 210.401 100.507 212.397C89.2249 214.392 73.9354 215.061 70.6144 213.727C67.2935 212.393 65.2916 204.394 65.2916 204.394Z" fill="#A8A8A8" />
    <path opacity="0.2" d="M100.507 211.161C89.2132 213.16 73.9355 213.826 70.6146 212.491C68.0866 211.476 66.328 206.587 65.6332 204.335L65.2995 204.406C65.2995 204.406 67.2936 212.401 70.6146 213.731C73.9355 215.062 89.2132 214.396 100.507 212.401C103.765 211.822 104.699 210.468 104.346 208.756C104.059 209.87 102.925 210.732 100.507 211.161Z" fill="black" />
    <path d="M357.517 237.72C357.517 237.72 354.227 242.05 359.036 248.545C363.845 255.04 367.809 260.555 366.204 264.621C366.204 264.621 358.95 252.524 353.046 252.355C347.142 252.186 351.024 244.994 357.517 237.72Z" fill="#6C63FF" />
    <path opacity="0.1" d="M357.517 237.72C357.231 238.137 357.005 238.593 356.846 239.074C351.083 245.86 348.018 252.194 353.553 252.355C358.711 252.505 364.897 261.751 366.381 264.09C366.332 264.27 366.273 264.447 366.204 264.621C366.204 264.621 358.95 252.524 353.046 252.355C347.142 252.186 351.025 244.994 357.517 237.72Z" fill="black" />
    <path d="M351.401 243.215C351.401 244.734 351.57 245.97 351.794 245.97C352.018 245.97 352.187 244.738 352.187 243.215C352.187 241.691 351.975 242.428 351.767 242.428C351.558 242.428 351.401 241.699 351.401 243.215Z" fill="#FFD037" />
    <path d="M349.305 245.029C350.636 245.758 351.794 246.21 351.892 246.01C351.99 245.809 350.997 245.085 349.666 244.36C348.335 243.636 348.861 244.163 348.759 244.36C348.657 244.557 347.974 244.301 349.305 245.029Z" fill="#FFD037" />
    <path d="M374.895 237.72C374.895 237.72 378.184 242.05 373.375 248.545C368.567 255.04 364.602 260.555 366.208 264.617C366.208 264.617 373.462 252.52 379.366 252.351C385.269 252.182 381.387 244.994 374.895 237.72Z" fill="#6C63FF" />
    <path opacity="0.1" d="M374.895 237.72C375.181 238.137 375.407 238.593 375.566 239.074C381.328 245.86 384.394 252.194 378.859 252.355C373.701 252.505 367.515 261.751 366.031 264.09C366.08 264.27 366.139 264.447 366.208 264.621C366.208 264.621 373.462 252.524 379.366 252.355C385.269 252.186 381.387 244.994 374.895 237.72Z" fill="black" />
    <path d="M381.011 243.215C381.011 244.734 380.842 245.97 380.618 245.97C380.394 245.97 380.226 244.738 380.226 243.215C380.226 241.691 380.438 242.428 380.646 242.428C380.854 242.428 381.011 241.699 381.011 243.215Z" fill="#FFD037" />
    <path d="M383.107 245.029C381.776 245.758 380.618 246.21 380.52 246.01C380.422 245.809 381.415 245.085 382.746 244.36C384.076 243.636 383.55 244.163 383.652 244.36C383.754 244.557 384.437 244.301 383.107 245.029Z" fill="#FFD037" />
    <path d="M379.963 264.05C379.963 264.05 370.766 263.767 367.994 261.787C365.223 259.807 353.863 257.457 353.16 260.606C352.457 263.755 339.339 276.395 349.721 276.477C360.104 276.56 373.847 274.855 376.614 273.167C379.382 271.478 379.963 264.05 379.963 264.05Z" fill="#A8A8A8" />
    <path opacity="0.2" d="M349.533 275.387C359.916 275.47 373.659 273.765 376.426 272.076C378.534 270.789 379.374 266.172 379.653 264.042H379.959C379.959 264.042 379.378 271.482 376.611 273.171C373.843 274.859 360.1 276.568 349.717 276.481C346.718 276.458 345.686 275.387 345.741 273.805C346.161 274.773 347.303 275.367 349.533 275.387Z" fill="black" />
  </g>
  <defs>
    <linearGradient id="paint0_linear" x1="203.102" y1="235.279" x2="203.102" y2="95.7019" gradientUnits="userSpaceOnUse">
      <stop stop-color="#808080" stop-opacity="0.25" />
      <stop offset="0.54" stop-color="#808080" stop-opacity="0.12" />
      <stop offset="1" stop-color="#808080" stop-opacity="0.1" />
    </linearGradient>
    <linearGradient id="paint1_linear" x1="-26705.1" y1="68670.2" x2="-33889.4" y2="42062.9" gradientUnits="userSpaceOnUse">
      <stop stop-color="#808080" stop-opacity="0.25" />
      <stop offset="0.54" stop-color="#808080" stop-opacity="0.12" />
      <stop offset="1" stop-color="#808080" stop-opacity="0.1" />
    </linearGradient>
    <linearGradient id="paint2_linear" x1="-20724.6" y1="170695" x2="-20724.6" y2="47670.4" gradientUnits="userSpaceOnUse">
      <stop stop-color="#808080" stop-opacity="0.25" />
      <stop offset="0.54" stop-color="#808080" stop-opacity="0.12" />
      <stop offset="1" stop-color="#808080" stop-opacity="0.1" />
    </linearGradient>
    <clipPath id="clip0">
      <rect width="402" height="309" fill="white" transform="matrix(-1 0 0 1 402 0.295166)" />
    </clipPath>
  </defs>
</svg>