<svg width="29" height="18" viewBox="0 0 29 18" fill="none" xmlns="http://www.w3.org/2000/svg">
<g clip-path="url(#clip0_1239:2354)">
<path d="M22.8571 10.2857L23.8729 10.4143L23.8471 10.71L24.4514 10.9286L24.6443 10.7229C25.2871 11.0571 25.84 11.5714 26.2 12.2143L25.9814 12.4329L26.2386 13.0114L26.5343 12.9857C26.65 13.3586 26.7143 13.7443 26.7143 14.1429L26.5857 15.1457L26.2771 15.1329L26.0329 15.7371L26.2771 15.93C25.93 16.5857 25.4286 17.1257 24.7857 17.4857L24.5671 17.2543L23.9757 17.5114L24.0014 17.82C23.6414 17.9357 23.2557 18 22.8571 18L21.8414 17.8714L21.8543 17.55L21.2629 17.3186L21.0571 17.5629C20.4143 17.2157 19.8614 16.7143 19.5014 16.0714L19.7329 15.84L19.4757 15.2486L19.1671 15.2743C19.0643 14.9143 19 14.5414 19 14.1429L19.1414 13.1143L19.4371 13.1271L19.6814 12.5357L19.45 12.3429C19.7971 11.6871 20.2857 11.16 20.9286 10.7871L21.1471 11.0057L21.7386 10.7486L21.7129 10.4657C22.0729 10.35 22.4586 10.2857 22.8571 10.2857V10.2857ZM22.8571 12.2143C21.79 12.2143 20.9286 13.0757 20.9286 14.1429C20.9286 15.21 21.79 16.0714 22.8571 16.0714C23.9243 16.0714 24.7857 15.21 24.7857 14.1429C24.7857 13.0757 23.9243 12.2143 22.8571 12.2143ZM7.42857 10.2857L8.44429 10.4143L8.41857 10.71L9.02286 10.9286L9.21571 10.7229C9.85857 11.0571 10.4114 11.5714 10.7714 12.2143L10.5529 12.4329L10.81 13.0114L11.1057 12.9857C11.2214 13.3586 11.2857 13.7443 11.2857 14.1429L11.1571 15.1457L10.8357 15.1329L10.6043 15.7371L10.8486 15.93C10.5014 16.5857 10 17.1257 9.35714 17.4857L9.13857 17.2543L8.54714 17.5114L8.57286 17.82C8.21286 17.9357 7.82714 18 7.42857 18L6.41286 17.8714L6.42571 17.55L5.83429 17.3186L5.62857 17.5629C4.98571 17.2157 4.43286 16.7143 4.07286 16.0714L4.30429 15.84L4.04714 15.2486L3.73857 15.2743C3.63571 14.9143 3.57143 14.5414 3.57143 14.1429L3.71286 13.1143L4.00857 13.1271L4.25286 12.5357L4.02143 12.3429C4.36857 11.6871 4.85714 11.16 5.5 10.7871L5.71857 11.0057L6.31 10.7486L6.28429 10.4657C6.64429 10.35 7.03 10.2857 7.42857 10.2857ZM7.42857 12.2143C6.36143 12.2143 5.5 13.0757 5.5 14.1429C5.5 15.21 6.36143 16.0714 7.42857 16.0714C8.49571 16.0714 9.35714 15.21 9.35714 14.1429C9.35714 13.0757 8.49571 12.2143 7.42857 12.2143ZM20.2857 0L24.1429 5.14286H26.7143C28.1414 5.14286 29.2857 6.28714 29.2857 7.71429V11.5714H26.7143C26.7143 9.43714 24.9914 7.71429 22.8571 7.71429C20.7229 7.71429 19 9.43714 19 11.5714H11.2857C11.2857 9.43714 9.56286 7.71429 7.42857 7.71429C5.29429 7.71429 3.57143 9.43714 3.57143 11.5714H1V5.14286H13.2143V0H20.2857ZM15.1429 1.92857V5.14286H22.1629L19.6429 1.92857H15.1429Z" fill="#393D60"/>
</g>
<defs>
<clipPath id="clip0_1239:2354">
<rect width="29" height="18" fill="white"/>
</clipPath>
</defs>
</svg>
