<svg width="36" height="18" viewBox="0 0 36 18" fill="none" xmlns="http://www.w3.org/2000/svg">
<path d="M24 0L28.5 6H31.5C33.165 6 34.5 7.335 34.5 9V13.5H31.5C31.5 14.6935 31.0259 15.8381 30.182 16.682C29.3381 17.5259 28.1935 18 27 18C25.8065 18 24.6619 17.5259 23.818 16.682C22.9741 15.8381 22.5 14.6935 22.5 13.5H13.5C13.5 14.6935 13.0259 15.8381 12.182 16.682C11.3381 17.5259 10.1935 18 9 18C7.80653 18 6.66193 17.5259 5.81802 16.682C4.97411 15.8381 4.5 14.6935 4.5 13.5H1.5V9C1.5 7.335 2.835 6 4.5 6L9 0H24ZM15.75 2.25H10.125L7.29 6H15.75V2.25ZM18 2.25V6H25.71L22.875 2.25H18ZM9 11.25C8.40326 11.25 7.83097 11.4871 7.40901 11.909C6.98705 12.331 6.75 12.9033 6.75 13.5C6.75 14.0967 6.98705 14.669 7.40901 15.091C7.83097 15.5129 8.40326 15.75 9 15.75C9.59674 15.75 10.169 15.5129 10.591 15.091C11.0129 14.669 11.25 14.0967 11.25 13.5C11.25 12.9033 11.0129 12.331 10.591 11.909C10.169 11.4871 9.59674 11.25 9 11.25ZM27 11.25C26.4033 11.25 25.831 11.4871 25.409 11.909C24.9871 12.331 24.75 12.9033 24.75 13.5C24.75 14.0967 24.9871 14.669 25.409 15.091C25.831 15.5129 26.4033 15.75 27 15.75C27.5967 15.75 28.169 15.5129 28.591 15.091C29.0129 14.669 29.25 14.0967 29.25 13.5C29.25 12.9033 29.0129 12.331 28.591 11.909C28.169 11.4871 27.5967 11.25 27 11.25Z" fill="#393D60"/>
</svg>
