<svg width="60" height="12" viewBox="0 0 60 12" fill="none" xmlns="http://www.w3.org/2000/svg">
<path d="M6 0L7.34708 4.1459H11.7063L8.17963 6.7082L9.52671 10.8541L6 8.2918L2.47329 10.8541L3.82037 6.7082L0.293661 4.1459H4.65292L6 0Z" fill="#E9D30C"/>
<path d="M18 0L19.3471 4.1459H23.7063L20.1796 6.7082L21.5267 10.8541L18 8.2918L14.4733 10.8541L15.8204 6.7082L12.2937 4.1459H16.6529L18 0Z" fill="#E9D30C"/>
<path d="M30 0L31.3471 4.1459H35.7063L32.1796 6.7082L33.5267 10.8541L30 8.2918L26.4733 10.8541L27.8204 6.7082L24.2937 4.1459H28.6529L30 0Z" fill="#E9D30C"/>
<path d="M42 0L43.3471 4.1459H47.7063L44.1796 6.7082L45.5267 10.8541L42 8.2918L38.4733 10.8541L39.8204 6.7082L36.2937 4.1459H40.6529L42 0Z" fill="#E9D30C"/>
<path d="M54 0L55.3471 4.1459H59.7063L56.1796 6.7082L57.5267 10.8541L54 8.2918L50.4733 10.8541L51.8204 6.7082L48.2937 4.1459H52.6529L54 0Z" fill="#E6E7F4"/>
<path d="M53.9994 8.2918L53.9993 0L52.6522 4.1459H48.293L51.8197 6.7082L50.4726 10.8541L53.9994 8.2918Z" fill="#E8D20C"/>
</svg>
