<svg width="33" height="18" viewBox="0 0 33 18" fill="none" xmlns="http://www.w3.org/2000/svg">
<path d="M3 0H22.5L27 6H30C31.665 6 33 7.335 33 9V13.5H30C30 14.6935 29.5259 15.8381 28.682 16.682C27.8381 17.5259 26.6935 18 25.5 18C24.3065 18 23.1619 17.5259 22.318 16.682C21.4741 15.8381 21 14.6935 21 13.5H12C12 14.6935 11.5259 15.8381 10.682 16.682C9.83807 17.5259 8.69347 18 7.5 18C6.30653 18 5.16193 17.5259 4.31802 16.682C3.47411 15.8381 3 14.6935 3 13.5H0V3C0 1.335 1.335 0 3 0ZM2.25 2.25V6H14.25V2.25H2.25ZM16.5 2.25V6H24.21L21.375 2.25H16.5ZM7.5 11.25C6.90326 11.25 6.33097 11.4871 5.90901 11.909C5.48705 12.331 5.25 12.9033 5.25 13.5C5.25 14.0967 5.48705 14.669 5.90901 15.091C6.33097 15.5129 6.90326 15.75 7.5 15.75C8.09674 15.75 8.66903 15.5129 9.09099 15.091C9.51295 14.669 9.75 14.0967 9.75 13.5C9.75 12.9033 9.51295 12.331 9.09099 11.909C8.66903 11.4871 8.09674 11.25 7.5 11.25ZM25.5 11.25C24.9033 11.25 24.331 11.4871 23.909 11.909C23.4871 12.331 23.25 12.9033 23.25 13.5C23.25 14.0967 23.4871 14.669 23.909 15.091C24.331 15.5129 24.9033 15.75 25.5 15.75C26.0967 15.75 26.669 15.5129 27.091 15.091C27.5129 14.669 27.75 14.0967 27.75 13.5C27.75 12.9033 27.5129 12.331 27.091 11.909C26.669 11.4871 26.0967 11.25 25.5 11.25Z" fill="#393D60"/>
</svg>
